<?xml version="1.0" encoding="utf-8" standalone="no"?>
<!DOCTYPE svg PUBLIC "-//W3C//DTD SVG 1.1//EN"
  "http://www.w3.org/Graphics/SVG/1.1/DTD/svg11.dtd">
<svg height="443.533787pt" version="1.1" viewBox="0 0 684 443.533787" width="684pt" xmlns="http://www.w3.org/2000/svg" xmlns:xlink="http://www.w3.org/1999/xlink">
 <metadata>
  <rdf:RDF xmlns:cc="http://creativecommons.org/ns#" xmlns:dc="http://purl.org/dc/elements/1.1/" xmlns:rdf="http://www.w3.org/1999/02/22-rdf-syntax-ns#">
   <cc:Work>
    <dc:type rdf:resource="http://purl.org/dc/dcmitype/StillImage"/>
    <dc:date>2021-10-26T14:51:43.298332</dc:date>
    <dc:format>image/svg+xml</dc:format>
    <dc:creator>
     <cc:Agent>
      <dc:title>Matplotlib v3.4.2, https://matplotlib.org/</dc:title>
     </cc:Agent>
    </dc:creator>
   </cc:Work>
  </rdf:RDF>
 </metadata>
 <defs>
  <style type="text/css">*{stroke-linecap:butt;stroke-linejoin:round;}</style>
 </defs>
 <g id="figure_1">
  <g id="patch_1">
   <path d="M 0 443.533787 
L 684 443.533787 
L 684 0 
L 0 0 
z
" style="fill:#ffffff;"/>
  </g>
  <g id="axes_1">
   <g id="patch_2">
    <path d="M 39.121575 301.603082 
L 666.837329 301.603082 
L 666.837329 23.162625 
L 39.121575 23.162625 
z
" style="fill:#eaeaf2;"/>
   </g>
   <g id="matplotlib.axis_1">
    <g id="xtick_1">
     <g id="line2d_1">
      <path clip-path="url(#p96a2d98614)" d="M 78.537653 301.603082 
L 78.537653 23.162625 
" style="fill:none;stroke:#ffffff;stroke-linecap:round;"/>
     </g>
     <g id="line2d_2"/>
     <g id="text_1">
      <!-- $\mathdefault{2000}$ -->
      <g style="fill:#262626;" transform="translate(68.574982 315.52158)scale(0.1 -0.1)">
       <defs>
        <path d="M 2669 990 
L 2554 990 
C 2490 537 2438 460 2413 422 
C 2381 371 1920 371 1830 371 
L 602 371 
C 832 620 1280 1073 1824 1596 
C 2214 1966 2669 2400 2669 3033 
C 2669 3788 2067 4224 1395 4224 
C 691 4224 262 3603 262 3027 
C 262 2777 448 2745 525 2745 
C 589 2745 781 2783 781 3007 
C 781 3206 614 3264 525 3264 
C 486 3264 448 3257 422 3244 
C 544 3788 915 4057 1306 4057 
C 1862 4057 2227 3616 2227 3033 
C 2227 2477 1901 1998 1536 1583 
L 262 147 
L 262 0 
L 2515 0 
L 2669 990 
z
" id="CMR17-32" transform="scale(0.015625)"/>
        <path d="M 2688 2038 
C 2688 2430 2682 3099 2413 3613 
C 2176 4063 1798 4224 1466 4224 
C 1158 4224 768 4082 525 3620 
C 269 3137 243 2539 243 2038 
C 243 1671 250 1112 448 623 
C 723 -39 1216 -128 1466 -128 
C 1760 -128 2208 -7 2470 604 
C 2662 1048 2688 1568 2688 2038 
z
M 1466 -26 
C 1056 -26 813 328 723 816 
C 653 1196 653 1749 653 2109 
C 653 2604 653 3015 736 3407 
C 858 3954 1216 4121 1466 4121 
C 1728 4121 2067 3947 2189 3420 
C 2272 3054 2278 2623 2278 2109 
C 2278 1691 2278 1176 2202 797 
C 2067 96 1690 -26 1466 -26 
z
" id="CMR17-30" transform="scale(0.015625)"/>
       </defs>
       <use transform="scale(0.996264)" xlink:href="#CMR17-32"/>
       <use transform="translate(45.690477 0)scale(0.996264)" xlink:href="#CMR17-30"/>
       <use transform="translate(91.380954 0)scale(0.996264)" xlink:href="#CMR17-30"/>
       <use transform="translate(137.071431 0)scale(0.996264)" xlink:href="#CMR17-30"/>
      </g>
     </g>
    </g>
    <g id="xtick_2">
     <g id="line2d_3">
      <path clip-path="url(#p96a2d98614)" d="M 137.367621 301.603082 
L 137.367621 23.162625 
" style="fill:none;stroke:#ffffff;stroke-linecap:round;"/>
     </g>
     <g id="line2d_4"/>
     <g id="text_2">
      <!-- $\mathdefault{2002}$ -->
      <g style="fill:#262626;" transform="translate(127.40495 315.52158)scale(0.1 -0.1)">
       <use transform="scale(0.996264)" xlink:href="#CMR17-32"/>
       <use transform="translate(45.690477 0)scale(0.996264)" xlink:href="#CMR17-30"/>
       <use transform="translate(91.380954 0)scale(0.996264)" xlink:href="#CMR17-30"/>
       <use transform="translate(137.071431 0)scale(0.996264)" xlink:href="#CMR17-32"/>
      </g>
     </g>
    </g>
    <g id="xtick_3">
     <g id="line2d_5">
      <path clip-path="url(#p96a2d98614)" d="M 196.197588 301.603082 
L 196.197588 23.162625 
" style="fill:none;stroke:#ffffff;stroke-linecap:round;"/>
     </g>
     <g id="line2d_6"/>
     <g id="text_3">
      <!-- $\mathdefault{2004}$ -->
      <g style="fill:#262626;" transform="translate(186.234918 315.52158)scale(0.1 -0.1)">
       <defs>
        <path d="M 2150 4147 
C 2150 4281 2144 4288 2029 4288 
L 128 1254 
L 128 1088 
L 1779 1088 
L 1779 460 
C 1779 230 1766 166 1318 166 
L 1197 166 
L 1197 0 
C 1402 12 1747 12 1965 12 
C 2182 12 2528 12 2733 0 
L 2733 166 
L 2611 166 
C 2163 166 2150 230 2150 460 
L 2150 1088 
L 2803 1088 
L 2803 1254 
L 2150 1254 
L 2150 4147 
z
M 1798 3723 
L 1798 1254 
L 256 1254 
L 1798 3723 
z
" id="CMR17-34" transform="scale(0.015625)"/>
       </defs>
       <use transform="scale(0.996264)" xlink:href="#CMR17-32"/>
       <use transform="translate(45.690477 0)scale(0.996264)" xlink:href="#CMR17-30"/>
       <use transform="translate(91.380954 0)scale(0.996264)" xlink:href="#CMR17-30"/>
       <use transform="translate(137.071431 0)scale(0.996264)" xlink:href="#CMR17-34"/>
      </g>
     </g>
    </g>
    <g id="xtick_4">
     <g id="line2d_7">
      <path clip-path="url(#p96a2d98614)" d="M 255.027556 301.603082 
L 255.027556 23.162625 
" style="fill:none;stroke:#ffffff;stroke-linecap:round;"/>
     </g>
     <g id="line2d_8"/>
     <g id="text_4">
      <!-- $\mathdefault{2006}$ -->
      <g style="fill:#262626;" transform="translate(245.064885 315.52158)scale(0.1 -0.1)">
       <defs>
        <path d="M 678 2198 
C 678 3712 1395 4076 1811 4076 
C 1946 4076 2272 4049 2400 3782 
C 2298 3782 2106 3782 2106 3558 
C 2106 3385 2246 3328 2336 3328 
C 2394 3328 2566 3353 2566 3571 
C 2566 3987 2246 4224 1805 4224 
C 1043 4224 243 3411 243 2011 
C 243 257 966 -128 1478 -128 
C 2099 -128 2688 431 2688 1295 
C 2688 2101 2170 2688 1517 2688 
C 1126 2688 838 2430 678 1979 
L 678 2198 
z
M 1478 25 
C 691 25 691 1212 691 1450 
C 691 1914 909 2585 1504 2585 
C 1613 2585 1926 2585 2138 2140 
C 2253 1889 2253 1624 2253 1302 
C 2253 954 2253 696 2118 438 
C 1978 173 1773 25 1478 25 
z
" id="CMR17-36" transform="scale(0.015625)"/>
       </defs>
       <use transform="scale(0.996264)" xlink:href="#CMR17-32"/>
       <use transform="translate(45.690477 0)scale(0.996264)" xlink:href="#CMR17-30"/>
       <use transform="translate(91.380954 0)scale(0.996264)" xlink:href="#CMR17-30"/>
       <use transform="translate(137.071431 0)scale(0.996264)" xlink:href="#CMR17-36"/>
      </g>
     </g>
    </g>
    <g id="xtick_5">
     <g id="line2d_9">
      <path clip-path="url(#p96a2d98614)" d="M 313.857524 301.603082 
L 313.857524 23.162625 
" style="fill:none;stroke:#ffffff;stroke-linecap:round;"/>
     </g>
     <g id="line2d_10"/>
     <g id="text_5">
      <!-- $\mathdefault{2008}$ -->
      <g style="fill:#262626;" transform="translate(303.894853 315.52158)scale(0.1 -0.1)">
       <defs>
        <path d="M 1741 2289 
C 2144 2494 2554 2803 2554 3298 
C 2554 3884 1990 4224 1472 4224 
C 890 4224 378 3800 378 3215 
C 378 3054 416 2777 666 2533 
C 730 2469 998 2276 1171 2154 
C 883 2006 211 1652 211 945 
C 211 282 838 -128 1459 -128 
C 2144 -128 2720 366 2720 1022 
C 2720 1607 2330 1877 2074 2051 
L 1741 2289 
z
M 902 2855 
C 851 2887 595 3086 595 3388 
C 595 3781 998 4076 1459 4076 
C 1965 4076 2336 3716 2336 3298 
C 2336 2700 1670 2359 1638 2359 
C 1632 2359 1626 2359 1574 2398 
L 902 2855 
z
M 2080 1536 
C 2176 1466 2483 1253 2483 861 
C 2483 385 2010 25 1472 25 
C 890 25 448 443 448 951 
C 448 1459 838 1884 1280 2083 
L 2080 1536 
z
" id="CMR17-38" transform="scale(0.015625)"/>
       </defs>
       <use transform="scale(0.996264)" xlink:href="#CMR17-32"/>
       <use transform="translate(45.690477 0)scale(0.996264)" xlink:href="#CMR17-30"/>
       <use transform="translate(91.380954 0)scale(0.996264)" xlink:href="#CMR17-30"/>
       <use transform="translate(137.071431 0)scale(0.996264)" xlink:href="#CMR17-38"/>
      </g>
     </g>
    </g>
    <g id="xtick_6">
     <g id="line2d_11">
      <path clip-path="url(#p96a2d98614)" d="M 372.687491 301.603082 
L 372.687491 23.162625 
" style="fill:none;stroke:#ffffff;stroke-linecap:round;"/>
     </g>
     <g id="line2d_12"/>
     <g id="text_6">
      <!-- $\mathdefault{2010}$ -->
      <g style="fill:#262626;" transform="translate(362.724821 315.52158)scale(0.1 -0.1)">
       <defs>
        <path d="M 1702 4083 
C 1702 4217 1696 4224 1606 4224 
C 1357 3927 979 3833 621 3820 
C 602 3820 570 3820 563 3808 
C 557 3795 557 3782 557 3648 
C 755 3648 1088 3686 1344 3839 
L 1344 467 
C 1344 243 1331 166 781 166 
L 589 166 
L 589 0 
C 896 6 1216 12 1523 12 
C 1830 12 2150 6 2458 0 
L 2458 166 
L 2266 166 
C 1715 166 1702 236 1702 467 
L 1702 4083 
z
" id="CMR17-31" transform="scale(0.015625)"/>
       </defs>
       <use transform="scale(0.996264)" xlink:href="#CMR17-32"/>
       <use transform="translate(45.690477 0)scale(0.996264)" xlink:href="#CMR17-30"/>
       <use transform="translate(91.380954 0)scale(0.996264)" xlink:href="#CMR17-31"/>
       <use transform="translate(137.071431 0)scale(0.996264)" xlink:href="#CMR17-30"/>
      </g>
     </g>
    </g>
    <g id="xtick_7">
     <g id="line2d_13">
      <path clip-path="url(#p96a2d98614)" d="M 431.517459 301.603082 
L 431.517459 23.162625 
" style="fill:none;stroke:#ffffff;stroke-linecap:round;"/>
     </g>
     <g id="line2d_14"/>
     <g id="text_7">
      <!-- $\mathdefault{2012}$ -->
      <g style="fill:#262626;" transform="translate(421.554788 315.52158)scale(0.1 -0.1)">
       <use transform="scale(0.996264)" xlink:href="#CMR17-32"/>
       <use transform="translate(45.690477 0)scale(0.996264)" xlink:href="#CMR17-30"/>
       <use transform="translate(91.380954 0)scale(0.996264)" xlink:href="#CMR17-31"/>
       <use transform="translate(137.071431 0)scale(0.996264)" xlink:href="#CMR17-32"/>
      </g>
     </g>
    </g>
    <g id="xtick_8">
     <g id="line2d_15">
      <path clip-path="url(#p96a2d98614)" d="M 490.347427 301.603082 
L 490.347427 23.162625 
" style="fill:none;stroke:#ffffff;stroke-linecap:round;"/>
     </g>
     <g id="line2d_16"/>
     <g id="text_8">
      <!-- $\mathdefault{2014}$ -->
      <g style="fill:#262626;" transform="translate(480.384756 315.52158)scale(0.1 -0.1)">
       <use transform="scale(0.996264)" xlink:href="#CMR17-32"/>
       <use transform="translate(45.690477 0)scale(0.996264)" xlink:href="#CMR17-30"/>
       <use transform="translate(91.380954 0)scale(0.996264)" xlink:href="#CMR17-31"/>
       <use transform="translate(137.071431 0)scale(0.996264)" xlink:href="#CMR17-34"/>
      </g>
     </g>
    </g>
    <g id="xtick_9">
     <g id="line2d_17">
      <path clip-path="url(#p96a2d98614)" d="M 549.177394 301.603082 
L 549.177394 23.162625 
" style="fill:none;stroke:#ffffff;stroke-linecap:round;"/>
     </g>
     <g id="line2d_18"/>
     <g id="text_9">
      <!-- $\mathdefault{2016}$ -->
      <g style="fill:#262626;" transform="translate(539.214724 315.52158)scale(0.1 -0.1)">
       <use transform="scale(0.996264)" xlink:href="#CMR17-32"/>
       <use transform="translate(45.690477 0)scale(0.996264)" xlink:href="#CMR17-30"/>
       <use transform="translate(91.380954 0)scale(0.996264)" xlink:href="#CMR17-31"/>
       <use transform="translate(137.071431 0)scale(0.996264)" xlink:href="#CMR17-36"/>
      </g>
     </g>
    </g>
    <g id="xtick_10">
     <g id="line2d_19">
      <path clip-path="url(#p96a2d98614)" d="M 608.007362 301.603082 
L 608.007362 23.162625 
" style="fill:none;stroke:#ffffff;stroke-linecap:round;"/>
     </g>
     <g id="line2d_20"/>
     <g id="text_10">
      <!-- $\mathdefault{2018}$ -->
      <g style="fill:#262626;" transform="translate(598.044691 315.52158)scale(0.1 -0.1)">
       <use transform="scale(0.996264)" xlink:href="#CMR17-32"/>
       <use transform="translate(45.690477 0)scale(0.996264)" xlink:href="#CMR17-30"/>
       <use transform="translate(91.380954 0)scale(0.996264)" xlink:href="#CMR17-31"/>
       <use transform="translate(137.071431 0)scale(0.996264)" xlink:href="#CMR17-38"/>
      </g>
     </g>
    </g>
    <g id="xtick_11">
     <g id="line2d_21">
      <path clip-path="url(#p96a2d98614)" d="M 666.837329 301.603082 
L 666.837329 23.162625 
" style="fill:none;stroke:#ffffff;stroke-linecap:round;"/>
     </g>
     <g id="line2d_22"/>
     <g id="text_11">
      <!-- $\mathdefault{2020}$ -->
      <g style="fill:#262626;" transform="translate(656.874659 315.52158)scale(0.1 -0.1)">
       <use transform="scale(0.996264)" xlink:href="#CMR17-32"/>
       <use transform="translate(45.690477 0)scale(0.996264)" xlink:href="#CMR17-30"/>
       <use transform="translate(91.380954 0)scale(0.996264)" xlink:href="#CMR17-32"/>
       <use transform="translate(137.071431 0)scale(0.996264)" xlink:href="#CMR17-30"/>
      </g>
     </g>
    </g>
    <g id="text_12">
     <!-- Year -->
     <g style="fill:#262626;" transform="translate(342.994663 329.069105)scale(0.11 -0.11)">
      <defs>
       <path d="M 3974 4416 
L 3424 4416 
L 2432 2875 
C 2355 2754 2138 2424 2035 2239 
L 1722 2742 
L 646 4416 
L 19 4416 
L 1734 1769 
L 1734 0 
L 2259 0 
L 2259 1762 
L 3974 4416 
z
" id="CMSS17-59" transform="scale(0.015625)"/>
       <path d="M 2502 1375 
C 2502 1587 2490 2001 2285 2347 
C 2061 2713 1696 2816 1421 2816 
C 755 2816 192 2184 192 1363 
C 192 579 774 -64 1510 -64 
C 1798 -64 2150 19 2470 249 
C 2470 275 2458 414 2451 421 
C 2451 433 2432 629 2432 655 
C 2125 408 1773 326 1517 326 
C 1107 326 666 667 646 1375 
L 2502 1375 
z
M 698 1728 
C 781 2086 1062 2425 1421 2425 
C 1517 2425 1965 2412 2080 1728 
L 698 1728 
z
" id="CMSS17-65" transform="scale(0.015625)"/>
       <path d="M 2406 1789 
C 2406 2399 1978 2816 1402 2816 
C 1120 2816 813 2764 461 2559 
L 499 2133 
C 659 2250 934 2438 1395 2438 
C 1722 2438 1920 2185 1920 1782 
L 1920 1536 
C 896 1504 256 1209 256 711 
C 256 452 416 -64 947 -64 
C 1043 -64 1562 -52 1933 224 
L 1933 -13 
L 2406 -13 
L 2406 1789 
z
M 1920 824 
C 1920 711 1920 559 1728 446 
C 1562 339 1350 326 1261 326 
C 941 326 723 503 723 723 
C 723 1165 1722 1209 1920 1216 
L 1920 824 
z
" id="CMSS17-61" transform="scale(0.015625)"/>
       <path d="M 954 1369 
C 954 1974 1395 2379 1958 2392 
L 1958 2816 
C 1549 2809 1165 2604 934 2270 
L 934 2783 
L 480 2783 
L 480 0 
L 954 0 
L 954 1369 
z
" id="CMSS17-72" transform="scale(0.015625)"/>
      </defs>
      <use transform="scale(0.996264)" xlink:href="#CMSS17-59"/>
      <use transform="translate(54.4106 0)scale(0.996264)" xlink:href="#CMSS17-65"/>
      <use transform="translate(96.049422 0)scale(0.996264)" xlink:href="#CMSS17-61"/>
      <use transform="translate(138.368888 0)scale(0.996264)" xlink:href="#CMSS17-72"/>
     </g>
    </g>
   </g>
   <g id="matplotlib.axis_2">
    <g id="ytick_1">
     <g id="line2d_23">
      <path clip-path="url(#p96a2d98614)" d="M 39.121575 301.603082 
L 666.837329 301.603082 
" style="fill:none;stroke:#ffffff;stroke-linecap:round;"/>
     </g>
     <g id="line2d_24"/>
     <g id="text_13">
      <!-- $\mathdefault{0}$ -->
      <g style="fill:#262626;" transform="translate(27.140239 305.062331)scale(0.1 -0.1)">
       <use transform="scale(0.996264)" xlink:href="#CMR17-30"/>
      </g>
     </g>
    </g>
    <g id="ytick_2">
     <g id="line2d_25">
      <path clip-path="url(#p96a2d98614)" d="M 39.121575 267.724804 
L 666.837329 267.724804 
" style="fill:none;stroke:#ffffff;stroke-linecap:round;"/>
     </g>
     <g id="line2d_26"/>
     <g id="text_14">
      <!-- $\mathdefault{2}$ -->
      <g style="fill:#262626;" transform="translate(27.140239 271.184054)scale(0.1 -0.1)">
       <use transform="scale(0.996264)" xlink:href="#CMR17-32"/>
      </g>
     </g>
    </g>
    <g id="ytick_3">
     <g id="line2d_27">
      <path clip-path="url(#p96a2d98614)" d="M 39.121575 233.846527 
L 666.837329 233.846527 
" style="fill:none;stroke:#ffffff;stroke-linecap:round;"/>
     </g>
     <g id="line2d_28"/>
     <g id="text_15">
      <!-- $\mathdefault{4}$ -->
      <g style="fill:#262626;" transform="translate(27.140239 237.305776)scale(0.1 -0.1)">
       <use transform="scale(0.996264)" xlink:href="#CMR17-34"/>
      </g>
     </g>
    </g>
    <g id="ytick_4">
     <g id="line2d_29">
      <path clip-path="url(#p96a2d98614)" d="M 39.121575 199.968249 
L 666.837329 199.968249 
" style="fill:none;stroke:#ffffff;stroke-linecap:round;"/>
     </g>
     <g id="line2d_30"/>
     <g id="text_16">
      <!-- $\mathdefault{6}$ -->
      <g style="fill:#262626;" transform="translate(27.140239 203.427498)scale(0.1 -0.1)">
       <use transform="scale(0.996264)" xlink:href="#CMR17-36"/>
      </g>
     </g>
    </g>
    <g id="ytick_5">
     <g id="line2d_31">
      <path clip-path="url(#p96a2d98614)" d="M 39.121575 166.089972 
L 666.837329 166.089972 
" style="fill:none;stroke:#ffffff;stroke-linecap:round;"/>
     </g>
     <g id="line2d_32"/>
     <g id="text_17">
      <!-- $\mathdefault{8}$ -->
      <g style="fill:#262626;" transform="translate(27.140239 169.549221)scale(0.1 -0.1)">
       <use transform="scale(0.996264)" xlink:href="#CMR17-38"/>
      </g>
     </g>
    </g>
    <g id="ytick_6">
     <g id="line2d_33">
      <path clip-path="url(#p96a2d98614)" d="M 39.121575 132.211694 
L 666.837329 132.211694 
" style="fill:none;stroke:#ffffff;stroke-linecap:round;"/>
     </g>
     <g id="line2d_34"/>
     <g id="text_18">
      <!-- $\mathdefault{10}$ -->
      <g style="fill:#262626;" transform="translate(22.158904 135.670943)scale(0.1 -0.1)">
       <use transform="scale(0.996264)" xlink:href="#CMR17-31"/>
       <use transform="translate(45.690477 0)scale(0.996264)" xlink:href="#CMR17-30"/>
      </g>
     </g>
    </g>
    <g id="ytick_7">
     <g id="line2d_35">
      <path clip-path="url(#p96a2d98614)" d="M 39.121575 98.333417 
L 666.837329 98.333417 
" style="fill:none;stroke:#ffffff;stroke-linecap:round;"/>
     </g>
     <g id="line2d_36"/>
     <g id="text_19">
      <!-- $\mathdefault{12}$ -->
      <g style="fill:#262626;" transform="translate(22.158904 101.792666)scale(0.1 -0.1)">
       <use transform="scale(0.996264)" xlink:href="#CMR17-31"/>
       <use transform="translate(45.690477 0)scale(0.996264)" xlink:href="#CMR17-32"/>
      </g>
     </g>
    </g>
    <g id="ytick_8">
     <g id="line2d_37">
      <path clip-path="url(#p96a2d98614)" d="M 39.121575 64.455139 
L 666.837329 64.455139 
" style="fill:none;stroke:#ffffff;stroke-linecap:round;"/>
     </g>
     <g id="line2d_38"/>
     <g id="text_20">
      <!-- $\mathdefault{14}$ -->
      <g style="fill:#262626;" transform="translate(22.158904 67.914388)scale(0.1 -0.1)">
       <use transform="scale(0.996264)" xlink:href="#CMR17-31"/>
       <use transform="translate(45.690477 0)scale(0.996264)" xlink:href="#CMR17-34"/>
      </g>
     </g>
    </g>
    <g id="ytick_9">
     <g id="line2d_39">
      <path clip-path="url(#p96a2d98614)" d="M 39.121575 30.576861 
L 666.837329 30.576861 
" style="fill:none;stroke:#ffffff;stroke-linecap:round;"/>
     </g>
     <g id="line2d_40"/>
     <g id="text_21">
      <!-- $\mathdefault{16}$ -->
      <g style="fill:#262626;" transform="translate(22.158904 34.036111)scale(0.1 -0.1)">
       <use transform="scale(0.996264)" xlink:href="#CMR17-31"/>
       <use transform="translate(45.690477 0)scale(0.996264)" xlink:href="#CMR17-36"/>
      </g>
     </g>
    </g>
    <g id="text_22">
     <!-- Value [\$ M] -->
     <g style="fill:#262626;" transform="translate(15.419178 189.427797)rotate(-90)scale(0.11 -0.11)">
      <defs>
       <path d="M 3910 4416 
L 3411 4416 
L 2304 1361 
C 2272 1272 2074 687 2035 484 
L 2029 484 
C 1978 725 1773 1291 1664 1603 
L 922 3670 
L 646 4416 
L 83 4416 
L 1715 0 
L 2278 0 
L 3910 4416 
z
" id="CMSS17-56" transform="scale(0.015625)"/>
       <path d="M 947 4416 
L 474 4416 
L 474 0 
L 947 0 
L 947 4416 
z
" id="CMSS17-6c" transform="scale(0.015625)"/>
       <path d="M 2618 2752 
L 2131 2752 
L 2131 976 
C 2131 500 1786 307 1421 307 
C 998 307 960 448 960 712 
L 960 2752 
L 474 2752 
L 474 680 
C 474 179 646 -64 1088 -64 
C 1306 -64 1798 -13 2144 307 
L 2144 -13 
L 2618 -13 
L 2618 2752 
z
" id="CMSS17-75" transform="scale(0.015625)"/>
       <path d="M 1613 -1600 
L 1613 -1210 
L 1062 -1210 
L 1062 4409 
L 1613 4409 
L 1613 4800 
L 595 4800 
L 595 -1600 
L 1613 -1600 
z
" id="CMSS17-5b" transform="scale(0.015625)"/>
       <path d="M 1306 4800 
L 1306 4556 
C 736 4486 320 3968 320 3406 
C 320 2901 666 2383 1229 2268 
C 1299 2236 1306 2223 1306 2153 
L 1306 248 
C 979 255 659 402 403 594 
C 365 619 333 651 294 670 
C 288 600 262 536 262 466 
C 262 293 928 -7 1306 -14 
L 1306 -256 
L 1555 -256 
L 1555 -71 
C 1555 12 1709 12 1779 44 
C 2291 229 2541 747 2541 1246 
L 2541 1271 
C 2534 1782 2214 2287 1709 2434 
C 1645 2454 1549 2454 1549 2556 
C 1549 2588 1555 2620 1555 2645 
L 1555 4294 
C 1766 4294 1984 4224 2163 4122 
C 2246 4071 2317 4007 2400 3962 
C 2413 4026 2438 4109 2438 4173 
C 2438 4243 2323 4294 2253 4345 
C 2048 4473 1798 4556 1555 4556 
L 1555 4800 
L 1306 4800 
z
M 1555 255 
L 1555 2172 
C 1984 2057 2266 1687 2266 1214 
C 2266 792 2016 332 1555 255 
z
M 1306 4288 
L 1306 2549 
C 883 2690 595 2946 595 3412 
C 595 3796 877 4256 1306 4288 
z
" id="SFSS3583-24" transform="scale(0.015625)"/>
       <path d="M 3194 2373 
L 2886 1476 
C 2835 1311 2662 795 2624 592 
L 2618 592 
C 2598 719 2560 853 2458 1177 
C 2400 1368 2336 1565 2272 1743 
L 1325 4416 
L 576 4416 
L 576 0 
L 1075 0 
L 1075 3899 
L 1082 3899 
C 1082 3893 1139 3613 1530 2500 
L 2374 102 
L 2848 102 
L 3610 2233 
C 3661 2379 3821 2843 3891 3066 
C 3955 3257 4115 3728 4154 3912 
L 4160 3912 
L 4160 0 
L 4666 0 
L 4666 4416 
L 3923 4416 
L 3194 2373 
z
" id="CMSS17-4d" transform="scale(0.015625)"/>
       <path d="M 1146 4800 
L 128 4800 
L 128 4409 
L 678 4409 
L 678 -1210 
L 128 -1210 
L 128 -1600 
L 1146 -1600 
L 1146 4800 
z
" id="CMSS17-5d" transform="scale(0.015625)"/>
      </defs>
      <use transform="scale(0.996264)" xlink:href="#CMSS17-56"/>
      <use transform="translate(59.615401 0)scale(0.996264)" xlink:href="#CMSS17-61"/>
      <use transform="translate(104.537322 0)scale(0.996264)" xlink:href="#CMSS17-6c"/>
      <use transform="translate(126.718045 0)scale(0.996264)" xlink:href="#CMSS17-75"/>
      <use transform="translate(174.922988 0)scale(0.996264)" xlink:href="#CMSS17-65"/>
      <use transform="translate(247.790923 0)scale(0.996264)" xlink:href="#CMSS17-5b"/>
      <use transform="translate(274.976361 0)scale(0.996264)" xlink:href="#SFSS3583-24"/>
      <use transform="translate(350.845782 0)scale(0.996264)" xlink:href="#CMSS17-4d"/>
      <use transform="translate(432.521812 0)scale(0.996264)" xlink:href="#CMSS17-5d"/>
     </g>
    </g>
   </g>
   <g id="patch_3">
    <path clip-path="url(#p96a2d98614)" d="M 66.771659 301.603082 
L 90.303646 301.603082 
L 90.303646 292.870888 
L 66.771659 292.870888 
z
" style="fill:#1f77b4;opacity:0.7;"/>
   </g>
   <g id="patch_4">
    <path clip-path="url(#p96a2d98614)" d="M 96.186643 301.603082 
L 119.71863 301.603082 
L 119.71863 265.314568 
L 96.186643 265.314568 
z
" style="fill:#1f77b4;opacity:0.7;"/>
   </g>
   <g id="patch_5">
    <path clip-path="url(#p96a2d98614)" d="M 125.601627 301.603082 
L 149.133614 301.603082 
L 149.133614 288.445182 
L 125.601627 288.445182 
z
" style="fill:#1f77b4;opacity:0.7;"/>
   </g>
   <g id="patch_6">
    <path clip-path="url(#p96a2d98614)" d="M 155.016611 301.603082 
L 178.548598 301.603082 
L 178.548598 263.51597 
L 155.016611 263.51597 
z
" style="fill:#1f77b4;opacity:0.7;"/>
   </g>
   <g id="patch_7">
    <path clip-path="url(#p96a2d98614)" d="M 184.431595 301.603082 
L 207.963582 301.603082 
L 207.963582 264.901694 
L 184.431595 264.901694 
z
" style="fill:#1f77b4;opacity:0.7;"/>
   </g>
   <g id="patch_8">
    <path clip-path="url(#p96a2d98614)" d="M 213.846579 301.603082 
L 237.378566 301.603082 
L 237.378566 271.797058 
L 213.846579 271.797058 
z
" style="fill:#1f77b4;opacity:0.7;"/>
   </g>
   <g id="patch_9">
    <path clip-path="url(#p96a2d98614)" d="M 243.261562 301.603082 
L 266.793549 301.603082 
L 266.793549 274.9464 
L 243.261562 274.9464 
z
" style="fill:#1f77b4;opacity:0.7;"/>
   </g>
   <g id="patch_10">
    <path clip-path="url(#p96a2d98614)" d="M 272.676546 301.603082 
L 296.208533 301.603082 
L 296.208533 279.547053 
L 272.676546 279.547053 
z
" style="fill:#1f77b4;opacity:0.7;"/>
   </g>
   <g id="patch_11">
    <path clip-path="url(#p96a2d98614)" d="M 302.09153 301.603082 
L 325.623517 301.603082 
L 325.623517 271.956455 
L 302.09153 271.956455 
z
" style="fill:#1f77b4;opacity:0.7;"/>
   </g>
   <g id="patch_12">
    <path clip-path="url(#p96a2d98614)" d="M 331.506514 301.603082 
L 355.038501 301.603082 
L 355.038501 284.15023 
L 331.506514 284.15023 
z
" style="fill:#1f77b4;opacity:0.7;"/>
   </g>
   <g id="patch_13">
    <path clip-path="url(#p96a2d98614)" d="M 360.921498 301.603082 
L 384.453485 301.603082 
L 384.453485 291.177482 
L 360.921498 291.177482 
z
" style="fill:#1f77b4;opacity:0.7;"/>
   </g>
   <g id="patch_14">
    <path clip-path="url(#p96a2d98614)" d="M 390.336482 301.603082 
L 413.868469 301.603082 
L 413.868469 295.202933 
L 390.336482 295.202933 
z
" style="fill:#1f77b4;opacity:0.7;"/>
   </g>
   <g id="patch_15">
    <path clip-path="url(#p96a2d98614)" d="M 419.751465 301.603082 
L 443.283452 301.603082 
L 443.283452 294.380674 
L 419.751465 294.380674 
z
" style="fill:#1f77b4;opacity:0.7;"/>
   </g>
   <g id="patch_16">
    <path clip-path="url(#p96a2d98614)" d="M 449.166449 301.603082 
L 472.698436 301.603082 
L 472.698436 290.887196 
L 449.166449 290.887196 
z
" style="fill:#1f77b4;opacity:0.7;"/>
   </g>
   <g id="patch_17">
    <path clip-path="url(#p96a2d98614)" d="M 478.581433 301.603082 
L 502.11342 301.603082 
L 502.11342 292.970236 
L 478.581433 292.970236 
z
" style="fill:#1f77b4;opacity:0.7;"/>
   </g>
   <g id="patch_18">
    <path clip-path="url(#p96a2d98614)" d="M 507.996417 301.603082 
L 531.528404 301.603082 
L 531.528404 292.649985 
L 507.996417 292.649985 
z
" style="fill:#1f77b4;opacity:0.7;"/>
   </g>
   <g id="patch_19">
    <path clip-path="url(#p96a2d98614)" d="M 537.411401 301.603082 
L 560.943388 301.603082 
L 560.943388 292.855745 
L 537.411401 292.855745 
z
" style="fill:#1f77b4;opacity:0.7;"/>
   </g>
   <g id="patch_20">
    <path clip-path="url(#p96a2d98614)" d="M 566.826384 301.603082 
L 590.358372 301.603082 
L 590.358372 293.332158 
L 566.826384 293.332158 
z
" style="fill:#1f77b4;opacity:0.7;"/>
   </g>
   <g id="patch_21">
    <path clip-path="url(#p96a2d98614)" d="M 596.241368 301.603082 
L 619.773355 301.603082 
L 619.773355 292.165881 
L 596.241368 292.165881 
z
" style="fill:#1f77b4;opacity:0.7;"/>
   </g>
   <g id="patch_22">
    <path clip-path="url(#p96a2d98614)" d="M 66.771659 292.870888 
L 90.303646 292.870888 
L 90.303646 292.870888 
L 66.771659 292.870888 
z
" style="fill:#aec7e8;opacity:0.7;"/>
   </g>
   <g id="patch_23">
    <path clip-path="url(#p96a2d98614)" d="M 96.186643 265.314568 
L 119.71863 265.314568 
L 119.71863 265.314568 
L 96.186643 265.314568 
z
" style="fill:#aec7e8;opacity:0.7;"/>
   </g>
   <g id="patch_24">
    <path clip-path="url(#p96a2d98614)" d="M 125.601627 288.445182 
L 149.133614 288.445182 
L 149.133614 288.445182 
L 125.601627 288.445182 
z
" style="fill:#aec7e8;opacity:0.7;"/>
   </g>
   <g id="patch_25">
    <path clip-path="url(#p96a2d98614)" d="M 155.016611 263.51597 
L 178.548598 263.51597 
L 178.548598 263.51597 
L 155.016611 263.51597 
z
" style="fill:#aec7e8;opacity:0.7;"/>
   </g>
   <g id="patch_26">
    <path clip-path="url(#p96a2d98614)" d="M 184.431595 264.901694 
L 207.963582 264.901694 
L 207.963582 264.901694 
L 184.431595 264.901694 
z
" style="fill:#aec7e8;opacity:0.7;"/>
   </g>
   <g id="patch_27">
    <path clip-path="url(#p96a2d98614)" d="M 213.846579 271.797058 
L 237.378566 271.797058 
L 237.378566 271.797058 
L 213.846579 271.797058 
z
" style="fill:#aec7e8;opacity:0.7;"/>
   </g>
   <g id="patch_28">
    <path clip-path="url(#p96a2d98614)" d="M 243.261562 274.9464 
L 266.793549 274.9464 
L 266.793549 274.9464 
L 243.261562 274.9464 
z
" style="fill:#aec7e8;opacity:0.7;"/>
   </g>
   <g id="patch_29">
    <path clip-path="url(#p96a2d98614)" d="M 272.676546 279.547053 
L 296.208533 279.547053 
L 296.208533 279.547053 
L 272.676546 279.547053 
z
" style="fill:#aec7e8;opacity:0.7;"/>
   </g>
   <g id="patch_30">
    <path clip-path="url(#p96a2d98614)" d="M 302.09153 271.956455 
L 325.623517 271.956455 
L 325.623517 271.956455 
L 302.09153 271.956455 
z
" style="fill:#aec7e8;opacity:0.7;"/>
   </g>
   <g id="patch_31">
    <path clip-path="url(#p96a2d98614)" d="M 331.506514 284.15023 
L 355.038501 284.15023 
L 355.038501 284.15023 
L 331.506514 284.15023 
z
" style="fill:#aec7e8;opacity:0.7;"/>
   </g>
   <g id="patch_32">
    <path clip-path="url(#p96a2d98614)" d="M 360.921498 291.177482 
L 384.453485 291.177482 
L 384.453485 291.177482 
L 360.921498 291.177482 
z
" style="fill:#aec7e8;opacity:0.7;"/>
   </g>
   <g id="patch_33">
    <path clip-path="url(#p96a2d98614)" d="M 390.336482 295.202933 
L 413.868469 295.202933 
L 413.868469 295.202933 
L 390.336482 295.202933 
z
" style="fill:#aec7e8;opacity:0.7;"/>
   </g>
   <g id="patch_34">
    <path clip-path="url(#p96a2d98614)" d="M 419.751465 294.380674 
L 443.283452 294.380674 
L 443.283452 294.380674 
L 419.751465 294.380674 
z
" style="fill:#aec7e8;opacity:0.7;"/>
   </g>
   <g id="patch_35">
    <path clip-path="url(#p96a2d98614)" d="M 449.166449 290.887196 
L 472.698436 290.887196 
L 472.698436 290.887196 
L 449.166449 290.887196 
z
" style="fill:#aec7e8;opacity:0.7;"/>
   </g>
   <g id="patch_36">
    <path clip-path="url(#p96a2d98614)" d="M 478.581433 292.970236 
L 502.11342 292.970236 
L 502.11342 292.970236 
L 478.581433 292.970236 
z
" style="fill:#aec7e8;opacity:0.7;"/>
   </g>
   <g id="patch_37">
    <path clip-path="url(#p96a2d98614)" d="M 507.996417 292.649985 
L 531.528404 292.649985 
L 531.528404 292.649985 
L 507.996417 292.649985 
z
" style="fill:#aec7e8;opacity:0.7;"/>
   </g>
   <g id="patch_38">
    <path clip-path="url(#p96a2d98614)" d="M 537.411401 292.855745 
L 560.943388 292.855745 
L 560.943388 292.855745 
L 537.411401 292.855745 
z
" style="fill:#aec7e8;opacity:0.7;"/>
   </g>
   <g id="patch_39">
    <path clip-path="url(#p96a2d98614)" d="M 566.826384 293.332158 
L 590.358372 293.332158 
L 590.358372 293.332158 
L 566.826384 293.332158 
z
" style="fill:#aec7e8;opacity:0.7;"/>
   </g>
   <g id="patch_40">
    <path clip-path="url(#p96a2d98614)" d="M 596.241368 292.165881 
L 619.773355 292.165881 
L 619.773355 292.165881 
L 596.241368 292.165881 
z
" style="fill:#aec7e8;opacity:0.7;"/>
   </g>
   <g id="patch_41">
    <path clip-path="url(#p96a2d98614)" d="M 66.771659 292.870888 
L 90.303646 292.870888 
L 90.303646 184.400757 
L 66.771659 184.400757 
z
" style="fill:#ff7f0e;opacity:0.7;"/>
   </g>
   <g id="patch_42">
    <path clip-path="url(#p96a2d98614)" d="M 96.186643 265.314568 
L 119.71863 265.314568 
L 119.71863 194.960667 
L 96.186643 194.960667 
z
" style="fill:#ff7f0e;opacity:0.7;"/>
   </g>
   <g id="patch_43">
    <path clip-path="url(#p96a2d98614)" d="M 125.601627 288.445182 
L 149.133614 288.445182 
L 149.133614 208.935186 
L 125.601627 208.935186 
z
" style="fill:#ff7f0e;opacity:0.7;"/>
   </g>
   <g id="patch_44">
    <path clip-path="url(#p96a2d98614)" d="M 155.016611 263.51597 
L 178.548598 263.51597 
L 178.548598 187.976592 
L 155.016611 187.976592 
z
" style="fill:#ff7f0e;opacity:0.7;"/>
   </g>
   <g id="patch_45">
    <path clip-path="url(#p96a2d98614)" d="M 184.431595 264.901694 
L 207.963582 264.901694 
L 207.963582 206.469474 
L 184.431595 206.469474 
z
" style="fill:#ff7f0e;opacity:0.7;"/>
   </g>
   <g id="patch_46">
    <path clip-path="url(#p96a2d98614)" d="M 213.846579 271.797058 
L 237.378566 271.797058 
L 237.378566 221.218094 
L 213.846579 221.218094 
z
" style="fill:#ff7f0e;opacity:0.7;"/>
   </g>
   <g id="patch_47">
    <path clip-path="url(#p96a2d98614)" d="M 243.261562 274.9464 
L 266.793549 274.9464 
L 266.793549 231.493765 
L 243.261562 231.493765 
z
" style="fill:#ff7f0e;opacity:0.7;"/>
   </g>
   <g id="patch_48">
    <path clip-path="url(#p96a2d98614)" d="M 272.676546 279.547053 
L 296.208533 279.547053 
L 296.208533 238.570937 
L 272.676546 238.570937 
z
" style="fill:#ff7f0e;opacity:0.7;"/>
   </g>
   <g id="patch_49">
    <path clip-path="url(#p96a2d98614)" d="M 302.09153 271.956455 
L 325.623517 271.956455 
L 325.623517 242.368489 
L 302.09153 242.368489 
z
" style="fill:#ff7f0e;opacity:0.7;"/>
   </g>
   <g id="patch_50">
    <path clip-path="url(#p96a2d98614)" d="M 331.506514 284.15023 
L 355.038501 284.15023 
L 355.038501 257.586001 
L 331.506514 257.586001 
z
" style="fill:#ff7f0e;opacity:0.7;"/>
   </g>
   <g id="patch_51">
    <path clip-path="url(#p96a2d98614)" d="M 360.921498 291.177482 
L 384.453485 291.177482 
L 384.453485 267.732207 
L 360.921498 267.732207 
z
" style="fill:#ff7f0e;opacity:0.7;"/>
   </g>
   <g id="patch_52">
    <path clip-path="url(#p96a2d98614)" d="M 390.336482 295.202933 
L 413.868469 295.202933 
L 413.868469 273.020132 
L 390.336482 273.020132 
z
" style="fill:#ff7f0e;opacity:0.7;"/>
   </g>
   <g id="patch_53">
    <path clip-path="url(#p96a2d98614)" d="M 419.751465 294.380674 
L 443.283452 294.380674 
L 443.283452 273.167011 
L 419.751465 273.167011 
z
" style="fill:#ff7f0e;opacity:0.7;"/>
   </g>
   <g id="patch_54">
    <path clip-path="url(#p96a2d98614)" d="M 449.166449 290.887196 
L 472.698436 290.887196 
L 472.698436 269.673534 
L 449.166449 269.673534 
z
" style="fill:#ff7f0e;opacity:0.7;"/>
   </g>
   <g id="patch_55">
    <path clip-path="url(#p96a2d98614)" d="M 478.581433 292.970236 
L 502.11342 292.970236 
L 502.11342 274.875374 
L 478.581433 274.875374 
z
" style="fill:#ff7f0e;opacity:0.7;"/>
   </g>
   <g id="patch_56">
    <path clip-path="url(#p96a2d98614)" d="M 507.996417 292.649985 
L 531.528404 292.649985 
L 531.528404 280.404444 
L 507.996417 280.404444 
z
" style="fill:#ff7f0e;opacity:0.7;"/>
   </g>
   <g id="patch_57">
    <path clip-path="url(#p96a2d98614)" d="M 537.411401 292.855745 
L 560.943388 292.855745 
L 560.943388 280.155727 
L 537.411401 280.155727 
z
" style="fill:#ff7f0e;opacity:0.7;"/>
   </g>
   <g id="patch_58">
    <path clip-path="url(#p96a2d98614)" d="M 566.826384 293.332158 
L 590.358372 293.332158 
L 590.358372 283.890096 
L 566.826384 283.890096 
z
" style="fill:#ff7f0e;opacity:0.7;"/>
   </g>
   <g id="patch_59">
    <path clip-path="url(#p96a2d98614)" d="M 596.241368 292.165881 
L 619.773355 292.165881 
L 619.773355 292.165881 
L 596.241368 292.165881 
z
" style="fill:#ff7f0e;opacity:0.7;"/>
   </g>
   <g id="patch_60">
    <path clip-path="url(#p96a2d98614)" d="M 66.771659 184.400757 
L 90.303646 184.400757 
L 90.303646 184.316062 
L 66.771659 184.316062 
z
" style="fill:#ffbb78;opacity:0.7;"/>
   </g>
   <g id="patch_61">
    <path clip-path="url(#p96a2d98614)" d="M 96.186643 194.960667 
L 119.71863 194.960667 
L 119.71863 194.875971 
L 96.186643 194.875971 
z
" style="fill:#ffbb78;opacity:0.7;"/>
   </g>
   <g id="patch_62">
    <path clip-path="url(#p96a2d98614)" d="M 125.601627 208.935186 
L 149.133614 208.935186 
L 149.133614 208.85049 
L 125.601627 208.85049 
z
" style="fill:#ffbb78;opacity:0.7;"/>
   </g>
   <g id="patch_63">
    <path clip-path="url(#p96a2d98614)" d="M 155.016611 187.976592 
L 178.548598 187.976592 
L 178.548598 187.891897 
L 155.016611 187.891897 
z
" style="fill:#ffbb78;opacity:0.7;"/>
   </g>
   <g id="patch_64">
    <path clip-path="url(#p96a2d98614)" d="M 184.431595 206.469474 
L 207.963582 206.469474 
L 207.963582 206.384778 
L 184.431595 206.384778 
z
" style="fill:#ffbb78;opacity:0.7;"/>
   </g>
   <g id="patch_65">
    <path clip-path="url(#p96a2d98614)" d="M 213.846579 221.218094 
L 237.378566 221.218094 
L 237.378566 221.133398 
L 213.846579 221.133398 
z
" style="fill:#ffbb78;opacity:0.7;"/>
   </g>
   <g id="patch_66">
    <path clip-path="url(#p96a2d98614)" d="M 243.261562 231.493765 
L 266.793549 231.493765 
L 266.793549 231.409069 
L 243.261562 231.409069 
z
" style="fill:#ffbb78;opacity:0.7;"/>
   </g>
   <g id="patch_67">
    <path clip-path="url(#p96a2d98614)" d="M 272.676546 238.570937 
L 296.208533 238.570937 
L 296.208533 238.486242 
L 272.676546 238.486242 
z
" style="fill:#ffbb78;opacity:0.7;"/>
   </g>
   <g id="patch_68">
    <path clip-path="url(#p96a2d98614)" d="M 302.09153 242.368489 
L 325.623517 242.368489 
L 325.623517 242.283793 
L 302.09153 242.283793 
z
" style="fill:#ffbb78;opacity:0.7;"/>
   </g>
   <g id="patch_69">
    <path clip-path="url(#p96a2d98614)" d="M 331.506514 257.586001 
L 355.038501 257.586001 
L 355.038501 257.501306 
L 331.506514 257.501306 
z
" style="fill:#ffbb78;opacity:0.7;"/>
   </g>
   <g id="patch_70">
    <path clip-path="url(#p96a2d98614)" d="M 360.921498 267.732207 
L 384.453485 267.732207 
L 384.453485 267.647511 
L 360.921498 267.647511 
z
" style="fill:#ffbb78;opacity:0.7;"/>
   </g>
   <g id="patch_71">
    <path clip-path="url(#p96a2d98614)" d="M 390.336482 273.020132 
L 413.868469 273.020132 
L 413.868469 272.935436 
L 390.336482 272.935436 
z
" style="fill:#ffbb78;opacity:0.7;"/>
   </g>
   <g id="patch_72">
    <path clip-path="url(#p96a2d98614)" d="M 419.751465 273.167011 
L 443.283452 273.167011 
L 443.283452 273.082315 
L 419.751465 273.082315 
z
" style="fill:#ffbb78;opacity:0.7;"/>
   </g>
   <g id="patch_73">
    <path clip-path="url(#p96a2d98614)" d="M 449.166449 269.673534 
L 472.698436 269.673534 
L 472.698436 269.588838 
L 449.166449 269.588838 
z
" style="fill:#ffbb78;opacity:0.7;"/>
   </g>
   <g id="patch_74">
    <path clip-path="url(#p96a2d98614)" d="M 478.581433 274.875374 
L 502.11342 274.875374 
L 502.11342 274.790678 
L 478.581433 274.790678 
z
" style="fill:#ffbb78;opacity:0.7;"/>
   </g>
   <g id="patch_75">
    <path clip-path="url(#p96a2d98614)" d="M 507.996417 280.404444 
L 531.528404 280.404444 
L 531.528404 280.319749 
L 507.996417 280.319749 
z
" style="fill:#ffbb78;opacity:0.7;"/>
   </g>
   <g id="patch_76">
    <path clip-path="url(#p96a2d98614)" d="M 537.411401 280.155727 
L 560.943388 280.155727 
L 560.943388 280.071031 
L 537.411401 280.071031 
z
" style="fill:#ffbb78;opacity:0.7;"/>
   </g>
   <g id="patch_77">
    <path clip-path="url(#p96a2d98614)" d="M 566.826384 283.890096 
L 590.358372 283.890096 
L 590.358372 283.8054 
L 566.826384 283.8054 
z
" style="fill:#ffbb78;opacity:0.7;"/>
   </g>
   <g id="patch_78">
    <path clip-path="url(#p96a2d98614)" d="M 596.241368 292.165881 
L 619.773355 292.165881 
L 619.773355 292.081185 
L 596.241368 292.081185 
z
" style="fill:#ffbb78;opacity:0.7;"/>
   </g>
   <g id="patch_79">
    <path clip-path="url(#p96a2d98614)" d="M 66.771659 184.316062 
L 90.303646 184.316062 
L 90.303646 39.372187 
L 66.771659 39.372187 
z
" style="fill:#2ca02c;opacity:0.7;"/>
   </g>
   <g id="patch_80">
    <path clip-path="url(#p96a2d98614)" d="M 96.186643 194.875971 
L 119.71863 194.875971 
L 119.71863 55.03813 
L 96.186643 55.03813 
z
" style="fill:#2ca02c;opacity:0.7;"/>
   </g>
   <g id="patch_81">
    <path clip-path="url(#p96a2d98614)" d="M 125.601627 208.85049 
L 149.133614 208.85049 
L 149.133614 78.20435 
L 125.601627 78.20435 
z
" style="fill:#2ca02c;opacity:0.7;"/>
   </g>
   <g id="patch_82">
    <path clip-path="url(#p96a2d98614)" d="M 155.016611 187.891897 
L 178.548598 187.891897 
L 178.548598 94.814649 
L 155.016611 94.814649 
z
" style="fill:#2ca02c;opacity:0.7;"/>
   </g>
   <g id="patch_83">
    <path clip-path="url(#p96a2d98614)" d="M 184.431595 206.384778 
L 207.963582 206.384778 
L 207.963582 116.450672 
L 184.431595 116.450672 
z
" style="fill:#2ca02c;opacity:0.7;"/>
   </g>
   <g id="patch_84">
    <path clip-path="url(#p96a2d98614)" d="M 213.846579 221.133398 
L 237.378566 221.133398 
L 237.378566 129.77981 
L 213.846579 129.77981 
z
" style="fill:#2ca02c;opacity:0.7;"/>
   </g>
   <g id="patch_85">
    <path clip-path="url(#p96a2d98614)" d="M 243.261562 231.409069 
L 266.793549 231.409069 
L 266.793549 144.618072 
L 243.261562 144.618072 
z
" style="fill:#2ca02c;opacity:0.7;"/>
   </g>
   <g id="patch_86">
    <path clip-path="url(#p96a2d98614)" d="M 272.676546 238.486242 
L 296.208533 238.486242 
L 296.208533 151.188306 
L 272.676546 151.188306 
z
" style="fill:#2ca02c;opacity:0.7;"/>
   </g>
   <g id="patch_87">
    <path clip-path="url(#p96a2d98614)" d="M 302.09153 242.283793 
L 325.623517 242.283793 
L 325.623517 180.816012 
L 302.09153 180.816012 
z
" style="fill:#2ca02c;opacity:0.7;"/>
   </g>
   <g id="patch_88">
    <path clip-path="url(#p96a2d98614)" d="M 331.506514 257.501306 
L 355.038501 257.501306 
L 355.038501 195.542899 
L 331.506514 195.542899 
z
" style="fill:#2ca02c;opacity:0.7;"/>
   </g>
   <g id="patch_89">
    <path clip-path="url(#p96a2d98614)" d="M 360.921498 267.647511 
L 384.453485 267.647511 
L 384.453485 209.300749 
L 360.921498 209.300749 
z
" style="fill:#2ca02c;opacity:0.7;"/>
   </g>
   <g id="patch_90">
    <path clip-path="url(#p96a2d98614)" d="M 390.336482 272.935436 
L 413.868469 272.935436 
L 413.868469 218.337797 
L 390.336482 218.337797 
z
" style="fill:#2ca02c;opacity:0.7;"/>
   </g>
   <g id="patch_91">
    <path clip-path="url(#p96a2d98614)" d="M 419.751465 273.082315 
L 443.283452 273.082315 
L 443.283452 225.477999 
L 419.751465 225.477999 
z
" style="fill:#2ca02c;opacity:0.7;"/>
   </g>
   <g id="patch_92">
    <path clip-path="url(#p96a2d98614)" d="M 449.166449 269.588838 
L 472.698436 269.588838 
L 472.698436 223.783814 
L 449.166449 223.783814 
z
" style="fill:#2ca02c;opacity:0.7;"/>
   </g>
   <g id="patch_93">
    <path clip-path="url(#p96a2d98614)" d="M 478.581433 274.790678 
L 502.11342 274.790678 
L 502.11342 228.574372 
L 478.581433 228.574372 
z
" style="fill:#2ca02c;opacity:0.7;"/>
   </g>
   <g id="patch_94">
    <path clip-path="url(#p96a2d98614)" d="M 507.996417 280.319749 
L 531.528404 280.319749 
L 531.528404 234.514725 
L 507.996417 234.514725 
z
" style="fill:#2ca02c;opacity:0.7;"/>
   </g>
   <g id="patch_95">
    <path clip-path="url(#p96a2d98614)" d="M 537.411401 280.071031 
L 560.943388 280.071031 
L 560.943388 237.67401 
L 537.411401 237.67401 
z
" style="fill:#2ca02c;opacity:0.7;"/>
   </g>
   <g id="patch_96">
    <path clip-path="url(#p96a2d98614)" d="M 566.826384 283.8054 
L 590.358372 283.8054 
L 590.358372 248.51804 
L 566.826384 248.51804 
z
" style="fill:#2ca02c;opacity:0.7;"/>
   </g>
   <g id="patch_97">
    <path clip-path="url(#p96a2d98614)" d="M 596.241368 292.081185 
L 619.773355 292.081185 
L 619.773355 265.819863 
L 596.241368 265.819863 
z
" style="fill:#2ca02c;opacity:0.7;"/>
   </g>
   <g id="patch_98">
    <path clip-path="url(#p96a2d98614)" d="M 66.771659 39.372187 
L 90.303646 39.372187 
L 90.303646 38.745998 
L 66.771659 38.745998 
z
" style="fill:#98df8a;opacity:0.7;"/>
   </g>
   <g id="patch_99">
    <path clip-path="url(#p96a2d98614)" d="M 96.186643 55.03813 
L 119.71863 55.03813 
L 119.71863 54.647395 
L 96.186643 54.647395 
z
" style="fill:#98df8a;opacity:0.7;"/>
   </g>
   <g id="patch_100">
    <path clip-path="url(#p96a2d98614)" d="M 125.601627 78.20435 
L 149.133614 78.20435 
L 149.133614 77.800301 
L 125.601627 77.800301 
z
" style="fill:#98df8a;opacity:0.7;"/>
   </g>
   <g id="patch_101">
    <path clip-path="url(#p96a2d98614)" d="M 155.016611 94.814649 
L 178.548598 94.814649 
L 178.548598 94.371132 
L 155.016611 94.371132 
z
" style="fill:#98df8a;opacity:0.7;"/>
   </g>
   <g id="patch_102">
    <path clip-path="url(#p96a2d98614)" d="M 184.431595 116.450672 
L 207.963582 116.450672 
L 207.963582 116.030599 
L 184.431595 116.030599 
z
" style="fill:#98df8a;opacity:0.7;"/>
   </g>
   <g id="patch_103">
    <path clip-path="url(#p96a2d98614)" d="M 213.846579 129.77981 
L 237.378566 129.77981 
L 237.378566 129.130194 
L 213.846579 129.130194 
z
" style="fill:#98df8a;opacity:0.7;"/>
   </g>
   <g id="patch_104">
    <path clip-path="url(#p96a2d98614)" d="M 243.261562 144.618072 
L 266.793549 144.618072 
L 266.793549 144.047545 
L 243.261562 144.047545 
z
" style="fill:#98df8a;opacity:0.7;"/>
   </g>
   <g id="patch_105">
    <path clip-path="url(#p96a2d98614)" d="M 272.676546 151.188306 
L 296.208533 151.188306 
L 296.208533 150.488991 
L 272.676546 150.488991 
z
" style="fill:#98df8a;opacity:0.7;"/>
   </g>
   <g id="patch_106">
    <path clip-path="url(#p96a2d98614)" d="M 302.09153 180.816012 
L 325.623517 180.816012 
L 325.623517 179.970512 
L 302.09153 179.970512 
z
" style="fill:#98df8a;opacity:0.7;"/>
   </g>
   <g id="patch_107">
    <path clip-path="url(#p96a2d98614)" d="M 331.506514 195.542899 
L 355.038501 195.542899 
L 355.038501 193.858675 
L 331.506514 193.858675 
z
" style="fill:#98df8a;opacity:0.7;"/>
   </g>
   <g id="patch_108">
    <path clip-path="url(#p96a2d98614)" d="M 360.921498 209.300749 
L 384.453485 209.300749 
L 384.453485 207.560659 
L 360.921498 207.560659 
z
" style="fill:#98df8a;opacity:0.7;"/>
   </g>
   <g id="patch_109">
    <path clip-path="url(#p96a2d98614)" d="M 390.336482 218.337797 
L 413.868469 218.337797 
L 413.868469 216.751192 
L 390.336482 216.751192 
z
" style="fill:#98df8a;opacity:0.7;"/>
   </g>
   <g id="patch_110">
    <path clip-path="url(#p96a2d98614)" d="M 419.751465 225.477999 
L 443.283452 225.477999 
L 443.283452 222.57375 
L 419.751465 222.57375 
z
" style="fill:#98df8a;opacity:0.7;"/>
   </g>
   <g id="patch_111">
    <path clip-path="url(#p96a2d98614)" d="M 449.166449 223.783814 
L 472.698436 223.783814 
L 472.698436 221.689968 
L 449.166449 221.689968 
z
" style="fill:#98df8a;opacity:0.7;"/>
   </g>
   <g id="patch_112">
    <path clip-path="url(#p96a2d98614)" d="M 478.581433 228.574372 
L 502.11342 228.574372 
L 502.11342 226.553906 
L 478.581433 226.553906 
z
" style="fill:#98df8a;opacity:0.7;"/>
   </g>
   <g id="patch_113">
    <path clip-path="url(#p96a2d98614)" d="M 507.996417 234.514725 
L 531.528404 234.514725 
L 531.528404 231.822994 
L 507.996417 231.822994 
z
" style="fill:#98df8a;opacity:0.7;"/>
   </g>
   <g id="patch_114">
    <path clip-path="url(#p96a2d98614)" d="M 537.411401 237.67401 
L 560.943388 237.67401 
L 560.943388 235.265214 
L 537.411401 235.265214 
z
" style="fill:#98df8a;opacity:0.7;"/>
   </g>
   <g id="patch_115">
    <path clip-path="url(#p96a2d98614)" d="M 566.826384 248.51804 
L 590.358372 248.51804 
L 590.358372 246.831918 
L 566.826384 246.831918 
z
" style="fill:#98df8a;opacity:0.7;"/>
   </g>
   <g id="patch_116">
    <path clip-path="url(#p96a2d98614)" d="M 596.241368 265.819863 
L 619.773355 265.819863 
L 619.773355 263.137533 
L 596.241368 263.137533 
z
" style="fill:#98df8a;opacity:0.7;"/>
   </g>
   <g id="patch_117">
    <path clip-path="url(#p96a2d98614)" d="M 66.771659 38.745998 
L 90.303646 38.745998 
L 90.303646 36.421694 
L 66.771659 36.421694 
z
" style="fill:#d62728;opacity:0.7;"/>
   </g>
   <g id="patch_118">
    <path clip-path="url(#p96a2d98614)" d="M 96.186643 54.647395 
L 119.71863 54.647395 
L 119.71863 52.308574 
L 96.186643 52.308574 
z
" style="fill:#d62728;opacity:0.7;"/>
   </g>
   <g id="patch_119">
    <path clip-path="url(#p96a2d98614)" d="M 125.601627 77.800301 
L 149.133614 77.800301 
L 149.133614 75.273811 
L 125.601627 75.273811 
z
" style="fill:#d62728;opacity:0.7;"/>
   </g>
   <g id="patch_120">
    <path clip-path="url(#p96a2d98614)" d="M 155.016611 94.371132 
L 178.548598 94.371132 
L 178.548598 92.135453 
L 155.016611 92.135453 
z
" style="fill:#d62728;opacity:0.7;"/>
   </g>
   <g id="patch_121">
    <path clip-path="url(#p96a2d98614)" d="M 184.431595 116.030599 
L 207.963582 116.030599 
L 207.963582 113.834693 
L 184.431595 113.834693 
z
" style="fill:#d62728;opacity:0.7;"/>
   </g>
   <g id="patch_122">
    <path clip-path="url(#p96a2d98614)" d="M 213.846579 129.130194 
L 237.378566 129.130194 
L 237.378566 126.356782 
L 213.846579 126.356782 
z
" style="fill:#d62728;opacity:0.7;"/>
   </g>
   <g id="patch_123">
    <path clip-path="url(#p96a2d98614)" d="M 243.261562 144.047545 
L 266.793549 144.047545 
L 266.793549 141.820336 
L 243.261562 141.820336 
z
" style="fill:#d62728;opacity:0.7;"/>
   </g>
   <g id="patch_124">
    <path clip-path="url(#p96a2d98614)" d="M 272.676546 150.488991 
L 296.208533 150.488991 
L 296.208533 148.215962 
L 272.676546 148.215962 
z
" style="fill:#d62728;opacity:0.7;"/>
   </g>
   <g id="patch_125">
    <path clip-path="url(#p96a2d98614)" d="M 302.09153 179.970512 
L 325.623517 179.970512 
L 325.623517 178.121673 
L 302.09153 178.121673 
z
" style="fill:#d62728;opacity:0.7;"/>
   </g>
   <g id="patch_126">
    <path clip-path="url(#p96a2d98614)" d="M 331.506514 193.858675 
L 355.038501 193.858675 
L 355.038501 192.152277 
L 331.506514 192.152277 
z
" style="fill:#d62728;opacity:0.7;"/>
   </g>
   <g id="patch_127">
    <path clip-path="url(#p96a2d98614)" d="M 360.921498 207.560659 
L 384.453485 207.560659 
L 384.453485 205.439896 
L 360.921498 205.439896 
z
" style="fill:#d62728;opacity:0.7;"/>
   </g>
   <g id="patch_128">
    <path clip-path="url(#p96a2d98614)" d="M 390.336482 216.751192 
L 413.868469 216.751192 
L 413.868469 215.108197 
L 390.336482 215.108197 
z
" style="fill:#d62728;opacity:0.7;"/>
   </g>
   <g id="patch_129">
    <path clip-path="url(#p96a2d98614)" d="M 419.751465 222.57375 
L 443.283452 222.57375 
L 443.283452 220.860221 
L 419.751465 220.860221 
z
" style="fill:#d62728;opacity:0.7;"/>
   </g>
   <g id="patch_130">
    <path clip-path="url(#p96a2d98614)" d="M 449.166449 221.689968 
L 472.698436 221.689968 
L 472.698436 220.070315 
L 449.166449 220.070315 
z
" style="fill:#d62728;opacity:0.7;"/>
   </g>
   <g id="patch_131">
    <path clip-path="url(#p96a2d98614)" d="M 478.581433 226.553906 
L 502.11342 226.553906 
L 502.11342 225.32304 
L 478.581433 225.32304 
z
" style="fill:#d62728;opacity:0.7;"/>
   </g>
   <g id="patch_132">
    <path clip-path="url(#p96a2d98614)" d="M 507.996417 231.822994 
L 531.528404 231.822994 
L 531.528404 230.661291 
L 507.996417 230.661291 
z
" style="fill:#d62728;opacity:0.7;"/>
   </g>
   <g id="patch_133">
    <path clip-path="url(#p96a2d98614)" d="M 537.411401 235.265214 
L 560.943388 235.265214 
L 560.943388 233.572773 
L 537.411401 233.572773 
z
" style="fill:#d62728;opacity:0.7;"/>
   </g>
   <g id="patch_134">
    <path clip-path="url(#p96a2d98614)" d="M 566.826384 246.831918 
L 590.358372 246.831918 
L 590.358372 243.763529 
L 566.826384 243.763529 
z
" style="fill:#d62728;opacity:0.7;"/>
   </g>
   <g id="patch_135">
    <path clip-path="url(#p96a2d98614)" d="M 596.241368 263.137533 
L 619.773355 263.137533 
L 619.773355 260.085337 
L 596.241368 260.085337 
z
" style="fill:#d62728;opacity:0.7;"/>
   </g>
   <g id="patch_136">
    <path d="M 39.121575 301.603082 
L 39.121575 23.162625 
" style="fill:none;"/>
   </g>
   <g id="patch_137">
    <path d="M 666.837329 301.603082 
L 666.837329 23.162625 
" style="fill:none;"/>
   </g>
   <g id="patch_138">
    <path d="M 39.121575 301.603082 
L 666.837329 301.603082 
" style="fill:none;"/>
   </g>
   <g id="patch_139">
    <path d="M 39.121575 23.162625 
L 666.837329 23.162625 
" style="fill:none;"/>
   </g>
   <g id="text_23">
    <!-- UE Asset Portfolio -->
    <g style="fill:#262626;" transform="translate(298.662184 17.162625)scale(0.144 -0.144)">
     <defs>
      <path d="M 3552 4416 
L 3066 4416 
L 3066 1459 
C 3066 608 2547 230 2074 230 
C 1587 230 1101 627 1101 1452 
L 1101 4416 
L 563 4416 
L 563 1465 
C 563 544 1274 -128 2067 -128 
C 2861 -128 3552 544 3552 1465 
L 3552 4416 
z
" id="CMSS17-55" transform="scale(0.015625)"/>
      <path d="M 1958 435 
C 1446 435 1216 435 1101 428 
L 1101 2105 
L 3085 2105 
L 3085 2496 
L 1101 2496 
L 1101 3993 
L 1926 3993 
C 2003 3993 2080 3987 2157 3987 
L 3251 3987 
L 3251 4403 
L 563 4403 
L 563 0 
L 3334 0 
L 3334 441 
L 1958 435 
z
" id="CMSS17-45" transform="scale(0.015625)"/>
      <path d="M 2272 4416 
L 1722 4416 
L 166 0 
L 653 0 
L 1101 1280 
L 2816 1280 
L 3270 0 
L 3827 0 
L 2272 4416 
z
M 2694 1638 
L 1222 1638 
C 1530 2530 1914 3638 1958 3924 
L 1965 3924 
C 2010 3663 2138 3281 2246 2956 
L 2694 1638 
z
" id="CMSS17-41" transform="scale(0.015625)"/>
      <path d="M 2061 2623 
C 1683 2803 1389 2816 1197 2816 
C 742 2816 198 2655 198 2009 
C 198 1363 902 1222 1094 1183 
C 1389 1126 1715 1062 1715 742 
C 1715 339 1254 339 1171 339 
C 915 339 563 409 243 639 
L 166 211 
C 531 0 883 -64 1178 -64 
C 1965 -64 2163 416 2163 780 
C 2163 1094 1984 1305 1862 1401 
C 1651 1567 1574 1587 1050 1695 
C 960 1708 646 1779 646 2067 
C 646 2431 1050 2431 1139 2431 
C 1555 2431 1811 2303 1984 2207 
L 2061 2623 
z
" id="CMSS17-73" transform="scale(0.015625)"/>
      <path d="M 1069 2380 
L 1901 2380 
L 1901 2752 
L 1069 2752 
L 1069 3520 
L 614 3520 
L 614 2752 
L 109 2752 
L 109 2380 
L 602 2380 
L 602 751 
C 602 384 685 -64 1107 -64 
C 1427 -64 1722 25 2003 172 
L 1901 551 
C 1747 416 1562 339 1363 339 
C 1082 339 1069 699 1069 860 
L 1069 2380 
z
" id="CMSS17-74" transform="scale(0.015625)"/>
      <path d="M 2106 1856 
C 2874 1856 3501 2447 3501 3139 
C 3501 3818 2899 4416 2067 4416 
L 570 4416 
L 570 0 
L 1107 0 
L 1107 1856 
L 2106 1856 
z
M 1926 4057 
C 2669 4057 2995 3598 2995 3139 
C 2995 2711 2694 2227 1926 2227 
L 1094 2227 
L 1094 4057 
L 1926 4057 
z
" id="CMSS17-50" transform="scale(0.015625)"/>
      <path d="M 2829 1356 
C 2829 2175 2221 2816 1504 2816 
C 768 2816 173 2156 173 1356 
C 173 544 787 -64 1498 -64 
C 2227 -64 2829 563 2829 1356 
z
M 1504 339 
C 1050 339 659 710 659 1407 
C 659 2150 1114 2425 1498 2425 
C 1914 2425 2342 2124 2342 1407 
C 2342 684 1926 339 1504 339 
z
" id="CMSS17-6f" transform="scale(0.015625)"/>
      <path d="M 1075 2380 
L 1722 2380 
L 1722 2752 
L 1062 2752 
L 1062 3563 
C 1062 4013 1408 4089 1606 4089 
C 1670 4089 1850 4089 2080 4007 
L 2080 4428 
C 1933 4460 1754 4480 1613 4480 
C 1018 4480 602 3994 602 3366 
L 602 2752 
L 160 2752 
L 160 2380 
L 602 2380 
L 602 0 
L 1075 0 
L 1075 2380 
z
" id="CMSS17-66" transform="scale(0.015625)"/>
      <path d="M 979 4224 
L 442 4224 
L 442 3686 
L 979 3686 
L 979 4224 
z
M 947 2752 
L 474 2752 
L 474 0 
L 947 0 
L 947 2752 
z
" id="CMSS17-69" transform="scale(0.015625)"/>
     </defs>
     <use transform="scale(0.996264)" xlink:href="#CMSS17-55"/>
     <use transform="translate(64.13974 0)scale(0.996264)" xlink:href="#CMSS17-45"/>
     <use transform="translate(151.260866 0)scale(0.996264)" xlink:href="#CMSS17-41"/>
     <use transform="translate(213.478721 0)scale(0.996264)" xlink:href="#CMSS17-73"/>
     <use transform="translate(249.392263 0)scale(0.996264)" xlink:href="#CMSS17-73"/>
     <use transform="translate(285.305805 0)scale(0.996264)" xlink:href="#CMSS17-65"/>
     <use transform="translate(326.944627 0)scale(0.996264)" xlink:href="#CMSS17-74"/>
     <use transform="translate(392.005307 0)scale(0.996264)" xlink:href="#CMSS17-50"/>
     <use transform="translate(449.138439 0)scale(0.996264)" xlink:href="#CMSS17-6f"/>
     <use transform="translate(493.379609 0)scale(0.996264)" xlink:href="#CMSS17-72"/>
     <use transform="translate(525.289381 0)scale(0.996264)" xlink:href="#CMSS17-74"/>
     <use transform="translate(559.120948 0)scale(0.996264)" xlink:href="#CMSS17-66"/>
     <use transform="translate(587.747607 0)scale(0.996264)" xlink:href="#CMSS17-6f"/>
     <use transform="translate(634.59123 0)scale(0.996264)" xlink:href="#CMSS17-6c"/>
     <use transform="translate(656.771953 0)scale(0.996264)" xlink:href="#CMSS17-69"/>
     <use transform="translate(678.952676 0)scale(0.996264)" xlink:href="#CMSS17-6f"/>
    </g>
   </g>
  </g>
  <g id="legend_1">
   <g id="patch_140">
    <path d="M 135.041735 395.76 
L 159.041735 395.76 
L 159.041735 387.36 
L 135.041735 387.36 
z
" style="fill:#1f77b4;opacity:0.7;"/>
   </g>
   <g id="text_24">
    <!-- Cash -->
    <g style="fill:#262626;" transform="translate(168.641735 395.76)scale(0.12 -0.12)">
     <defs>
      <path d="M 3501 705 
C 3072 416 2874 332 2355 332 
C 1459 332 934 1304 934 2191 
C 934 3137 1472 4070 2381 4070 
C 2790 4070 3059 3954 3386 3748 
L 3475 4255 
C 3168 4409 2778 4480 2387 4480 
C 1158 4480 397 3343 397 2191 
C 397 924 1299 -77 2323 -77 
C 2874 -77 3066 -32 3539 268 
L 3501 705 
z
" id="CMSS17-43" transform="scale(0.015625)"/>
      <path d="M 2618 1878 
C 2618 2283 2522 2816 1798 2816 
C 1395 2816 1133 2617 947 2399 
L 947 4416 
L 474 4416 
L 474 0 
L 960 0 
L 960 1556 
C 960 1962 1114 2425 1549 2425 
C 2112 2425 2131 2045 2131 1826 
L 2131 0 
L 2618 0 
L 2618 1878 
z
" id="CMSS17-68" transform="scale(0.015625)"/>
     </defs>
     <use transform="scale(0.996264)" xlink:href="#CMSS17-43"/>
     <use transform="translate(59.855772 0)scale(0.996264)" xlink:href="#CMSS17-61"/>
     <use transform="translate(104.777692 0)scale(0.996264)" xlink:href="#CMSS17-73"/>
     <use transform="translate(140.691234 0)scale(0.996264)" xlink:href="#CMSS17-68"/>
    </g>
   </g>
   <g id="patch_141">
    <path d="M 135.041735 412.484596 
L 159.041735 412.484596 
L 159.041735 404.084596 
L 135.041735 404.084596 
z
" style="fill:#aec7e8;opacity:0.7;"/>
   </g>
   <g id="text_25">
    <!-- Accounts Recv -->
    <g style="fill:#262626;" transform="translate(168.641735 412.484596)scale(0.12 -0.12)">
     <defs>
      <path d="M 2464 2540 
C 2464 2585 2170 2713 2093 2739 
C 1882 2816 1613 2816 1542 2816 
C 710 2816 211 2092 211 1363 
C 211 595 768 -64 1517 -64 
C 1946 -64 2253 76 2502 243 
L 2464 665 
C 2189 454 1869 339 1523 339 
C 1024 339 698 774 698 1369 
C 698 1830 909 2412 1549 2412 
C 1901 2412 2099 2342 2394 2143 
L 2464 2540 
z
" id="CMSS17-63" transform="scale(0.015625)"/>
      <path d="M 2618 1878 
C 2618 2283 2522 2816 1798 2816 
C 1389 2816 1120 2604 941 2386 
L 941 2783 
L 474 2783 
L 474 0 
L 960 0 
L 960 1556 
C 960 1962 1114 2425 1549 2425 
C 2112 2425 2131 2045 2131 1826 
L 2131 0 
L 2618 0 
L 2618 1878 
z
" id="CMSS17-6e" transform="scale(0.015625)"/>
      <path d="M 2522 2099 
L 2534 2105 
C 3533 2450 3539 3125 3539 3244 
C 3539 3838 2925 4416 2003 4416 
L 570 4416 
L 570 0 
L 1094 0 
L 1094 2041 
L 2035 2041 
L 3168 0 
L 3706 0 
L 2522 2099 
z
M 1094 2432 
L 1094 4057 
L 1933 4057 
C 2746 4057 3034 3607 3034 3244 
C 3034 2907 2778 2432 1933 2432 
L 1094 2432 
z
" id="CMSS17-52" transform="scale(0.015625)"/>
      <path d="M 2675 2752 
L 2176 2752 
L 1747 1555 
C 1613 1164 1421 627 1389 352 
L 1382 352 
C 1370 467 1318 633 1286 748 
C 1248 889 1197 1056 1158 1171 
L 595 2752 
L 83 2752 
L 1094 0 
L 1664 0 
L 2675 2752 
z
" id="CMSS17-76" transform="scale(0.015625)"/>
     </defs>
     <use transform="scale(0.996264)" xlink:href="#CMSS17-41"/>
     <use transform="translate(62.217855 0)scale(0.996264)" xlink:href="#CMSS17-63"/>
     <use transform="translate(103.856677 0)scale(0.996264)" xlink:href="#CMSS17-63"/>
     <use transform="translate(145.495499 0)scale(0.996264)" xlink:href="#CMSS17-6f"/>
     <use transform="translate(192.339123 0)scale(0.996264)" xlink:href="#CMSS17-75"/>
     <use transform="translate(240.544066 0)scale(0.996264)" xlink:href="#CMSS17-6e"/>
     <use transform="translate(288.749009 0)scale(0.996264)" xlink:href="#CMSS17-74"/>
     <use transform="translate(322.580576 0)scale(0.996264)" xlink:href="#CMSS17-73"/>
     <use transform="translate(389.72323 0)scale(0.996264)" xlink:href="#CMSS17-52"/>
     <use transform="translate(450.139385 0)scale(0.996264)" xlink:href="#CMSS17-65"/>
     <use transform="translate(491.778207 0)scale(0.996264)" xlink:href="#CMSS17-63"/>
     <use transform="translate(533.417029 0)scale(0.996264)" xlink:href="#CMSS17-76"/>
    </g>
   </g>
   <g id="patch_142">
    <path d="M 135.041735 429.209192 
L 159.041735 429.209192 
L 159.041735 420.809192 
L 135.041735 420.809192 
z
" style="fill:#ff7f0e;opacity:0.7;"/>
   </g>
   <g id="text_26">
    <!-- Invesments -->
    <g style="fill:#262626;" transform="translate(168.641735 429.209192)scale(0.12 -0.12)">
     <defs>
      <path d="M 1094 4416 
L 557 4416 
L 557 0 
L 1094 0 
L 1094 4416 
z
" id="CMSS17-49" transform="scale(0.015625)"/>
      <path d="M 4288 1878 
C 4288 2309 4179 2816 3462 2816 
C 2982 2816 2694 2515 2566 2328 
C 2451 2668 2182 2816 1798 2816 
C 1363 2816 1088 2566 941 2386 
L 941 2783 
L 474 2783 
L 474 0 
L 960 0 
L 960 1556 
C 960 1936 1101 2425 1555 2425 
C 2138 2425 2138 2013 2138 1826 
L 2138 0 
L 2624 0 
L 2624 1556 
C 2624 1936 2765 2425 3219 2425 
C 3802 2425 3802 2013 3802 1826 
L 3802 0 
L 4288 0 
L 4288 1878 
z
" id="CMSS17-6d" transform="scale(0.015625)"/>
     </defs>
     <use transform="scale(0.996264)" xlink:href="#CMSS17-49"/>
     <use transform="translate(25.783926 0)scale(0.996264)" xlink:href="#CMSS17-6e"/>
     <use transform="translate(73.988869 0)scale(0.996264)" xlink:href="#CMSS17-76"/>
     <use transform="translate(116.98901 0)scale(0.996264)" xlink:href="#CMSS17-65"/>
     <use transform="translate(158.627832 0)scale(0.996264)" xlink:href="#CMSS17-73"/>
     <use transform="translate(194.541374 0)scale(0.996264)" xlink:href="#CMSS17-6d"/>
     <use transform="translate(268.770629 0)scale(0.996264)" xlink:href="#CMSS17-65"/>
     <use transform="translate(310.409451 0)scale(0.996264)" xlink:href="#CMSS17-6e"/>
     <use transform="translate(358.614394 0)scale(0.996264)" xlink:href="#CMSS17-74"/>
     <use transform="translate(392.445961 0)scale(0.996264)" xlink:href="#CMSS17-73"/>
    </g>
   </g>
   <g id="patch_143">
    <path d="M 264.555925 395.76 
L 288.555925 395.76 
L 288.555925 387.36 
L 264.555925 387.36 
z
" style="fill:#ffbb78;opacity:0.7;"/>
   </g>
   <g id="text_27">
    <!-- Fixed Assets -->
    <g style="fill:#262626;" transform="translate(298.155925 395.76)scale(0.12 -0.12)">
     <defs>
      <path d="M 2918 1984 
L 2918 2374 
L 1101 2374 
L 1101 3993 
L 1882 3993 
C 1958 3993 2035 3987 2112 3987 
L 3168 3987 
L 3168 4403 
L 563 4403 
L 563 0 
L 1101 0 
L 1101 1984 
L 2918 1984 
z
" id="CMSS17-46" transform="scale(0.015625)"/>
      <path d="M 1587 1420 
L 2656 2752 
L 2099 2752 
L 1363 1785 
L 602 2752 
L 32 2752 
L 1139 1420 
L 0 0 
L 563 0 
L 1363 1126 
L 2195 0 
L 2758 0 
L 1587 1420 
z
" id="CMSS17-78" transform="scale(0.015625)"/>
      <path d="M 2611 4416 
L 2138 4416 
L 2138 2495 
C 1939 2662 1613 2816 1254 2816 
C 672 2816 211 2179 211 1375 
C 211 572 666 -64 1235 -64 
C 1677 -64 1971 172 2125 307 
L 2125 -13 
L 2611 -13 
L 2611 4416 
z
M 2125 851 
C 2125 760 2125 663 1926 488 
C 1798 378 1645 326 1498 326 
C 1152 326 698 585 698 1369 
C 698 2185 1210 2425 1562 2425 
C 1798 2425 1990 2308 2125 2114 
L 2125 851 
z
" id="CMSS17-64" transform="scale(0.015625)"/>
     </defs>
     <use transform="scale(0.996264)" xlink:href="#CMSS17-46"/>
     <use transform="translate(53.289559 0)scale(0.996264)" xlink:href="#CMSS17-69"/>
     <use transform="translate(75.470282 0)scale(0.996264)" xlink:href="#CMSS17-78"/>
     <use transform="translate(118.470424 0)scale(0.996264)" xlink:href="#CMSS17-65"/>
     <use transform="translate(160.109246 0)scale(0.996264)" xlink:href="#CMSS17-64"/>
     <use transform="translate(239.543302 0)scale(0.996264)" xlink:href="#CMSS17-41"/>
     <use transform="translate(301.761157 0)scale(0.996264)" xlink:href="#CMSS17-73"/>
     <use transform="translate(337.674699 0)scale(0.996264)" xlink:href="#CMSS17-73"/>
     <use transform="translate(373.588241 0)scale(0.996264)" xlink:href="#CMSS17-65"/>
     <use transform="translate(415.227063 0)scale(0.996264)" xlink:href="#CMSS17-74"/>
     <use transform="translate(449.05863 0)scale(0.996264)" xlink:href="#CMSS17-73"/>
    </g>
   </g>
   <g id="patch_144">
    <path d="M 264.555925 412.484596 
L 288.555925 412.484596 
L 288.555925 404.084596 
L 264.555925 404.084596 
z
" style="fill:#2ca02c;opacity:0.7;"/>
   </g>
   <g id="text_28">
    <!-- US Treasury Securities -->
    <g style="fill:#262626;" transform="translate(298.155925 412.484596)scale(0.12 -0.12)">
     <defs>
      <path d="M 2797 4230 
C 2515 4396 2208 4544 1690 4544 
C 864 4544 333 3934 333 3309 
C 333 3064 403 2787 653 2504 
C 902 2220 1184 2143 1542 2053 
C 1690 2014 1939 1943 1984 1924 
C 2342 1782 2515 1454 2515 1144 
C 2515 738 2202 307 1645 307 
C 1453 307 890 339 358 829 
L 269 320 
C 794 -64 1363 -128 1651 -128 
C 2438 -128 3002 494 3002 1202 
C 3002 1460 2925 1789 2656 2092 
C 2394 2381 2163 2446 1638 2588 
C 1338 2665 1146 2717 986 2916 
C 877 3058 819 3193 819 3367 
C 819 3728 1126 4121 1690 4121 
C 1971 4121 2336 4063 2707 3715 
L 2797 4230 
z
" id="CMSS17-53" transform="scale(0.015625)"/>
      <path d="M 2317 3987 
L 2848 3987 
C 2925 3987 3002 3980 3078 3980 
L 3878 3980 
L 3878 4396 
L 218 4396 
L 218 3980 
L 1018 3980 
C 1094 3980 1171 3987 1248 3987 
L 1779 3987 
L 1779 0 
L 2317 0 
L 2317 3987 
z
" id="CMSS17-54" transform="scale(0.015625)"/>
      <path d="M 2675 2752 
L 2176 2752 
C 1632 1293 1446 701 1434 383 
L 1427 383 
C 1408 695 1126 1459 902 2006 
L 602 2752 
L 83 2752 
L 1216 14 
C 1146 -177 1043 -464 1011 -527 
C 870 -884 774 -884 672 -884 
C 646 -884 442 -877 211 -807 
L 250 -1229 
C 410 -1261 570 -1280 685 -1280 
C 845 -1280 1165 -1280 1459 -495 
L 2675 2752 
z
" id="CMSS17-79" transform="scale(0.015625)"/>
     </defs>
     <use transform="scale(0.996264)" xlink:href="#CMSS17-55"/>
     <use transform="translate(64.13974 0)scale(0.996264)" xlink:href="#CMSS17-53"/>
     <use transform="translate(147.417369 0)scale(0.996264)" xlink:href="#CMSS17-54"/>
     <use transform="translate(203.429568 0)scale(0.996264)" xlink:href="#CMSS17-72"/>
     <use transform="translate(235.33934 0)scale(0.996264)" xlink:href="#CMSS17-65"/>
     <use transform="translate(276.978162 0)scale(0.996264)" xlink:href="#CMSS17-61"/>
     <use transform="translate(321.900083 0)scale(0.996264)" xlink:href="#CMSS17-73"/>
     <use transform="translate(357.813625 0)scale(0.996264)" xlink:href="#CMSS17-75"/>
     <use transform="translate(406.018568 0)scale(0.996264)" xlink:href="#CMSS17-72"/>
     <use transform="translate(437.928341 0)scale(0.996264)" xlink:href="#CMSS17-79"/>
     <use transform="translate(512.157595 0)scale(0.996264)" xlink:href="#CMSS17-53"/>
     <use transform="translate(564.206111 0)scale(0.996264)" xlink:href="#CMSS17-65"/>
     <use transform="translate(605.844933 0)scale(0.996264)" xlink:href="#CMSS17-63"/>
     <use transform="translate(647.483755 0)scale(0.996264)" xlink:href="#CMSS17-75"/>
     <use transform="translate(695.688699 0)scale(0.996264)" xlink:href="#CMSS17-72"/>
     <use transform="translate(727.598471 0)scale(0.996264)" xlink:href="#CMSS17-69"/>
     <use transform="translate(749.779194 0)scale(0.996264)" xlink:href="#CMSS17-74"/>
     <use transform="translate(783.610761 0)scale(0.996264)" xlink:href="#CMSS17-69"/>
     <use transform="translate(805.791484 0)scale(0.996264)" xlink:href="#CMSS17-65"/>
     <use transform="translate(847.430306 0)scale(0.996264)" xlink:href="#CMSS17-73"/>
    </g>
   </g>
   <g id="patch_145">
    <path d="M 432.367737 395.76 
L 456.367737 395.76 
L 456.367737 387.36 
L 432.367737 387.36 
z
" style="fill:#98df8a;opacity:0.7;"/>
   </g>
   <g id="text_29">
    <!-- Other Assets -->
    <g style="fill:#262626;" transform="translate(465.967737 395.76)scale(0.12 -0.12)">
     <defs>
      <path d="M 4096 2201 
C 4096 3541 3219 4544 2214 4544 
C 1210 4544 333 3535 333 2201 
C 333 855 1222 -128 2214 -128 
C 3206 -128 4096 855 4096 2201 
z
M 2214 275 
C 1510 275 870 1067 870 2285 
C 870 3470 1549 4140 2214 4140 
C 2880 4140 3558 3470 3558 2285 
C 3558 1061 2912 275 2214 275 
z
" id="CMSS17-4f" transform="scale(0.015625)"/>
     </defs>
     <use transform="scale(0.996264)" xlink:href="#CMSS17-4f"/>
     <use transform="translate(69.024255 0)scale(0.996264)" xlink:href="#CMSS17-74"/>
     <use transform="translate(102.855822 0)scale(0.996264)" xlink:href="#CMSS17-68"/>
     <use transform="translate(151.060765 0)scale(0.996264)" xlink:href="#CMSS17-65"/>
     <use transform="translate(192.699587 0)scale(0.996264)" xlink:href="#CMSS17-72"/>
     <use transform="translate(255.838473 0)scale(0.996264)" xlink:href="#CMSS17-41"/>
     <use transform="translate(318.056327 0)scale(0.996264)" xlink:href="#CMSS17-73"/>
     <use transform="translate(353.969869 0)scale(0.996264)" xlink:href="#CMSS17-73"/>
     <use transform="translate(389.883411 0)scale(0.996264)" xlink:href="#CMSS17-65"/>
     <use transform="translate(431.522234 0)scale(0.996264)" xlink:href="#CMSS17-74"/>
     <use transform="translate(465.3538 0)scale(0.996264)" xlink:href="#CMSS17-73"/>
    </g>
   </g>
   <g id="patch_146">
    <path d="M 432.367737 412.484596 
L 456.367737 412.484596 
L 456.367737 404.084596 
L 432.367737 404.084596 
z
" style="fill:#d62728;opacity:0.7;"/>
   </g>
   <g id="text_30">
    <!-- Loans Receivable -->
    <g style="fill:#262626;" transform="translate(465.967737 412.484596)scale(0.12 -0.12)">
     <defs>
      <path d="M 1670 416 
C 1594 416 1517 409 1440 409 
L 1101 409 
L 1101 4416 
L 563 4416 
L 563 0 
L 3002 0 
L 3002 416 
L 1670 416 
z
" id="CMSS17-4c" transform="scale(0.015625)"/>
      <path d="M 954 4416 
L 480 4416 
L 480 -13 
L 966 -13 
L 966 275 
C 1210 38 1504 -64 1766 -64 
C 2381 -64 2880 559 2880 1382 
C 2880 2133 2496 2816 1926 2816 
C 1523 2816 1165 2649 954 2476 
L 954 4416 
z
M 966 2095 
C 1107 2276 1306 2425 1587 2425 
C 1965 2425 2394 2146 2394 1382 
C 2394 566 1882 326 1530 326 
C 1402 326 1267 358 1139 468 
C 966 624 966 721 966 812 
L 966 2095 
z
" id="CMSS17-62" transform="scale(0.015625)"/>
     </defs>
     <use transform="scale(0.996264)" xlink:href="#CMSS17-4c"/>
     <use transform="translate(50.687105 0)scale(0.996264)" xlink:href="#CMSS17-6f"/>
     <use transform="translate(97.530729 0)scale(0.996264)" xlink:href="#CMSS17-61"/>
     <use transform="translate(142.452649 0)scale(0.996264)" xlink:href="#CMSS17-6e"/>
     <use transform="translate(190.657593 0)scale(0.996264)" xlink:href="#CMSS17-73"/>
     <use transform="translate(257.800247 0)scale(0.996264)" xlink:href="#CMSS17-52"/>
     <use transform="translate(318.216402 0)scale(0.996264)" xlink:href="#CMSS17-65"/>
     <use transform="translate(359.855224 0)scale(0.996264)" xlink:href="#CMSS17-63"/>
     <use transform="translate(401.494046 0)scale(0.996264)" xlink:href="#CMSS17-65"/>
     <use transform="translate(443.132868 0)scale(0.996264)" xlink:href="#CMSS17-69"/>
     <use transform="translate(465.313591 0)scale(0.996264)" xlink:href="#CMSS17-76"/>
     <use transform="translate(508.313733 0)scale(0.996264)" xlink:href="#CMSS17-61"/>
     <use transform="translate(553.235654 0)scale(0.996264)" xlink:href="#CMSS17-62"/>
     <use transform="translate(601.440597 0)scale(0.996264)" xlink:href="#CMSS17-6c"/>
     <use transform="translate(623.62132 0)scale(0.996264)" xlink:href="#CMSS17-65"/>
    </g>
   </g>
  </g>
 </g>
 <defs>
  <clipPath id="p96a2d98614">
   <rect height="278.440457" width="627.715755" x="39.121575" y="23.162625"/>
  </clipPath>
 </defs>
</svg>
