<?xml version="1.0" encoding="utf-8" standalone="no"?>
<!DOCTYPE svg PUBLIC "-//W3C//DTD SVG 1.1//EN"
  "http://www.w3.org/Graphics/SVG/1.1/DTD/svg11.dtd">
<svg height="345.6pt" version="1.1" viewBox="0 0 460.8 345.6" width="460.8pt" xmlns="http://www.w3.org/2000/svg" xmlns:xlink="http://www.w3.org/1999/xlink">
 <metadata>
  <rdf:RDF xmlns:cc="http://creativecommons.org/ns#" xmlns:dc="http://purl.org/dc/elements/1.1/" xmlns:rdf="http://www.w3.org/1999/02/22-rdf-syntax-ns#">
   <cc:Work>
    <dc:type rdf:resource="http://purl.org/dc/dcmitype/StillImage"/>
    <dc:date>2021-10-26T14:51:33.116310</dc:date>
    <dc:format>image/svg+xml</dc:format>
    <dc:creator>
     <cc:Agent>
      <dc:title>Matplotlib v3.4.2, https://matplotlib.org/</dc:title>
     </cc:Agent>
    </dc:creator>
   </cc:Work>
  </rdf:RDF>
 </metadata>
 <defs>
  <style type="text/css">*{stroke-linecap:butt;stroke-linejoin:round;}</style>
 </defs>
 <g id="figure_1">
  <g id="patch_1">
   <path d="M 0 345.6 
L 460.8 345.6 
L 460.8 0 
L 0 0 
z
" style="fill:#ffffff;"/>
  </g>
  <g id="axes_1">
   <g id="matplotlib.axis_1"/>
   <g id="matplotlib.axis_2"/>
   <g id="patch_2">
    <path d="M 353.296144 181.17982 
C 353.296144 158.926632 347.251964 137.08577 335.811539 117.998575 
C 324.371114 98.911379 307.9584 83.285176 288.332841 72.795097 
C 268.707282 62.305017 246.596154 57.339797 224.369772 58.431709 
C 202.14339 59.523621 180.625409 66.632202 162.12256 78.99541 
C 143.619712 91.358618 128.817665 108.518304 119.303201 128.634947 
C 109.788738 148.75159 105.91444 171.079716 108.095634 193.225748 
C 110.276828 215.37178 118.432683 236.51504 131.688891 254.388967 
C 144.945099 272.262895 162.810418 286.205126 183.369682 294.721052 
L 230.4 181.17982 
L 353.296144 181.17982 
z
" style="fill:#4c72b0;opacity:0.7;"/>
   </g>
   <g id="patch_3">
    <path d="M 183.369682 294.721052 
C 202.040575 302.454789 222.334006 305.465036 242.445923 303.484186 
C 262.557839 301.503336 281.874069 294.59188 298.67743 283.364235 
C 315.480791 272.136591 329.258148 256.935624 338.784715 239.112676 
C 348.311282 221.289728 353.296141 201.389072 353.296144 181.179843 
L 230.4 181.17982 
L 183.369682 294.721052 
z
" style="fill:#55a868;opacity:0.7;"/>
   </g>
   <g id="text_1">
    <!-- \$1.98 M -->
    <g style="fill:#262626;" transform="translate(120.565068 71.267629)scale(0.1 -0.1)">
     <defs>
      <path d="M 1306 4800 
L 1306 4556 
C 736 4486 320 3968 320 3406 
C 320 2901 666 2383 1229 2268 
C 1299 2236 1306 2223 1306 2153 
L 1306 248 
C 979 255 659 402 403 594 
C 365 619 333 651 294 670 
C 288 600 262 536 262 466 
C 262 293 928 -7 1306 -14 
L 1306 -256 
L 1555 -256 
L 1555 -71 
C 1555 12 1709 12 1779 44 
C 2291 229 2541 747 2541 1246 
L 2541 1271 
C 2534 1782 2214 2287 1709 2434 
C 1645 2454 1549 2454 1549 2556 
C 1549 2588 1555 2620 1555 2645 
L 1555 4294 
C 1766 4294 1984 4224 2163 4122 
C 2246 4071 2317 4007 2400 3962 
C 2413 4026 2438 4109 2438 4173 
C 2438 4243 2323 4294 2253 4345 
C 2048 4473 1798 4556 1555 4556 
L 1555 4800 
L 1306 4800 
z
M 1555 255 
L 1555 2172 
C 1984 2057 2266 1687 2266 1214 
C 2266 792 2016 332 1555 255 
z
M 1306 4288 
L 1306 2549 
C 883 2690 595 2946 595 3412 
C 595 3796 877 4256 1306 4288 
z
" id="SFSS3583-24" transform="scale(0.015625)"/>
      <path d="M 1818 4288 
L 1696 4288 
C 1350 3949 947 3902 538 3891 
L 538 3520 
C 723 3526 1024 3539 1325 3673 
L 1325 371 
L 570 371 
L 570 0 
L 2573 0 
L 2573 371 
L 1818 371 
L 1818 4288 
z
" id="CMSS17-31" transform="scale(0.015625)"/>
      <path d="M 1088 512 
L 576 512 
L 576 0 
L 1088 0 
L 1088 512 
z
" id="CMSS17-2e" transform="scale(0.015625)"/>
      <path d="M 435 172 
C 614 19 845 -128 1235 -128 
C 2010 -128 2752 738 2752 2136 
C 2752 3987 1952 4288 1523 4288 
C 1094 4288 819 4095 582 3789 
C 301 3438 250 3125 250 2761 
C 250 2327 326 2059 506 1753 
C 749 1356 973 1273 1222 1273 
C 1600 1273 1978 1459 2234 1778 
C 2189 908 1798 268 1235 268 
C 1005 268 819 340 634 516 
L 435 172 
z
M 2214 2774 
C 2221 2729 2221 2646 2221 2621 
C 2221 2085 1914 1664 1466 1664 
C 1171 1664 1018 1817 902 2015 
C 762 2263 755 2506 755 2761 
C 755 3010 755 3284 934 3559 
C 1069 3757 1235 3897 1523 3897 
C 2112 3897 2208 3036 2214 2774 
z
" id="CMSS17-39" transform="scale(0.015625)"/>
      <path d="M 1933 2246 
C 2419 2406 2669 2793 2669 3174 
C 2669 3774 2157 4288 1504 4288 
C 826 4288 333 3755 333 3174 
C 333 2799 576 2412 1069 2246 
C 442 2003 250 1516 250 1152 
C 250 448 819 -128 1498 -128 
C 2202 -128 2752 460 2752 1152 
C 2752 1574 2502 2022 1933 2246 
z
M 1504 2438 
C 1075 2438 787 2728 787 3167 
C 787 3613 1075 3897 1504 3897 
C 1901 3897 2214 3639 2214 3167 
C 2214 2703 1907 2438 1504 2438 
z
M 1504 268 
C 1139 268 749 518 749 1158 
C 749 1817 1184 2048 1498 2048 
C 1843 2048 2253 1804 2253 1158 
C 2253 492 1830 268 1504 268 
z
" id="CMSS17-38" transform="scale(0.015625)"/>
      <path d="M 3194 2373 
L 2886 1476 
C 2835 1311 2662 795 2624 592 
L 2618 592 
C 2598 719 2560 853 2458 1177 
C 2400 1368 2336 1565 2272 1743 
L 1325 4416 
L 576 4416 
L 576 0 
L 1075 0 
L 1075 3899 
L 1082 3899 
C 1082 3893 1139 3613 1530 2500 
L 2374 102 
L 2848 102 
L 3610 2233 
C 3661 2379 3821 2843 3891 3066 
C 3955 3257 4115 3728 4154 3912 
L 4160 3912 
L 4160 0 
L 4666 0 
L 4666 4416 
L 3923 4416 
L 3194 2373 
z
" id="CMSS17-4d" transform="scale(0.015625)"/>
     </defs>
     <use transform="scale(0.996264)" xlink:href="#SFSS3583-24"/>
     <use transform="translate(44.640308 0)scale(0.996264)" xlink:href="#CMSS17-31"/>
     <use transform="translate(91.483931 0)scale(0.996264)" xlink:href="#CMSS17-2e"/>
     <use transform="translate(117.508136 0)scale(0.996264)" xlink:href="#CMSS17-39"/>
     <use transform="translate(164.35176 0)scale(0.996264)" xlink:href="#CMSS17-38"/>
     <use transform="translate(242.424496 0)scale(0.996264)" xlink:href="#CMSS17-4d"/>
    </g>
   </g>
   <g id="text_2">
    <!-- \$0.90 M -->
    <g style="fill:#262626;" transform="translate(305.505173 296.073337)scale(0.1 -0.1)">
     <defs>
      <path d="M 2758 2073 
C 2758 2439 2752 3120 2490 3647 
C 2227 4153 1805 4288 1504 4288 
C 1069 4288 698 4031 506 3621 
C 301 3191 243 2748 243 2073 
C 243 1611 262 1046 493 551 
C 755 6 1197 -128 1498 -128 
C 1894 -128 2278 83 2496 525 
C 2720 988 2758 1495 2758 2073 
z
M 1498 262 
C 1011 262 864 821 819 1007 
C 742 1328 730 1636 730 2144 
C 730 2542 730 2992 851 3345 
C 998 3756 1254 3897 1498 3897 
C 1971 3897 2125 3422 2176 3255 
C 2272 2915 2272 2516 2272 2144 
C 2272 1546 2272 262 1498 262 
z
" id="CMSS17-30" transform="scale(0.015625)"/>
     </defs>
     <use transform="scale(0.996264)" xlink:href="#SFSS3583-24"/>
     <use transform="translate(44.640308 0)scale(0.996264)" xlink:href="#CMSS17-30"/>
     <use transform="translate(91.483931 0)scale(0.996264)" xlink:href="#CMSS17-2e"/>
     <use transform="translate(117.508136 0)scale(0.996264)" xlink:href="#CMSS17-39"/>
     <use transform="translate(164.35176 0)scale(0.996264)" xlink:href="#CMSS17-30"/>
     <use transform="translate(242.424496 0)scale(0.996264)" xlink:href="#CMSS17-4d"/>
    </g>
   </g>
   <g id="text_3">
    <!-- Yearly Union Dues Breakdown [Total: \$2.88 M] -->
    <g style="fill:#262626;" transform="translate(90.842401 21.559639)scale(0.144 -0.144)">
     <defs>
      <path d="M 3974 4416 
L 3424 4416 
L 2432 2875 
C 2355 2754 2138 2424 2035 2239 
L 1722 2742 
L 646 4416 
L 19 4416 
L 1734 1769 
L 1734 0 
L 2259 0 
L 2259 1762 
L 3974 4416 
z
" id="CMSS17-59" transform="scale(0.015625)"/>
      <path d="M 2502 1375 
C 2502 1587 2490 2001 2285 2347 
C 2061 2713 1696 2816 1421 2816 
C 755 2816 192 2184 192 1363 
C 192 579 774 -64 1510 -64 
C 1798 -64 2150 19 2470 249 
C 2470 275 2458 414 2451 421 
C 2451 433 2432 629 2432 655 
C 2125 408 1773 326 1517 326 
C 1107 326 666 667 646 1375 
L 2502 1375 
z
M 698 1728 
C 781 2086 1062 2425 1421 2425 
C 1517 2425 1965 2412 2080 1728 
L 698 1728 
z
" id="CMSS17-65" transform="scale(0.015625)"/>
      <path d="M 2406 1789 
C 2406 2399 1978 2816 1402 2816 
C 1120 2816 813 2764 461 2559 
L 499 2133 
C 659 2250 934 2438 1395 2438 
C 1722 2438 1920 2185 1920 1782 
L 1920 1536 
C 896 1504 256 1209 256 711 
C 256 452 416 -64 947 -64 
C 1043 -64 1562 -52 1933 224 
L 1933 -13 
L 2406 -13 
L 2406 1789 
z
M 1920 824 
C 1920 711 1920 559 1728 446 
C 1562 339 1350 326 1261 326 
C 941 326 723 503 723 723 
C 723 1165 1722 1209 1920 1216 
L 1920 824 
z
" id="CMSS17-61" transform="scale(0.015625)"/>
      <path d="M 954 1369 
C 954 1974 1395 2379 1958 2392 
L 1958 2816 
C 1549 2809 1165 2604 934 2270 
L 934 2783 
L 480 2783 
L 480 0 
L 954 0 
L 954 1369 
z
" id="CMSS17-72" transform="scale(0.015625)"/>
      <path d="M 947 4416 
L 474 4416 
L 474 0 
L 947 0 
L 947 4416 
z
" id="CMSS17-6c" transform="scale(0.015625)"/>
      <path d="M 2675 2752 
L 2176 2752 
C 1632 1293 1446 701 1434 383 
L 1427 383 
C 1408 695 1126 1459 902 2006 
L 602 2752 
L 83 2752 
L 1216 14 
C 1146 -177 1043 -464 1011 -527 
C 870 -884 774 -884 672 -884 
C 646 -884 442 -877 211 -807 
L 250 -1229 
C 410 -1261 570 -1280 685 -1280 
C 845 -1280 1165 -1280 1459 -495 
L 2675 2752 
z
" id="CMSS17-79" transform="scale(0.015625)"/>
      <path d="M 3552 4416 
L 3066 4416 
L 3066 1459 
C 3066 608 2547 230 2074 230 
C 1587 230 1101 627 1101 1452 
L 1101 4416 
L 563 4416 
L 563 1465 
C 563 544 1274 -128 2067 -128 
C 2861 -128 3552 544 3552 1465 
L 3552 4416 
z
" id="CMSS17-55" transform="scale(0.015625)"/>
      <path d="M 2618 1878 
C 2618 2283 2522 2816 1798 2816 
C 1389 2816 1120 2604 941 2386 
L 941 2783 
L 474 2783 
L 474 0 
L 960 0 
L 960 1556 
C 960 1962 1114 2425 1549 2425 
C 2112 2425 2131 2045 2131 1826 
L 2131 0 
L 2618 0 
L 2618 1878 
z
" id="CMSS17-6e" transform="scale(0.015625)"/>
      <path d="M 979 4224 
L 442 4224 
L 442 3686 
L 979 3686 
L 979 4224 
z
M 947 2752 
L 474 2752 
L 474 0 
L 947 0 
L 947 2752 
z
" id="CMSS17-69" transform="scale(0.015625)"/>
      <path d="M 2829 1356 
C 2829 2175 2221 2816 1504 2816 
C 768 2816 173 2156 173 1356 
C 173 544 787 -64 1498 -64 
C 2227 -64 2829 563 2829 1356 
z
M 1504 339 
C 1050 339 659 710 659 1407 
C 659 2150 1114 2425 1498 2425 
C 1914 2425 2342 2124 2342 1407 
C 2342 684 1926 339 1504 339 
z
" id="CMSS17-6f" transform="scale(0.015625)"/>
      <path d="M 570 4416 
L 570 0 
L 2144 0 
C 3194 0 4000 981 4000 2169 
C 4000 3396 3194 4416 2144 4416 
L 570 4416 
z
M 1094 358 
L 1094 4057 
L 2003 4057 
C 2861 4057 3475 3275 3475 2169 
C 3475 1108 2867 358 2003 358 
L 1094 358 
z
" id="CMSS17-44" transform="scale(0.015625)"/>
      <path d="M 2618 2752 
L 2131 2752 
L 2131 976 
C 2131 500 1786 307 1421 307 
C 998 307 960 448 960 712 
L 960 2752 
L 474 2752 
L 474 680 
C 474 179 646 -64 1088 -64 
C 1306 -64 1798 -13 2144 307 
L 2144 -13 
L 2618 -13 
L 2618 2752 
z
" id="CMSS17-75" transform="scale(0.015625)"/>
      <path d="M 2061 2623 
C 1683 2803 1389 2816 1197 2816 
C 742 2816 198 2655 198 2009 
C 198 1363 902 1222 1094 1183 
C 1389 1126 1715 1062 1715 742 
C 1715 339 1254 339 1171 339 
C 915 339 563 409 243 639 
L 166 211 
C 531 0 883 -64 1178 -64 
C 1965 -64 2163 416 2163 780 
C 2163 1094 1984 1305 1862 1401 
C 1651 1567 1574 1587 1050 1695 
C 960 1708 646 1779 646 2067 
C 646 2431 1050 2431 1139 2431 
C 1555 2431 1811 2303 1984 2207 
L 2061 2623 
z
" id="CMSS17-73" transform="scale(0.015625)"/>
      <path d="M 570 4416 
L 570 0 
L 2163 0 
C 3034 0 3667 575 3667 1200 
C 3667 1684 3251 2175 2502 2316 
C 3334 2559 3501 3039 3501 3311 
C 3501 3880 2874 4416 1997 4416 
L 570 4416 
z
M 1088 2496 
L 1088 4057 
L 1824 4057 
C 2483 4057 3002 3722 3002 3305 
C 3002 2925 2592 2496 1766 2496 
L 1088 2496 
z
M 1088 358 
L 1088 2105 
L 1939 2105 
C 2630 2105 3162 1678 3162 1206 
C 3162 772 2694 358 1984 358 
L 1088 358 
z
" id="CMSS17-42" transform="scale(0.015625)"/>
      <path d="M 1696 1686 
L 2688 2735 
L 2074 2735 
L 954 1552 
L 954 4416 
L 480 4416 
L 480 0 
L 947 0 
L 947 891 
L 1376 1342 
L 2278 0 
L 2822 0 
L 1696 1686 
z
" id="CMSS17-6b" transform="scale(0.015625)"/>
      <path d="M 2611 4416 
L 2138 4416 
L 2138 2495 
C 1939 2662 1613 2816 1254 2816 
C 672 2816 211 2179 211 1375 
C 211 572 666 -64 1235 -64 
C 1677 -64 1971 172 2125 307 
L 2125 -13 
L 2611 -13 
L 2611 4416 
z
M 2125 851 
C 2125 760 2125 663 1926 488 
C 1798 378 1645 326 1498 326 
C 1152 326 698 585 698 1369 
C 698 2185 1210 2425 1562 2425 
C 1798 2425 1990 2308 2125 2114 
L 2125 851 
z
" id="CMSS17-64" transform="scale(0.015625)"/>
      <path d="M 4013 2752 
L 3526 2752 
L 3187 1600 
C 3117 1356 2918 684 2893 371 
L 2886 371 
C 2874 563 2765 1024 2586 1632 
L 2259 2752 
L 1818 2752 
L 1498 1657 
C 1338 1100 1216 627 1203 371 
L 1197 371 
C 1171 748 909 1632 870 1772 
L 582 2752 
L 83 2752 
L 915 0 
L 1402 0 
C 1734 1100 1990 1952 2010 2380 
C 2022 2169 2131 1715 2195 1491 
L 2618 0 
L 3181 0 
L 4013 2752 
z
" id="CMSS17-77" transform="scale(0.015625)"/>
      <path d="M 1613 -1600 
L 1613 -1210 
L 1062 -1210 
L 1062 4409 
L 1613 4409 
L 1613 4800 
L 595 4800 
L 595 -1600 
L 1613 -1600 
z
" id="CMSS17-5b" transform="scale(0.015625)"/>
      <path d="M 2317 3987 
L 2848 3987 
C 2925 3987 3002 3980 3078 3980 
L 3878 3980 
L 3878 4396 
L 218 4396 
L 218 3980 
L 1018 3980 
C 1094 3980 1171 3987 1248 3987 
L 1779 3987 
L 1779 0 
L 2317 0 
L 2317 3987 
z
" id="CMSS17-54" transform="scale(0.015625)"/>
      <path d="M 1069 2380 
L 1901 2380 
L 1901 2752 
L 1069 2752 
L 1069 3520 
L 614 3520 
L 614 2752 
L 109 2752 
L 109 2380 
L 602 2380 
L 602 751 
C 602 384 685 -64 1107 -64 
C 1427 -64 1722 25 2003 172 
L 1901 551 
C 1747 416 1562 339 1363 339 
C 1082 339 1069 699 1069 860 
L 1069 2380 
z
" id="CMSS17-74" transform="scale(0.015625)"/>
      <path d="M 1088 2752 
L 576 2752 
L 576 2239 
L 1088 2239 
L 1088 2752 
z
M 576 512 
L 576 0 
L 1088 0 
L 1088 512 
L 576 512 
z
" id="CMSS17-3a" transform="scale(0.015625)"/>
      <path d="M 1651 1353 
C 1830 1538 2099 1761 2285 1984 
C 2464 2201 2701 2507 2701 2953 
C 2701 3655 2227 4288 1421 4288 
C 787 4288 422 3891 250 3272 
L 499 2928 
C 640 3508 838 3878 1338 3878 
C 1888 3878 2195 3431 2195 2940 
C 2195 2354 1747 1901 1408 1563 
C 1030 1187 659 805 301 409 
L 301 0 
L 2701 0 
L 2701 435 
L 1613 435 
C 1536 435 1459 428 1382 428 
L 742 428 
L 742 435 
L 1651 1353 
z
" id="CMSS17-32" transform="scale(0.015625)"/>
      <path d="M 1146 4800 
L 128 4800 
L 128 4409 
L 678 4409 
L 678 -1210 
L 128 -1210 
L 128 -1600 
L 1146 -1600 
L 1146 4800 
z
" id="CMSS17-5d" transform="scale(0.015625)"/>
     </defs>
     <use transform="scale(0.996264)" xlink:href="#CMSS17-59"/>
     <use transform="translate(54.4106 0)scale(0.996264)" xlink:href="#CMSS17-65"/>
     <use transform="translate(96.049422 0)scale(0.996264)" xlink:href="#CMSS17-61"/>
     <use transform="translate(138.368888 0)scale(0.996264)" xlink:href="#CMSS17-72"/>
     <use transform="translate(170.278661 0)scale(0.996264)" xlink:href="#CMSS17-6c"/>
     <use transform="translate(192.459384 0)scale(0.996264)" xlink:href="#CMSS17-79"/>
     <use transform="translate(266.688638 0)scale(0.996264)" xlink:href="#CMSS17-55"/>
     <use transform="translate(330.828379 0)scale(0.996264)" xlink:href="#CMSS17-6e"/>
     <use transform="translate(379.033322 0)scale(0.996264)" xlink:href="#CMSS17-69"/>
     <use transform="translate(401.214045 0)scale(0.996264)" xlink:href="#CMSS17-6f"/>
     <use transform="translate(448.057668 0)scale(0.996264)" xlink:href="#CMSS17-6e"/>
     <use transform="translate(527.491724 0)scale(0.996264)" xlink:href="#CMSS17-44"/>
     <use transform="translate(595.034566 0)scale(0.996264)" xlink:href="#CMSS17-75"/>
     <use transform="translate(643.239509 0)scale(0.996264)" xlink:href="#CMSS17-65"/>
     <use transform="translate(684.878331 0)scale(0.996264)" xlink:href="#CMSS17-73"/>
     <use transform="translate(752.020986 0)scale(0.996264)" xlink:href="#CMSS17-42"/>
     <use transform="translate(814.359026 0)scale(0.996264)" xlink:href="#CMSS17-72"/>
     <use transform="translate(846.268799 0)scale(0.996264)" xlink:href="#CMSS17-65"/>
     <use transform="translate(887.907621 0)scale(0.996264)" xlink:href="#CMSS17-61"/>
     <use transform="translate(932.829541 0)scale(0.996264)" xlink:href="#CMSS17-6b"/>
     <use transform="translate(978.43203 0)scale(0.996264)" xlink:href="#CMSS17-64"/>
     <use transform="translate(1026.636974 0)scale(0.996264)" xlink:href="#CMSS17-6f"/>
     <use transform="translate(1070.878143 0)scale(0.996264)" xlink:href="#CMSS17-77"/>
     <use transform="translate(1134.697688 0)scale(0.996264)" xlink:href="#CMSS17-6e"/>
     <use transform="translate(1214.131744 0)scale(0.996264)" xlink:href="#CMSS17-5b"/>
     <use transform="translate(1241.317183 0)scale(0.996264)" xlink:href="#CMSS17-54"/>
     <use transform="translate(1297.329381 0)scale(0.996264)" xlink:href="#CMSS17-6f"/>
     <use transform="translate(1344.173005 0)scale(0.996264)" xlink:href="#CMSS17-74"/>
     <use transform="translate(1378.004571 0)scale(0.996264)" xlink:href="#CMSS17-61"/>
     <use transform="translate(1422.926492 0)scale(0.996264)" xlink:href="#CMSS17-6c"/>
     <use transform="translate(1445.107215 0)scale(0.996264)" xlink:href="#CMSS17-3a"/>
     <use transform="translate(1512.770227 0)scale(0.996264)" xlink:href="#SFSS3583-24"/>
     <use transform="translate(1557.410534 0)scale(0.996264)" xlink:href="#CMSS17-32"/>
     <use transform="translate(1604.254158 0)scale(0.996264)" xlink:href="#CMSS17-2e"/>
     <use transform="translate(1630.278363 0)scale(0.996264)" xlink:href="#CMSS17-38"/>
     <use transform="translate(1677.121986 0)scale(0.996264)" xlink:href="#CMSS17-38"/>
     <use transform="translate(1755.194723 0)scale(0.996264)" xlink:href="#CMSS17-4d"/>
     <use transform="translate(1836.870753 0)scale(0.996264)" xlink:href="#CMSS17-5d"/>
    </g>
   </g>
  </g>
  <g id="legend_1">
   <g id="patch_4">
    <path d="M 72.237361 399.36 
L 96.237361 399.36 
L 96.237361 390.96 
L 72.237361 390.96 
z
" style="fill:#4c72b0;opacity:0.7;"/>
   </g>
   <g id="text_4">
    <!-- Contribution to National -->
    <g style="fill:#262626;" transform="translate(105.837361 399.36)scale(0.12 -0.12)">
     <defs>
      <path d="M 3501 705 
C 3072 416 2874 332 2355 332 
C 1459 332 934 1304 934 2191 
C 934 3137 1472 4070 2381 4070 
C 2790 4070 3059 3954 3386 3748 
L 3475 4255 
C 3168 4409 2778 4480 2387 4480 
C 1158 4480 397 3343 397 2191 
C 397 924 1299 -77 2323 -77 
C 2874 -77 3066 -32 3539 268 
L 3501 705 
z
" id="CMSS17-43" transform="scale(0.015625)"/>
      <path d="M 954 4416 
L 480 4416 
L 480 -13 
L 966 -13 
L 966 275 
C 1210 38 1504 -64 1766 -64 
C 2381 -64 2880 559 2880 1382 
C 2880 2133 2496 2816 1926 2816 
C 1523 2816 1165 2649 954 2476 
L 954 4416 
z
M 966 2095 
C 1107 2276 1306 2425 1587 2425 
C 1965 2425 2394 2146 2394 1382 
C 2394 566 1882 326 1530 326 
C 1402 326 1267 358 1139 468 
C 966 624 966 721 966 812 
L 966 2095 
z
" id="CMSS17-62" transform="scale(0.015625)"/>
      <path d="M 1466 4179 
L 1350 4416 
L 563 4416 
L 563 0 
L 1062 0 
L 1062 3925 
L 1069 3931 
C 1114 3817 1139 3759 1402 3193 
L 2771 236 
L 2886 0 
L 3674 0 
L 3674 4416 
L 3174 4416 
L 3174 490 
L 3168 484 
C 3123 598 3098 655 2835 1222 
L 1466 4179 
z
" id="CMSS17-4e" transform="scale(0.015625)"/>
     </defs>
     <use transform="scale(0.996264)" xlink:href="#CMSS17-43"/>
     <use transform="translate(59.855772 0)scale(0.996264)" xlink:href="#CMSS17-6f"/>
     <use transform="translate(106.699395 0)scale(0.996264)" xlink:href="#CMSS17-6e"/>
     <use transform="translate(154.904338 0)scale(0.996264)" xlink:href="#CMSS17-74"/>
     <use transform="translate(188.735905 0)scale(0.996264)" xlink:href="#CMSS17-72"/>
     <use transform="translate(220.645677 0)scale(0.996264)" xlink:href="#CMSS17-69"/>
     <use transform="translate(242.826401 0)scale(0.996264)" xlink:href="#CMSS17-62"/>
     <use transform="translate(291.031344 0)scale(0.996264)" xlink:href="#CMSS17-75"/>
     <use transform="translate(339.236287 0)scale(0.996264)" xlink:href="#CMSS17-74"/>
     <use transform="translate(373.067853 0)scale(0.996264)" xlink:href="#CMSS17-69"/>
     <use transform="translate(395.248577 0)scale(0.996264)" xlink:href="#CMSS17-6f"/>
     <use transform="translate(442.0922 0)scale(0.996264)" xlink:href="#CMSS17-6e"/>
     <use transform="translate(521.526256 0)scale(0.996264)" xlink:href="#CMSS17-74"/>
     <use transform="translate(555.357823 0)scale(0.996264)" xlink:href="#CMSS17-6f"/>
     <use transform="translate(633.430559 0)scale(0.996264)" xlink:href="#CMSS17-4e"/>
     <use transform="translate(699.492078 0)scale(0.996264)" xlink:href="#CMSS17-61"/>
     <use transform="translate(744.413999 0)scale(0.996264)" xlink:href="#CMSS17-74"/>
     <use transform="translate(778.245565 0)scale(0.996264)" xlink:href="#CMSS17-69"/>
     <use transform="translate(800.426288 0)scale(0.996264)" xlink:href="#CMSS17-6f"/>
     <use transform="translate(847.269912 0)scale(0.996264)" xlink:href="#CMSS17-6e"/>
     <use transform="translate(895.474855 0)scale(0.996264)" xlink:href="#CMSS17-61"/>
     <use transform="translate(940.396776 0)scale(0.996264)" xlink:href="#CMSS17-6c"/>
    </g>
   </g>
   <g id="patch_5">
    <path d="M 249.871896 399.36 
L 273.871896 399.36 
L 273.871896 390.96 
L 249.871896 390.96 
z
" style="fill:#55a868;opacity:0.7;"/>
   </g>
   <g id="text_5">
    <!-- Contribution to Local -->
    <g style="fill:#262626;" transform="translate(283.471896 399.36)scale(0.12 -0.12)">
     <defs>
      <path d="M 1670 416 
C 1594 416 1517 409 1440 409 
L 1101 409 
L 1101 4416 
L 563 4416 
L 563 0 
L 3002 0 
L 3002 416 
L 1670 416 
z
" id="CMSS17-4c" transform="scale(0.015625)"/>
      <path d="M 2464 2540 
C 2464 2585 2170 2713 2093 2739 
C 1882 2816 1613 2816 1542 2816 
C 710 2816 211 2092 211 1363 
C 211 595 768 -64 1517 -64 
C 1946 -64 2253 76 2502 243 
L 2464 665 
C 2189 454 1869 339 1523 339 
C 1024 339 698 774 698 1369 
C 698 1830 909 2412 1549 2412 
C 1901 2412 2099 2342 2394 2143 
L 2464 2540 
z
" id="CMSS17-63" transform="scale(0.015625)"/>
     </defs>
     <use transform="scale(0.996264)" xlink:href="#CMSS17-43"/>
     <use transform="translate(59.855772 0)scale(0.996264)" xlink:href="#CMSS17-6f"/>
     <use transform="translate(106.699395 0)scale(0.996264)" xlink:href="#CMSS17-6e"/>
     <use transform="translate(154.904338 0)scale(0.996264)" xlink:href="#CMSS17-74"/>
     <use transform="translate(188.735905 0)scale(0.996264)" xlink:href="#CMSS17-72"/>
     <use transform="translate(220.645677 0)scale(0.996264)" xlink:href="#CMSS17-69"/>
     <use transform="translate(242.826401 0)scale(0.996264)" xlink:href="#CMSS17-62"/>
     <use transform="translate(291.031344 0)scale(0.996264)" xlink:href="#CMSS17-75"/>
     <use transform="translate(339.236287 0)scale(0.996264)" xlink:href="#CMSS17-74"/>
     <use transform="translate(373.067853 0)scale(0.996264)" xlink:href="#CMSS17-69"/>
     <use transform="translate(395.248577 0)scale(0.996264)" xlink:href="#CMSS17-6f"/>
     <use transform="translate(442.0922 0)scale(0.996264)" xlink:href="#CMSS17-6e"/>
     <use transform="translate(521.526256 0)scale(0.996264)" xlink:href="#CMSS17-74"/>
     <use transform="translate(555.357823 0)scale(0.996264)" xlink:href="#CMSS17-6f"/>
     <use transform="translate(633.430559 0)scale(0.996264)" xlink:href="#CMSS17-4c"/>
     <use transform="translate(684.117664 0)scale(0.996264)" xlink:href="#CMSS17-6f"/>
     <use transform="translate(733.563726 0)scale(0.996264)" xlink:href="#CMSS17-63"/>
     <use transform="translate(775.202549 0)scale(0.996264)" xlink:href="#CMSS17-61"/>
     <use transform="translate(820.124469 0)scale(0.996264)" xlink:href="#CMSS17-6c"/>
    </g>
   </g>
  </g>
 </g>
</svg>
