<?xml version="1.0" encoding="utf-8" standalone="no"?>
<!DOCTYPE svg PUBLIC "-//W3C//DTD SVG 1.1//EN"
  "http://www.w3.org/Graphics/SVG/1.1/DTD/svg11.dtd">
<svg height="345.6pt" version="1.1" viewBox="0 0 691.2 345.6" width="691.2pt" xmlns="http://www.w3.org/2000/svg" xmlns:xlink="http://www.w3.org/1999/xlink">
 <metadata>
  <rdf:RDF xmlns:cc="http://creativecommons.org/ns#" xmlns:dc="http://purl.org/dc/elements/1.1/" xmlns:rdf="http://www.w3.org/1999/02/22-rdf-syntax-ns#">
   <cc:Work>
    <dc:type rdf:resource="http://purl.org/dc/dcmitype/StillImage"/>
    <dc:date>2021-10-26T12:50:47.263442</dc:date>
    <dc:format>image/svg+xml</dc:format>
    <dc:creator>
     <cc:Agent>
      <dc:title>Matplotlib v3.4.2, https://matplotlib.org/</dc:title>
     </cc:Agent>
    </dc:creator>
   </cc:Work>
  </rdf:RDF>
 </metadata>
 <defs>
  <style type="text/css">*{stroke-linecap:butt;stroke-linejoin:round;}</style>
 </defs>
 <g id="figure_1">
  <g id="patch_1">
   <path d="M 0 345.6 
L 691.2 345.6 
L 691.2 0 
L 0 0 
z
" style="fill:#ffffff;"/>
  </g>
  <g id="axes_1">
   <g id="patch_2">
    <path d="M 44.05 304.8 
L 669.15 304.8 
L 669.15 27.8 
L 44.05 27.8 
z
" style="fill:#eaeaf2;"/>
   </g>
   <g id="matplotlib.axis_1">
    <g id="xtick_1">
     <g id="line2d_1">
      <path clip-path="url(#p33fdb6e43a)" d="M 83.301828 304.8 
L 83.301828 27.8 
" style="fill:none;stroke:#ffffff;stroke-linecap:round;"/>
     </g>
     <g id="line2d_2"/>
     <g id="text_1">
      <!-- 2000 -->
      <g style="fill:#262626;" transform="translate(72.179953 318.957812)scale(0.1 -0.1)">
       <defs>
        <path d="M 3222 541 
L 3222 0 
L 194 0 
Q 188 203 259 391 
Q 375 700 629 1000 
Q 884 1300 1366 1694 
Q 2113 2306 2375 2664 
Q 2638 3022 2638 3341 
Q 2638 3675 2398 3904 
Q 2159 4134 1775 4134 
Q 1369 4134 1125 3890 
Q 881 3647 878 3216 
L 300 3275 
Q 359 3922 746 4261 
Q 1134 4600 1788 4600 
Q 2447 4600 2831 4234 
Q 3216 3869 3216 3328 
Q 3216 3053 3103 2787 
Q 2991 2522 2730 2228 
Q 2469 1934 1863 1422 
Q 1356 997 1212 845 
Q 1069 694 975 541 
L 3222 541 
z
" id="ArialMT-32" transform="scale(0.015625)"/>
        <path d="M 266 2259 
Q 266 3072 433 3567 
Q 600 4063 929 4331 
Q 1259 4600 1759 4600 
Q 2128 4600 2406 4451 
Q 2684 4303 2865 4023 
Q 3047 3744 3150 3342 
Q 3253 2941 3253 2259 
Q 3253 1453 3087 958 
Q 2922 463 2592 192 
Q 2263 -78 1759 -78 
Q 1097 -78 719 397 
Q 266 969 266 2259 
z
M 844 2259 
Q 844 1131 1108 757 
Q 1372 384 1759 384 
Q 2147 384 2411 759 
Q 2675 1134 2675 2259 
Q 2675 3391 2411 3762 
Q 2147 4134 1753 4134 
Q 1366 4134 1134 3806 
Q 844 3388 844 2259 
z
" id="ArialMT-30" transform="scale(0.015625)"/>
       </defs>
       <use xlink:href="#ArialMT-32"/>
       <use x="55.615234" xlink:href="#ArialMT-30"/>
       <use x="111.230469" xlink:href="#ArialMT-30"/>
       <use x="166.845703" xlink:href="#ArialMT-30"/>
      </g>
     </g>
    </g>
    <g id="xtick_2">
     <g id="line2d_3">
      <path clip-path="url(#p33fdb6e43a)" d="M 141.886645 304.8 
L 141.886645 27.8 
" style="fill:none;stroke:#ffffff;stroke-linecap:round;"/>
     </g>
     <g id="line2d_4"/>
     <g id="text_2">
      <!-- 2002 -->
      <g style="fill:#262626;" transform="translate(130.76477 318.957812)scale(0.1 -0.1)">
       <use xlink:href="#ArialMT-32"/>
       <use x="55.615234" xlink:href="#ArialMT-30"/>
       <use x="111.230469" xlink:href="#ArialMT-30"/>
       <use x="166.845703" xlink:href="#ArialMT-32"/>
      </g>
     </g>
    </g>
    <g id="xtick_3">
     <g id="line2d_5">
      <path clip-path="url(#p33fdb6e43a)" d="M 200.471462 304.8 
L 200.471462 27.8 
" style="fill:none;stroke:#ffffff;stroke-linecap:round;"/>
     </g>
     <g id="line2d_6"/>
     <g id="text_3">
      <!-- 2004 -->
      <g style="fill:#262626;" transform="translate(189.349587 318.957812)scale(0.1 -0.1)">
       <defs>
        <path d="M 2069 0 
L 2069 1097 
L 81 1097 
L 81 1613 
L 2172 4581 
L 2631 4581 
L 2631 1613 
L 3250 1613 
L 3250 1097 
L 2631 1097 
L 2631 0 
L 2069 0 
z
M 2069 1613 
L 2069 3678 
L 634 1613 
L 2069 1613 
z
" id="ArialMT-34" transform="scale(0.015625)"/>
       </defs>
       <use xlink:href="#ArialMT-32"/>
       <use x="55.615234" xlink:href="#ArialMT-30"/>
       <use x="111.230469" xlink:href="#ArialMT-30"/>
       <use x="166.845703" xlink:href="#ArialMT-34"/>
      </g>
     </g>
    </g>
    <g id="xtick_4">
     <g id="line2d_7">
      <path clip-path="url(#p33fdb6e43a)" d="M 259.056279 304.8 
L 259.056279 27.8 
" style="fill:none;stroke:#ffffff;stroke-linecap:round;"/>
     </g>
     <g id="line2d_8"/>
     <g id="text_4">
      <!-- 2006 -->
      <g style="fill:#262626;" transform="translate(247.934404 318.957812)scale(0.1 -0.1)">
       <defs>
        <path d="M 3184 3459 
L 2625 3416 
Q 2550 3747 2413 3897 
Q 2184 4138 1850 4138 
Q 1581 4138 1378 3988 
Q 1113 3794 959 3422 
Q 806 3050 800 2363 
Q 1003 2672 1297 2822 
Q 1591 2972 1913 2972 
Q 2475 2972 2870 2558 
Q 3266 2144 3266 1488 
Q 3266 1056 3080 686 
Q 2894 316 2569 119 
Q 2244 -78 1831 -78 
Q 1128 -78 684 439 
Q 241 956 241 2144 
Q 241 3472 731 4075 
Q 1159 4600 1884 4600 
Q 2425 4600 2770 4297 
Q 3116 3994 3184 3459 
z
M 888 1484 
Q 888 1194 1011 928 
Q 1134 663 1356 523 
Q 1578 384 1822 384 
Q 2178 384 2434 671 
Q 2691 959 2691 1453 
Q 2691 1928 2437 2201 
Q 2184 2475 1800 2475 
Q 1419 2475 1153 2201 
Q 888 1928 888 1484 
z
" id="ArialMT-36" transform="scale(0.015625)"/>
       </defs>
       <use xlink:href="#ArialMT-32"/>
       <use x="55.615234" xlink:href="#ArialMT-30"/>
       <use x="111.230469" xlink:href="#ArialMT-30"/>
       <use x="166.845703" xlink:href="#ArialMT-36"/>
      </g>
     </g>
    </g>
    <g id="xtick_5">
     <g id="line2d_9">
      <path clip-path="url(#p33fdb6e43a)" d="M 317.641097 304.8 
L 317.641097 27.8 
" style="fill:none;stroke:#ffffff;stroke-linecap:round;"/>
     </g>
     <g id="line2d_10"/>
     <g id="text_5">
      <!-- 2008 -->
      <g style="fill:#262626;" transform="translate(306.519222 318.957812)scale(0.1 -0.1)">
       <defs>
        <path d="M 1131 2484 
Q 781 2613 612 2850 
Q 444 3088 444 3419 
Q 444 3919 803 4259 
Q 1163 4600 1759 4600 
Q 2359 4600 2725 4251 
Q 3091 3903 3091 3403 
Q 3091 3084 2923 2848 
Q 2756 2613 2416 2484 
Q 2838 2347 3058 2040 
Q 3278 1734 3278 1309 
Q 3278 722 2862 322 
Q 2447 -78 1769 -78 
Q 1091 -78 675 323 
Q 259 725 259 1325 
Q 259 1772 486 2073 
Q 713 2375 1131 2484 
z
M 1019 3438 
Q 1019 3113 1228 2906 
Q 1438 2700 1772 2700 
Q 2097 2700 2305 2904 
Q 2513 3109 2513 3406 
Q 2513 3716 2298 3927 
Q 2084 4138 1766 4138 
Q 1444 4138 1231 3931 
Q 1019 3725 1019 3438 
z
M 838 1322 
Q 838 1081 952 856 
Q 1066 631 1291 507 
Q 1516 384 1775 384 
Q 2178 384 2440 643 
Q 2703 903 2703 1303 
Q 2703 1709 2433 1975 
Q 2163 2241 1756 2241 
Q 1359 2241 1098 1978 
Q 838 1716 838 1322 
z
" id="ArialMT-38" transform="scale(0.015625)"/>
       </defs>
       <use xlink:href="#ArialMT-32"/>
       <use x="55.615234" xlink:href="#ArialMT-30"/>
       <use x="111.230469" xlink:href="#ArialMT-30"/>
       <use x="166.845703" xlink:href="#ArialMT-38"/>
      </g>
     </g>
    </g>
    <g id="xtick_6">
     <g id="line2d_11">
      <path clip-path="url(#p33fdb6e43a)" d="M 376.225914 304.8 
L 376.225914 27.8 
" style="fill:none;stroke:#ffffff;stroke-linecap:round;"/>
     </g>
     <g id="line2d_12"/>
     <g id="text_6">
      <!-- 2010 -->
      <g style="fill:#262626;" transform="translate(365.104039 318.957812)scale(0.1 -0.1)">
       <defs>
        <path d="M 2384 0 
L 1822 0 
L 1822 3584 
Q 1619 3391 1289 3197 
Q 959 3003 697 2906 
L 697 3450 
Q 1169 3672 1522 3987 
Q 1875 4303 2022 4600 
L 2384 4600 
L 2384 0 
z
" id="ArialMT-31" transform="scale(0.015625)"/>
       </defs>
       <use xlink:href="#ArialMT-32"/>
       <use x="55.615234" xlink:href="#ArialMT-30"/>
       <use x="111.230469" xlink:href="#ArialMT-31"/>
       <use x="166.845703" xlink:href="#ArialMT-30"/>
      </g>
     </g>
    </g>
    <g id="xtick_7">
     <g id="line2d_13">
      <path clip-path="url(#p33fdb6e43a)" d="M 434.810731 304.8 
L 434.810731 27.8 
" style="fill:none;stroke:#ffffff;stroke-linecap:round;"/>
     </g>
     <g id="line2d_14"/>
     <g id="text_7">
      <!-- 2012 -->
      <g style="fill:#262626;" transform="translate(423.688856 318.957812)scale(0.1 -0.1)">
       <use xlink:href="#ArialMT-32"/>
       <use x="55.615234" xlink:href="#ArialMT-30"/>
       <use x="111.230469" xlink:href="#ArialMT-31"/>
       <use x="166.845703" xlink:href="#ArialMT-32"/>
      </g>
     </g>
    </g>
    <g id="xtick_8">
     <g id="line2d_15">
      <path clip-path="url(#p33fdb6e43a)" d="M 493.395548 304.8 
L 493.395548 27.8 
" style="fill:none;stroke:#ffffff;stroke-linecap:round;"/>
     </g>
     <g id="line2d_16"/>
     <g id="text_8">
      <!-- 2014 -->
      <g style="fill:#262626;" transform="translate(482.273673 318.957812)scale(0.1 -0.1)">
       <use xlink:href="#ArialMT-32"/>
       <use x="55.615234" xlink:href="#ArialMT-30"/>
       <use x="111.230469" xlink:href="#ArialMT-31"/>
       <use x="166.845703" xlink:href="#ArialMT-34"/>
      </g>
     </g>
    </g>
    <g id="xtick_9">
     <g id="line2d_17">
      <path clip-path="url(#p33fdb6e43a)" d="M 551.980366 304.8 
L 551.980366 27.8 
" style="fill:none;stroke:#ffffff;stroke-linecap:round;"/>
     </g>
     <g id="line2d_18"/>
     <g id="text_9">
      <!-- 2016 -->
      <g style="fill:#262626;" transform="translate(540.858491 318.957812)scale(0.1 -0.1)">
       <use xlink:href="#ArialMT-32"/>
       <use x="55.615234" xlink:href="#ArialMT-30"/>
       <use x="111.230469" xlink:href="#ArialMT-31"/>
       <use x="166.845703" xlink:href="#ArialMT-36"/>
      </g>
     </g>
    </g>
    <g id="xtick_10">
     <g id="line2d_19">
      <path clip-path="url(#p33fdb6e43a)" d="M 610.565183 304.8 
L 610.565183 27.8 
" style="fill:none;stroke:#ffffff;stroke-linecap:round;"/>
     </g>
     <g id="line2d_20"/>
     <g id="text_10">
      <!-- 2018 -->
      <g style="fill:#262626;" transform="translate(599.443308 318.957812)scale(0.1 -0.1)">
       <use xlink:href="#ArialMT-32"/>
       <use x="55.615234" xlink:href="#ArialMT-30"/>
       <use x="111.230469" xlink:href="#ArialMT-31"/>
       <use x="166.845703" xlink:href="#ArialMT-38"/>
      </g>
     </g>
    </g>
    <g id="xtick_11">
     <g id="line2d_21">
      <path clip-path="url(#p33fdb6e43a)" d="M 669.15 304.8 
L 669.15 27.8 
" style="fill:none;stroke:#ffffff;stroke-linecap:round;"/>
     </g>
     <g id="line2d_22"/>
     <g id="text_11">
      <!-- 2020 -->
      <g style="fill:#262626;" transform="translate(658.028125 318.957812)scale(0.1 -0.1)">
       <use xlink:href="#ArialMT-32"/>
       <use x="55.615234" xlink:href="#ArialMT-30"/>
       <use x="111.230469" xlink:href="#ArialMT-32"/>
       <use x="166.845703" xlink:href="#ArialMT-30"/>
      </g>
     </g>
    </g>
    <g id="text_12">
     <!-- Year -->
     <g style="fill:#262626;" transform="translate(345.484844 332.818906)scale(0.11 -0.11)">
      <defs>
       <path d="M 1784 0 
L 1784 1941 
L 19 4581 
L 756 4581 
L 1659 3200 
Q 1909 2813 2125 2425 
Q 2331 2784 2625 3234 
L 3513 4581 
L 4219 4581 
L 2391 1941 
L 2391 0 
L 1784 0 
z
" id="ArialMT-59" transform="scale(0.015625)"/>
       <path d="M 2694 1069 
L 3275 997 
Q 3138 488 2766 206 
Q 2394 -75 1816 -75 
Q 1088 -75 661 373 
Q 234 822 234 1631 
Q 234 2469 665 2931 
Q 1097 3394 1784 3394 
Q 2450 3394 2872 2941 
Q 3294 2488 3294 1666 
Q 3294 1616 3291 1516 
L 816 1516 
Q 847 969 1125 678 
Q 1403 388 1819 388 
Q 2128 388 2347 550 
Q 2566 713 2694 1069 
z
M 847 1978 
L 2700 1978 
Q 2663 2397 2488 2606 
Q 2219 2931 1791 2931 
Q 1403 2931 1139 2672 
Q 875 2413 847 1978 
z
" id="ArialMT-65" transform="scale(0.015625)"/>
       <path d="M 2588 409 
Q 2275 144 1986 34 
Q 1697 -75 1366 -75 
Q 819 -75 525 192 
Q 231 459 231 875 
Q 231 1119 342 1320 
Q 453 1522 633 1644 
Q 813 1766 1038 1828 
Q 1203 1872 1538 1913 
Q 2219 1994 2541 2106 
Q 2544 2222 2544 2253 
Q 2544 2597 2384 2738 
Q 2169 2928 1744 2928 
Q 1347 2928 1158 2789 
Q 969 2650 878 2297 
L 328 2372 
Q 403 2725 575 2942 
Q 747 3159 1072 3276 
Q 1397 3394 1825 3394 
Q 2250 3394 2515 3294 
Q 2781 3194 2906 3042 
Q 3031 2891 3081 2659 
Q 3109 2516 3109 2141 
L 3109 1391 
Q 3109 606 3145 398 
Q 3181 191 3288 0 
L 2700 0 
Q 2613 175 2588 409 
z
M 2541 1666 
Q 2234 1541 1622 1453 
Q 1275 1403 1131 1340 
Q 988 1278 909 1158 
Q 831 1038 831 891 
Q 831 666 1001 516 
Q 1172 366 1500 366 
Q 1825 366 2078 508 
Q 2331 650 2450 897 
Q 2541 1088 2541 1459 
L 2541 1666 
z
" id="ArialMT-61" transform="scale(0.015625)"/>
       <path d="M 416 0 
L 416 3319 
L 922 3319 
L 922 2816 
Q 1116 3169 1280 3281 
Q 1444 3394 1641 3394 
Q 1925 3394 2219 3213 
L 2025 2691 
Q 1819 2813 1613 2813 
Q 1428 2813 1281 2702 
Q 1134 2591 1072 2394 
Q 978 2094 978 1738 
L 978 0 
L 416 0 
z
" id="ArialMT-72" transform="scale(0.015625)"/>
      </defs>
      <use xlink:href="#ArialMT-59"/>
      <use x="57.574219" xlink:href="#ArialMT-65"/>
      <use x="113.189453" xlink:href="#ArialMT-61"/>
      <use x="168.804688" xlink:href="#ArialMT-72"/>
     </g>
    </g>
   </g>
   <g id="matplotlib.axis_2">
    <g id="ytick_1">
     <g id="line2d_23">
      <path clip-path="url(#p33fdb6e43a)" d="M 44.05 304.8 
L 669.15 304.8 
" style="fill:none;stroke:#ffffff;stroke-linecap:round;"/>
     </g>
     <g id="line2d_24"/>
     <g id="text_13">
      <!-- 0 -->
      <g style="fill:#262626;" transform="translate(31.489062 308.378906)scale(0.1 -0.1)">
       <use xlink:href="#ArialMT-30"/>
      </g>
     </g>
    </g>
    <g id="ytick_2">
     <g id="line2d_25">
      <path clip-path="url(#p33fdb6e43a)" d="M 44.05 271.096985 
L 669.15 271.096985 
" style="fill:none;stroke:#ffffff;stroke-linecap:round;"/>
     </g>
     <g id="line2d_26"/>
     <g id="text_14">
      <!-- 2 -->
      <g style="fill:#262626;" transform="translate(31.489062 274.675891)scale(0.1 -0.1)">
       <use xlink:href="#ArialMT-32"/>
      </g>
     </g>
    </g>
    <g id="ytick_3">
     <g id="line2d_27">
      <path clip-path="url(#p33fdb6e43a)" d="M 44.05 237.39397 
L 669.15 237.39397 
" style="fill:none;stroke:#ffffff;stroke-linecap:round;"/>
     </g>
     <g id="line2d_28"/>
     <g id="text_15">
      <!-- 4 -->
      <g style="fill:#262626;" transform="translate(31.489062 240.972876)scale(0.1 -0.1)">
       <use xlink:href="#ArialMT-34"/>
      </g>
     </g>
    </g>
    <g id="ytick_4">
     <g id="line2d_29">
      <path clip-path="url(#p33fdb6e43a)" d="M 44.05 203.690955 
L 669.15 203.690955 
" style="fill:none;stroke:#ffffff;stroke-linecap:round;"/>
     </g>
     <g id="line2d_30"/>
     <g id="text_16">
      <!-- 6 -->
      <g style="fill:#262626;" transform="translate(31.489062 207.269861)scale(0.1 -0.1)">
       <use xlink:href="#ArialMT-36"/>
      </g>
     </g>
    </g>
    <g id="ytick_5">
     <g id="line2d_31">
      <path clip-path="url(#p33fdb6e43a)" d="M 44.05 169.98794 
L 669.15 169.98794 
" style="fill:none;stroke:#ffffff;stroke-linecap:round;"/>
     </g>
     <g id="line2d_32"/>
     <g id="text_17">
      <!-- 8 -->
      <g style="fill:#262626;" transform="translate(31.489062 173.566846)scale(0.1 -0.1)">
       <use xlink:href="#ArialMT-38"/>
      </g>
     </g>
    </g>
    <g id="ytick_6">
     <g id="line2d_33">
      <path clip-path="url(#p33fdb6e43a)" d="M 44.05 136.284925 
L 669.15 136.284925 
" style="fill:none;stroke:#ffffff;stroke-linecap:round;"/>
     </g>
     <g id="line2d_34"/>
     <g id="text_18">
      <!-- 10 -->
      <g style="fill:#262626;" transform="translate(25.928125 139.863831)scale(0.1 -0.1)">
       <use xlink:href="#ArialMT-31"/>
       <use x="55.615234" xlink:href="#ArialMT-30"/>
      </g>
     </g>
    </g>
    <g id="ytick_7">
     <g id="line2d_35">
      <path clip-path="url(#p33fdb6e43a)" d="M 44.05 102.58191 
L 669.15 102.58191 
" style="fill:none;stroke:#ffffff;stroke-linecap:round;"/>
     </g>
     <g id="line2d_36"/>
     <g id="text_19">
      <!-- 12 -->
      <g style="fill:#262626;" transform="translate(25.928125 106.160817)scale(0.1 -0.1)">
       <use xlink:href="#ArialMT-31"/>
       <use x="55.615234" xlink:href="#ArialMT-32"/>
      </g>
     </g>
    </g>
    <g id="ytick_8">
     <g id="line2d_37">
      <path clip-path="url(#p33fdb6e43a)" d="M 44.05 68.878895 
L 669.15 68.878895 
" style="fill:none;stroke:#ffffff;stroke-linecap:round;"/>
     </g>
     <g id="line2d_38"/>
     <g id="text_20">
      <!-- 14 -->
      <g style="fill:#262626;" transform="translate(25.928125 72.457802)scale(0.1 -0.1)">
       <use xlink:href="#ArialMT-31"/>
       <use x="55.615234" xlink:href="#ArialMT-34"/>
      </g>
     </g>
    </g>
    <g id="ytick_9">
     <g id="line2d_39">
      <path clip-path="url(#p33fdb6e43a)" d="M 44.05 35.17588 
L 669.15 35.17588 
" style="fill:none;stroke:#ffffff;stroke-linecap:round;"/>
     </g>
     <g id="line2d_40"/>
     <g id="text_21">
      <!-- 16 -->
      <g style="fill:#262626;" transform="translate(25.928125 38.754787)scale(0.1 -0.1)">
       <use xlink:href="#ArialMT-31"/>
       <use x="55.615234" xlink:href="#ArialMT-36"/>
      </g>
     </g>
    </g>
    <g id="text_22">
     <!-- Value [$M] -->
     <g style="fill:#262626;" transform="translate(19.741875 192.184375)rotate(-90)scale(0.11 -0.11)">
      <defs>
       <path d="M 1803 0 
L 28 4581 
L 684 4581 
L 1875 1253 
Q 2019 853 2116 503 
Q 2222 878 2363 1253 
L 3600 4581 
L 4219 4581 
L 2425 0 
L 1803 0 
z
" id="ArialMT-56" transform="scale(0.015625)"/>
       <path d="M 409 0 
L 409 4581 
L 972 4581 
L 972 0 
L 409 0 
z
" id="ArialMT-6c" transform="scale(0.015625)"/>
       <path d="M 2597 0 
L 2597 488 
Q 2209 -75 1544 -75 
Q 1250 -75 995 37 
Q 741 150 617 320 
Q 494 491 444 738 
Q 409 903 409 1263 
L 409 3319 
L 972 3319 
L 972 1478 
Q 972 1038 1006 884 
Q 1059 663 1231 536 
Q 1403 409 1656 409 
Q 1909 409 2131 539 
Q 2353 669 2445 892 
Q 2538 1116 2538 1541 
L 2538 3319 
L 3100 3319 
L 3100 0 
L 2597 0 
z
" id="ArialMT-75" transform="scale(0.015625)"/>
       <path id="ArialMT-20" transform="scale(0.015625)"/>
       <path d="M 434 -1272 
L 434 4581 
L 1675 4581 
L 1675 4116 
L 997 4116 
L 997 -806 
L 1675 -806 
L 1675 -1272 
L 434 -1272 
z
" id="ArialMT-5b" transform="scale(0.015625)"/>
       <path d="M 1594 -659 
L 1594 -97 
Q 1172 -44 908 92 
Q 644 228 451 531 
Q 259 834 228 1272 
L 794 1378 
Q 859 925 1025 713 
Q 1263 413 1594 378 
L 1594 2169 
Q 1247 2234 884 2438 
Q 616 2588 470 2853 
Q 325 3119 325 3456 
Q 325 4056 750 4428 
Q 1034 4678 1594 4734 
L 1594 5003 
L 1925 5003 
L 1925 4734 
Q 2416 4688 2703 4447 
Q 3072 4141 3147 3606 
L 2566 3519 
Q 2516 3850 2358 4026 
Q 2200 4203 1925 4259 
L 1925 2638 
Q 2350 2531 2488 2472 
Q 2750 2356 2915 2190 
Q 3081 2025 3170 1797 
Q 3259 1569 3259 1303 
Q 3259 719 2887 328 
Q 2516 -63 1925 -91 
L 1925 -659 
L 1594 -659 
z
M 1594 4266 
Q 1266 4216 1077 4003 
Q 888 3791 888 3500 
Q 888 3213 1048 3019 
Q 1209 2825 1594 2709 
L 1594 4266 
z
M 1925 378 
Q 2253 419 2467 662 
Q 2681 906 2681 1266 
Q 2681 1572 2529 1758 
Q 2378 1944 1925 2091 
L 1925 378 
z
" id="ArialMT-24" transform="scale(0.015625)"/>
       <path d="M 475 0 
L 475 4581 
L 1388 4581 
L 2472 1338 
Q 2622 884 2691 659 
Q 2769 909 2934 1394 
L 4031 4581 
L 4847 4581 
L 4847 0 
L 4263 0 
L 4263 3834 
L 2931 0 
L 2384 0 
L 1059 3900 
L 1059 0 
L 475 0 
z
" id="ArialMT-4d" transform="scale(0.015625)"/>
       <path d="M 1363 -1272 
L 122 -1272 
L 122 -806 
L 800 -806 
L 800 4116 
L 122 4116 
L 122 4581 
L 1363 4581 
L 1363 -1272 
z
" id="ArialMT-5d" transform="scale(0.015625)"/>
      </defs>
      <use xlink:href="#ArialMT-56"/>
      <use x="59.324219" xlink:href="#ArialMT-61"/>
      <use x="114.939453" xlink:href="#ArialMT-6c"/>
      <use x="137.15625" xlink:href="#ArialMT-75"/>
      <use x="192.771484" xlink:href="#ArialMT-65"/>
      <use x="248.386719" xlink:href="#ArialMT-20"/>
      <use x="276.169922" xlink:href="#ArialMT-5b"/>
      <use x="303.953125" xlink:href="#ArialMT-24"/>
      <use x="359.568359" xlink:href="#ArialMT-4d"/>
      <use x="442.869141" xlink:href="#ArialMT-5d"/>
     </g>
    </g>
   </g>
   <g id="patch_3">
    <path clip-path="url(#p33fdb6e43a)" d="M 71.584864 304.8 
L 95.018791 304.8 
L 95.018791 296.11298 
L 71.584864 296.11298 
z
" style="fill:#1f77b4;opacity:0.7;"/>
   </g>
   <g id="patch_4">
    <path clip-path="url(#p33fdb6e43a)" d="M 100.877273 304.8 
L 124.3112 304.8 
L 124.3112 268.699218 
L 100.877273 268.699218 
z
" style="fill:#1f77b4;opacity:0.7;"/>
   </g>
   <g id="patch_5">
    <path clip-path="url(#p33fdb6e43a)" d="M 130.169681 304.8 
L 153.603608 304.8 
L 153.603608 291.71017 
L 130.169681 291.71017 
z
" style="fill:#1f77b4;opacity:0.7;"/>
   </g>
   <g id="patch_6">
    <path clip-path="url(#p33fdb6e43a)" d="M 159.46209 304.8 
L 182.896017 304.8 
L 182.896017 266.909925 
L 159.46209 266.909925 
z
" style="fill:#1f77b4;opacity:0.7;"/>
   </g>
   <g id="patch_7">
    <path clip-path="url(#p33fdb6e43a)" d="M 188.754499 304.8 
L 212.188425 304.8 
L 212.188425 268.288479 
L 188.754499 268.288479 
z
" style="fill:#1f77b4;opacity:0.7;"/>
   </g>
   <g id="patch_8">
    <path clip-path="url(#p33fdb6e43a)" d="M 218.046907 304.8 
L 241.480834 304.8 
L 241.480834 275.148172 
L 218.046907 275.148172 
z
" style="fill:#1f77b4;opacity:0.7;"/>
   </g>
   <g id="patch_9">
    <path clip-path="url(#p33fdb6e43a)" d="M 247.339316 304.8 
L 270.773243 304.8 
L 270.773243 278.281221 
L 247.339316 278.281221 
z
" style="fill:#1f77b4;opacity:0.7;"/>
   </g>
   <g id="patch_10">
    <path clip-path="url(#p33fdb6e43a)" d="M 276.631724 304.8 
L 300.065651 304.8 
L 300.065651 282.858073 
L 276.631724 282.858073 
z
" style="fill:#1f77b4;opacity:0.7;"/>
   </g>
   <g id="patch_11">
    <path clip-path="url(#p33fdb6e43a)" d="M 305.924133 304.8 
L 329.35806 304.8 
L 329.35806 275.306744 
L 305.924133 275.306744 
z
" style="fill:#1f77b4;opacity:0.7;"/>
   </g>
   <g id="patch_12">
    <path clip-path="url(#p33fdb6e43a)" d="M 335.216542 304.8 
L 358.650469 304.8 
L 358.650469 287.437437 
L 335.216542 287.437437 
z
" style="fill:#1f77b4;opacity:0.7;"/>
   </g>
   <g id="patch_13">
    <path clip-path="url(#p33fdb6e43a)" d="M 364.50895 304.8 
L 387.942877 304.8 
L 387.942877 294.428335 
L 364.50895 294.428335 
z
" style="fill:#1f77b4;opacity:0.7;"/>
   </g>
   <g id="patch_14">
    <path clip-path="url(#p33fdb6e43a)" d="M 393.801359 304.8 
L 417.235286 304.8 
L 417.235286 298.432961 
L 393.801359 298.432961 
z
" style="fill:#1f77b4;opacity:0.7;"/>
   </g>
   <g id="patch_15">
    <path clip-path="url(#p33fdb6e43a)" d="M 423.093768 304.8 
L 446.527694 304.8 
L 446.527694 297.614955 
L 423.093768 297.614955 
z
" style="fill:#1f77b4;opacity:0.7;"/>
   </g>
   <g id="patch_16">
    <path clip-path="url(#p33fdb6e43a)" d="M 452.386176 304.8 
L 475.820103 304.8 
L 475.820103 294.139551 
L 452.386176 294.139551 
z
" style="fill:#1f77b4;opacity:0.7;"/>
   </g>
   <g id="patch_17">
    <path clip-path="url(#p33fdb6e43a)" d="M 481.678585 304.8 
L 505.112512 304.8 
L 505.112512 296.211815 
L 481.678585 296.211815 
z
" style="fill:#1f77b4;opacity:0.7;"/>
   </g>
   <g id="patch_18">
    <path clip-path="url(#p33fdb6e43a)" d="M 510.970993 304.8 
L 534.40492 304.8 
L 534.40492 295.89322 
L 510.970993 295.89322 
z
" style="fill:#1f77b4;opacity:0.7;"/>
   </g>
   <g id="patch_19">
    <path clip-path="url(#p33fdb6e43a)" d="M 540.263402 304.8 
L 563.697329 304.8 
L 563.697329 296.097915 
L 540.263402 296.097915 
z
" style="fill:#1f77b4;opacity:0.7;"/>
   </g>
   <g id="patch_20">
    <path clip-path="url(#p33fdb6e43a)" d="M 569.555811 304.8 
L 592.989738 304.8 
L 592.989738 296.571864 
L 569.555811 296.571864 
z
" style="fill:#1f77b4;opacity:0.7;"/>
   </g>
   <g id="patch_21">
    <path clip-path="url(#p33fdb6e43a)" d="M 598.848219 304.8 
L 622.282146 304.8 
L 622.282146 295.411621 
L 598.848219 295.411621 
z
" style="fill:#1f77b4;opacity:0.7;"/>
   </g>
   <g id="patch_22">
    <path clip-path="url(#p33fdb6e43a)" d="M 71.584864 296.11298 
L 95.018791 296.11298 
L 95.018791 296.11298 
L 71.584864 296.11298 
z
" style="fill:#aec7e8;opacity:0.7;"/>
   </g>
   <g id="patch_23">
    <path clip-path="url(#p33fdb6e43a)" d="M 100.877273 268.699218 
L 124.3112 268.699218 
L 124.3112 268.699218 
L 100.877273 268.699218 
z
" style="fill:#aec7e8;opacity:0.7;"/>
   </g>
   <g id="patch_24">
    <path clip-path="url(#p33fdb6e43a)" d="M 130.169681 291.71017 
L 153.603608 291.71017 
L 153.603608 291.71017 
L 130.169681 291.71017 
z
" style="fill:#aec7e8;opacity:0.7;"/>
   </g>
   <g id="patch_25">
    <path clip-path="url(#p33fdb6e43a)" d="M 159.46209 266.909925 
L 182.896017 266.909925 
L 182.896017 266.909925 
L 159.46209 266.909925 
z
" style="fill:#aec7e8;opacity:0.7;"/>
   </g>
   <g id="patch_26">
    <path clip-path="url(#p33fdb6e43a)" d="M 188.754499 268.288479 
L 212.188425 268.288479 
L 212.188425 268.288479 
L 188.754499 268.288479 
z
" style="fill:#aec7e8;opacity:0.7;"/>
   </g>
   <g id="patch_27">
    <path clip-path="url(#p33fdb6e43a)" d="M 218.046907 275.148172 
L 241.480834 275.148172 
L 241.480834 275.148172 
L 218.046907 275.148172 
z
" style="fill:#aec7e8;opacity:0.7;"/>
   </g>
   <g id="patch_28">
    <path clip-path="url(#p33fdb6e43a)" d="M 247.339316 278.281221 
L 270.773243 278.281221 
L 270.773243 278.281221 
L 247.339316 278.281221 
z
" style="fill:#aec7e8;opacity:0.7;"/>
   </g>
   <g id="patch_29">
    <path clip-path="url(#p33fdb6e43a)" d="M 276.631724 282.858073 
L 300.065651 282.858073 
L 300.065651 282.858073 
L 276.631724 282.858073 
z
" style="fill:#aec7e8;opacity:0.7;"/>
   </g>
   <g id="patch_30">
    <path clip-path="url(#p33fdb6e43a)" d="M 305.924133 275.306744 
L 329.35806 275.306744 
L 329.35806 275.306744 
L 305.924133 275.306744 
z
" style="fill:#aec7e8;opacity:0.7;"/>
   </g>
   <g id="patch_31">
    <path clip-path="url(#p33fdb6e43a)" d="M 335.216542 287.437437 
L 358.650469 287.437437 
L 358.650469 287.437437 
L 335.216542 287.437437 
z
" style="fill:#aec7e8;opacity:0.7;"/>
   </g>
   <g id="patch_32">
    <path clip-path="url(#p33fdb6e43a)" d="M 364.50895 294.428335 
L 387.942877 294.428335 
L 387.942877 294.428335 
L 364.50895 294.428335 
z
" style="fill:#aec7e8;opacity:0.7;"/>
   </g>
   <g id="patch_33">
    <path clip-path="url(#p33fdb6e43a)" d="M 393.801359 298.432961 
L 417.235286 298.432961 
L 417.235286 298.432961 
L 393.801359 298.432961 
z
" style="fill:#aec7e8;opacity:0.7;"/>
   </g>
   <g id="patch_34">
    <path clip-path="url(#p33fdb6e43a)" d="M 423.093768 297.614955 
L 446.527694 297.614955 
L 446.527694 297.614955 
L 423.093768 297.614955 
z
" style="fill:#aec7e8;opacity:0.7;"/>
   </g>
   <g id="patch_35">
    <path clip-path="url(#p33fdb6e43a)" d="M 452.386176 294.139551 
L 475.820103 294.139551 
L 475.820103 294.139551 
L 452.386176 294.139551 
z
" style="fill:#aec7e8;opacity:0.7;"/>
   </g>
   <g id="patch_36">
    <path clip-path="url(#p33fdb6e43a)" d="M 481.678585 296.211815 
L 505.112512 296.211815 
L 505.112512 296.211815 
L 481.678585 296.211815 
z
" style="fill:#aec7e8;opacity:0.7;"/>
   </g>
   <g id="patch_37">
    <path clip-path="url(#p33fdb6e43a)" d="M 510.970993 295.89322 
L 534.40492 295.89322 
L 534.40492 295.89322 
L 510.970993 295.89322 
z
" style="fill:#aec7e8;opacity:0.7;"/>
   </g>
   <g id="patch_38">
    <path clip-path="url(#p33fdb6e43a)" d="M 540.263402 296.097915 
L 563.697329 296.097915 
L 563.697329 296.097915 
L 540.263402 296.097915 
z
" style="fill:#aec7e8;opacity:0.7;"/>
   </g>
   <g id="patch_39">
    <path clip-path="url(#p33fdb6e43a)" d="M 569.555811 296.571864 
L 592.989738 296.571864 
L 592.989738 296.571864 
L 569.555811 296.571864 
z
" style="fill:#aec7e8;opacity:0.7;"/>
   </g>
   <g id="patch_40">
    <path clip-path="url(#p33fdb6e43a)" d="M 598.848219 295.411621 
L 622.282146 295.411621 
L 622.282146 295.411621 
L 598.848219 295.411621 
z
" style="fill:#aec7e8;opacity:0.7;"/>
   </g>
   <g id="patch_41">
    <path clip-path="url(#p33fdb6e43a)" d="M 71.584864 296.11298 
L 95.018791 296.11298 
L 95.018791 188.203998 
L 71.584864 188.203998 
z
" style="fill:#ff7f0e;opacity:0.7;"/>
   </g>
   <g id="patch_42">
    <path clip-path="url(#p33fdb6e43a)" d="M 100.877273 268.699218 
L 124.3112 268.699218 
L 124.3112 198.709279 
L 100.877273 198.709279 
z
" style="fill:#ff7f0e;opacity:0.7;"/>
   </g>
   <g id="patch_43">
    <path clip-path="url(#p33fdb6e43a)" d="M 130.169681 291.71017 
L 153.603608 291.71017 
L 153.603608 212.611503 
L 130.169681 212.611503 
z
" style="fill:#ff7f0e;opacity:0.7;"/>
   </g>
   <g id="patch_44">
    <path clip-path="url(#p33fdb6e43a)" d="M 159.46209 266.909925 
L 182.896017 266.909925 
L 182.896017 191.761335 
L 159.46209 191.761335 
z
" style="fill:#ff7f0e;opacity:0.7;"/>
   </g>
   <g id="patch_45">
    <path clip-path="url(#p33fdb6e43a)" d="M 188.754499 268.288479 
L 212.188425 268.288479 
L 212.188425 210.158547 
L 188.754499 210.158547 
z
" style="fill:#ff7f0e;opacity:0.7;"/>
   </g>
   <g id="patch_46">
    <path clip-path="url(#p33fdb6e43a)" d="M 218.046907 275.148172 
L 241.480834 275.148172 
L 241.480834 224.830868 
L 218.046907 224.830868 
z
" style="fill:#ff7f0e;opacity:0.7;"/>
   </g>
   <g id="patch_47">
    <path clip-path="url(#p33fdb6e43a)" d="M 247.339316 278.281221 
L 270.773243 278.281221 
L 270.773243 235.05338 
L 247.339316 235.05338 
z
" style="fill:#ff7f0e;opacity:0.7;"/>
   </g>
   <g id="patch_48">
    <path clip-path="url(#p33fdb6e43a)" d="M 276.631724 282.858073 
L 300.065651 282.858073 
L 300.065651 242.09394 
L 276.631724 242.09394 
z
" style="fill:#ff7f0e;opacity:0.7;"/>
   </g>
   <g id="patch_49">
    <path clip-path="url(#p33fdb6e43a)" d="M 305.924133 275.306744 
L 329.35806 275.306744 
L 329.35806 245.871846 
L 305.924133 245.871846 
z
" style="fill:#ff7f0e;opacity:0.7;"/>
   </g>
   <g id="patch_50">
    <path clip-path="url(#p33fdb6e43a)" d="M 335.216542 287.437437 
L 358.650469 287.437437 
L 358.650469 261.010633 
L 335.216542 261.010633 
z
" style="fill:#ff7f0e;opacity:0.7;"/>
   </g>
   <g id="patch_51">
    <path clip-path="url(#p33fdb6e43a)" d="M 364.50895 294.428335 
L 387.942877 294.428335 
L 387.942877 271.104349 
L 364.50895 271.104349 
z
" style="fill:#ff7f0e;opacity:0.7;"/>
   </g>
   <g id="patch_52">
    <path clip-path="url(#p33fdb6e43a)" d="M 393.801359 298.432961 
L 417.235286 298.432961 
L 417.235286 276.364918 
L 393.801359 276.364918 
z
" style="fill:#ff7f0e;opacity:0.7;"/>
   </g>
   <g id="patch_53">
    <path clip-path="url(#p33fdb6e43a)" d="M 423.093768 297.614955 
L 446.527694 297.614955 
L 446.527694 276.511037 
L 423.093768 276.511037 
z
" style="fill:#ff7f0e;opacity:0.7;"/>
   </g>
   <g id="patch_54">
    <path clip-path="url(#p33fdb6e43a)" d="M 452.386176 294.139551 
L 475.820103 294.139551 
L 475.820103 273.035633 
L 452.386176 273.035633 
z
" style="fill:#ff7f0e;opacity:0.7;"/>
   </g>
   <g id="patch_55">
    <path clip-path="url(#p33fdb6e43a)" d="M 481.678585 296.211815 
L 505.112512 296.211815 
L 505.112512 278.210562 
L 481.678585 278.210562 
z
" style="fill:#ff7f0e;opacity:0.7;"/>
   </g>
   <g id="patch_56">
    <path clip-path="url(#p33fdb6e43a)" d="M 510.970993 295.89322 
L 534.40492 295.89322 
L 534.40492 283.711029 
L 510.970993 283.711029 
z
" style="fill:#ff7f0e;opacity:0.7;"/>
   </g>
   <g id="patch_57">
    <path clip-path="url(#p33fdb6e43a)" d="M 540.263402 296.097915 
L 563.697329 296.097915 
L 563.697329 283.463599 
L 540.263402 283.463599 
z
" style="fill:#ff7f0e;opacity:0.7;"/>
   </g>
   <g id="patch_58">
    <path clip-path="url(#p33fdb6e43a)" d="M 569.555811 296.571864 
L 592.989738 296.571864 
L 592.989738 287.178648 
L 569.555811 287.178648 
z
" style="fill:#ff7f0e;opacity:0.7;"/>
   </g>
   <g id="patch_59">
    <path clip-path="url(#p33fdb6e43a)" d="M 598.848219 295.411621 
L 622.282146 295.411621 
L 622.282146 295.411621 
L 598.848219 295.411621 
z
" style="fill:#ff7f0e;opacity:0.7;"/>
   </g>
   <g id="patch_60">
    <path clip-path="url(#p33fdb6e43a)" d="M 71.584864 188.203998 
L 95.018791 188.203998 
L 95.018791 188.119741 
L 71.584864 188.119741 
z
" style="fill:#ffbb78;opacity:0.7;"/>
   </g>
   <g id="patch_61">
    <path clip-path="url(#p33fdb6e43a)" d="M 100.877273 198.709279 
L 124.3112 198.709279 
L 124.3112 198.625021 
L 100.877273 198.625021 
z
" style="fill:#ffbb78;opacity:0.7;"/>
   </g>
   <g id="patch_62">
    <path clip-path="url(#p33fdb6e43a)" d="M 130.169681 212.611503 
L 153.603608 212.611503 
L 153.603608 212.527245 
L 130.169681 212.527245 
z
" style="fill:#ffbb78;opacity:0.7;"/>
   </g>
   <g id="patch_63">
    <path clip-path="url(#p33fdb6e43a)" d="M 159.46209 191.761335 
L 182.896017 191.761335 
L 182.896017 191.677077 
L 159.46209 191.677077 
z
" style="fill:#ffbb78;opacity:0.7;"/>
   </g>
   <g id="patch_64">
    <path clip-path="url(#p33fdb6e43a)" d="M 188.754499 210.158547 
L 212.188425 210.158547 
L 212.188425 210.074289 
L 188.754499 210.074289 
z
" style="fill:#ffbb78;opacity:0.7;"/>
   </g>
   <g id="patch_65">
    <path clip-path="url(#p33fdb6e43a)" d="M 218.046907 224.830868 
L 241.480834 224.830868 
L 241.480834 224.74661 
L 218.046907 224.74661 
z
" style="fill:#ffbb78;opacity:0.7;"/>
   </g>
   <g id="patch_66">
    <path clip-path="url(#p33fdb6e43a)" d="M 247.339316 235.05338 
L 270.773243 235.05338 
L 270.773243 234.969122 
L 247.339316 234.969122 
z
" style="fill:#ffbb78;opacity:0.7;"/>
   </g>
   <g id="patch_67">
    <path clip-path="url(#p33fdb6e43a)" d="M 276.631724 242.09394 
L 300.065651 242.09394 
L 300.065651 242.009682 
L 276.631724 242.009682 
z
" style="fill:#ffbb78;opacity:0.7;"/>
   </g>
   <g id="patch_68">
    <path clip-path="url(#p33fdb6e43a)" d="M 305.924133 245.871846 
L 329.35806 245.871846 
L 329.35806 245.787588 
L 305.924133 245.787588 
z
" style="fill:#ffbb78;opacity:0.7;"/>
   </g>
   <g id="patch_69">
    <path clip-path="url(#p33fdb6e43a)" d="M 335.216542 261.010633 
L 358.650469 261.010633 
L 358.650469 260.926376 
L 335.216542 260.926376 
z
" style="fill:#ffbb78;opacity:0.7;"/>
   </g>
   <g id="patch_70">
    <path clip-path="url(#p33fdb6e43a)" d="M 364.50895 271.104349 
L 387.942877 271.104349 
L 387.942877 271.020092 
L 364.50895 271.020092 
z
" style="fill:#ffbb78;opacity:0.7;"/>
   </g>
   <g id="patch_71">
    <path clip-path="url(#p33fdb6e43a)" d="M 393.801359 276.364918 
L 417.235286 276.364918 
L 417.235286 276.28066 
L 393.801359 276.28066 
z
" style="fill:#ffbb78;opacity:0.7;"/>
   </g>
   <g id="patch_72">
    <path clip-path="url(#p33fdb6e43a)" d="M 423.093768 276.511037 
L 446.527694 276.511037 
L 446.527694 276.42678 
L 423.093768 276.42678 
z
" style="fill:#ffbb78;opacity:0.7;"/>
   </g>
   <g id="patch_73">
    <path clip-path="url(#p33fdb6e43a)" d="M 452.386176 273.035633 
L 475.820103 273.035633 
L 475.820103 272.951375 
L 452.386176 272.951375 
z
" style="fill:#ffbb78;opacity:0.7;"/>
   </g>
   <g id="patch_74">
    <path clip-path="url(#p33fdb6e43a)" d="M 481.678585 278.210562 
L 505.112512 278.210562 
L 505.112512 278.126305 
L 481.678585 278.126305 
z
" style="fill:#ffbb78;opacity:0.7;"/>
   </g>
   <g id="patch_75">
    <path clip-path="url(#p33fdb6e43a)" d="M 510.970993 283.711029 
L 534.40492 283.711029 
L 534.40492 283.626772 
L 510.970993 283.626772 
z
" style="fill:#ffbb78;opacity:0.7;"/>
   </g>
   <g id="patch_76">
    <path clip-path="url(#p33fdb6e43a)" d="M 540.263402 283.463599 
L 563.697329 283.463599 
L 563.697329 283.379341 
L 540.263402 283.379341 
z
" style="fill:#ffbb78;opacity:0.7;"/>
   </g>
   <g id="patch_77">
    <path clip-path="url(#p33fdb6e43a)" d="M 569.555811 287.178648 
L 592.989738 287.178648 
L 592.989738 287.094391 
L 569.555811 287.094391 
z
" style="fill:#ffbb78;opacity:0.7;"/>
   </g>
   <g id="patch_78">
    <path clip-path="url(#p33fdb6e43a)" d="M 598.848219 295.411621 
L 622.282146 295.411621 
L 622.282146 295.327363 
L 598.848219 295.327363 
z
" style="fill:#ffbb78;opacity:0.7;"/>
   </g>
   <g id="patch_79">
    <path clip-path="url(#p33fdb6e43a)" d="M 71.584864 188.119741 
L 95.018791 188.119741 
L 95.018791 43.925705 
L 71.584864 43.925705 
z
" style="fill:#2ca02c;opacity:0.7;"/>
   </g>
   <g id="patch_80">
    <path clip-path="url(#p33fdb6e43a)" d="M 100.877273 198.625021 
L 124.3112 198.625021 
L 124.3112 59.510603 
L 100.877273 59.510603 
z
" style="fill:#2ca02c;opacity:0.7;"/>
   </g>
   <g id="patch_81">
    <path clip-path="url(#p33fdb6e43a)" d="M 130.169681 212.527245 
L 153.603608 212.527245 
L 153.603608 82.556977 
L 130.169681 82.556977 
z
" style="fill:#2ca02c;opacity:0.7;"/>
   </g>
   <g id="patch_82">
    <path clip-path="url(#p33fdb6e43a)" d="M 159.46209 191.677077 
L 182.896017 191.677077 
L 182.896017 99.081347 
L 159.46209 99.081347 
z
" style="fill:#2ca02c;opacity:0.7;"/>
   </g>
   <g id="patch_83">
    <path clip-path="url(#p33fdb6e43a)" d="M 188.754499 210.074289 
L 212.188425 210.074289 
L 212.188425 120.60544 
L 188.754499 120.60544 
z
" style="fill:#2ca02c;opacity:0.7;"/>
   </g>
   <g id="patch_84">
    <path clip-path="url(#p33fdb6e43a)" d="M 218.046907 224.74661 
L 241.480834 224.74661 
L 241.480834 133.865622 
L 218.046907 133.865622 
z
" style="fill:#2ca02c;opacity:0.7;"/>
   </g>
   <g id="patch_85">
    <path clip-path="url(#p33fdb6e43a)" d="M 247.339316 234.969122 
L 270.773243 234.969122 
L 270.773243 148.627121 
L 247.339316 148.627121 
z
" style="fill:#2ca02c;opacity:0.7;"/>
   </g>
   <g id="patch_86">
    <path clip-path="url(#p33fdb6e43a)" d="M 276.631724 242.009682 
L 300.065651 242.009682 
L 300.065651 155.163366 
L 276.631724 155.163366 
z
" style="fill:#2ca02c;opacity:0.7;"/>
   </g>
   <g id="patch_87">
    <path clip-path="url(#p33fdb6e43a)" d="M 305.924133 245.787588 
L 329.35806 245.787588 
L 329.35806 184.637798 
L 305.924133 184.637798 
z
" style="fill:#2ca02c;opacity:0.7;"/>
   </g>
   <g id="patch_88">
    <path clip-path="url(#p33fdb6e43a)" d="M 335.216542 260.926376 
L 358.650469 260.926376 
L 358.650469 199.288499 
L 335.216542 199.288499 
z
" style="fill:#2ca02c;opacity:0.7;"/>
   </g>
   <g id="patch_89">
    <path clip-path="url(#p33fdb6e43a)" d="M 364.50895 271.020092 
L 387.942877 271.020092 
L 387.942877 212.975175 
L 364.50895 212.975175 
z
" style="fill:#2ca02c;opacity:0.7;"/>
   </g>
   <g id="patch_90">
    <path clip-path="url(#p33fdb6e43a)" d="M 393.801359 276.28066 
L 417.235286 276.28066 
L 417.235286 221.965471 
L 393.801359 221.965471 
z
" style="fill:#2ca02c;opacity:0.7;"/>
   </g>
   <g id="patch_91">
    <path clip-path="url(#p33fdb6e43a)" d="M 423.093768 276.42678 
L 446.527694 276.42678 
L 446.527694 229.068736 
L 423.093768 229.068736 
z
" style="fill:#2ca02c;opacity:0.7;"/>
   </g>
   <g id="patch_92">
    <path clip-path="url(#p33fdb6e43a)" d="M 452.386176 272.951375 
L 475.820103 272.951375 
L 475.820103 227.383315 
L 452.386176 227.383315 
z
" style="fill:#2ca02c;opacity:0.7;"/>
   </g>
   <g id="patch_93">
    <path clip-path="url(#p33fdb6e43a)" d="M 481.678585 278.126305 
L 505.112512 278.126305 
L 505.112512 232.14909 
L 481.678585 232.14909 
z
" style="fill:#2ca02c;opacity:0.7;"/>
   </g>
   <g id="patch_94">
    <path clip-path="url(#p33fdb6e43a)" d="M 510.970993 283.626772 
L 534.40492 283.626772 
L 534.40492 238.058712 
L 510.970993 238.058712 
z
" style="fill:#2ca02c;opacity:0.7;"/>
   </g>
   <g id="patch_95">
    <path clip-path="url(#p33fdb6e43a)" d="M 540.263402 283.379341 
L 563.697329 283.379341 
L 563.697329 241.201652 
L 540.263402 241.201652 
z
" style="fill:#2ca02c;opacity:0.7;"/>
   </g>
   <g id="patch_96">
    <path clip-path="url(#p33fdb6e43a)" d="M 569.555811 287.094391 
L 592.989738 287.094391 
L 592.989738 251.989583 
L 569.555811 251.989583 
z
" style="fill:#2ca02c;opacity:0.7;"/>
   </g>
   <g id="patch_97">
    <path clip-path="url(#p33fdb6e43a)" d="M 598.848219 295.327363 
L 622.282146 295.327363 
L 622.282146 269.201898 
L 598.848219 269.201898 
z
" style="fill:#2ca02c;opacity:0.7;"/>
   </g>
   <g id="patch_98">
    <path clip-path="url(#p33fdb6e43a)" d="M 71.584864 43.925705 
L 95.018791 43.925705 
L 95.018791 43.302756 
L 71.584864 43.302756 
z
" style="fill:#98df8a;opacity:0.7;"/>
   </g>
   <g id="patch_99">
    <path clip-path="url(#p33fdb6e43a)" d="M 100.877273 59.510603 
L 124.3112 59.510603 
L 124.3112 59.121889 
L 100.877273 59.121889 
z
" style="fill:#98df8a;opacity:0.7;"/>
   </g>
   <g id="patch_100">
    <path clip-path="url(#p33fdb6e43a)" d="M 130.169681 82.556977 
L 153.603608 82.556977 
L 153.603608 82.155018 
L 130.169681 82.155018 
z
" style="fill:#98df8a;opacity:0.7;"/>
   </g>
   <g id="patch_101">
    <path clip-path="url(#p33fdb6e43a)" d="M 159.46209 99.081347 
L 182.896017 99.081347 
L 182.896017 98.640124 
L 159.46209 98.640124 
z
" style="fill:#98df8a;opacity:0.7;"/>
   </g>
   <g id="patch_102">
    <path clip-path="url(#p33fdb6e43a)" d="M 188.754499 120.60544 
L 212.188425 120.60544 
L 212.188425 120.18754 
L 188.754499 120.18754 
z
" style="fill:#98df8a;opacity:0.7;"/>
   </g>
   <g id="patch_103">
    <path clip-path="url(#p33fdb6e43a)" d="M 218.046907 133.865622 
L 241.480834 133.865622 
L 241.480834 133.219366 
L 218.046907 133.219366 
z
" style="fill:#98df8a;opacity:0.7;"/>
   </g>
   <g id="patch_104">
    <path clip-path="url(#p33fdb6e43a)" d="M 247.339316 148.627121 
L 270.773243 148.627121 
L 270.773243 148.059545 
L 247.339316 148.059545 
z
" style="fill:#98df8a;opacity:0.7;"/>
   </g>
   <g id="patch_105">
    <path clip-path="url(#p33fdb6e43a)" d="M 276.631724 155.163366 
L 300.065651 155.163366 
L 300.065651 154.467668 
L 276.631724 154.467668 
z
" style="fill:#98df8a;opacity:0.7;"/>
   </g>
   <g id="patch_106">
    <path clip-path="url(#p33fdb6e43a)" d="M 305.924133 184.637798 
L 329.35806 184.637798 
L 329.35806 183.796672 
L 305.924133 183.796672 
z
" style="fill:#98df8a;opacity:0.7;"/>
   </g>
   <g id="patch_107">
    <path clip-path="url(#p33fdb6e43a)" d="M 335.216542 199.288499 
L 358.650469 199.288499 
L 358.650469 197.612987 
L 335.216542 197.612987 
z
" style="fill:#98df8a;opacity:0.7;"/>
   </g>
   <g id="patch_108">
    <path clip-path="url(#p33fdb6e43a)" d="M 364.50895 212.975175 
L 387.942877 212.975175 
L 387.942877 211.244087 
L 364.50895 211.244087 
z
" style="fill:#98df8a;opacity:0.7;"/>
   </g>
   <g id="patch_109">
    <path clip-path="url(#p33fdb6e43a)" d="M 393.801359 221.965471 
L 417.235286 221.965471 
L 417.235286 220.387075 
L 393.801359 220.387075 
z
" style="fill:#98df8a;opacity:0.7;"/>
   </g>
   <g id="patch_110">
    <path clip-path="url(#p33fdb6e43a)" d="M 423.093768 229.068736 
L 446.527694 229.068736 
L 446.527694 226.179511 
L 423.093768 226.179511 
z
" style="fill:#98df8a;opacity:0.7;"/>
   </g>
   <g id="patch_111">
    <path clip-path="url(#p33fdb6e43a)" d="M 452.386176 227.383315 
L 475.820103 227.383315 
L 475.820103 225.3003 
L 452.386176 225.3003 
z
" style="fill:#98df8a;opacity:0.7;"/>
   </g>
   <g id="patch_112">
    <path clip-path="url(#p33fdb6e43a)" d="M 481.678585 232.14909 
L 505.112512 232.14909 
L 505.112512 230.139076 
L 481.678585 230.139076 
z
" style="fill:#98df8a;opacity:0.7;"/>
   </g>
   <g id="patch_113">
    <path clip-path="url(#p33fdb6e43a)" d="M 510.970993 238.058712 
L 534.40492 238.058712 
L 534.40492 235.380906 
L 510.970993 235.380906 
z
" style="fill:#98df8a;opacity:0.7;"/>
   </g>
   <g id="patch_114">
    <path clip-path="url(#p33fdb6e43a)" d="M 540.263402 241.201652 
L 563.697329 241.201652 
L 563.697329 238.805318 
L 540.263402 238.805318 
z
" style="fill:#98df8a;opacity:0.7;"/>
   </g>
   <g id="patch_115">
    <path clip-path="url(#p33fdb6e43a)" d="M 569.555811 251.989583 
L 592.989738 251.989583 
L 592.989738 250.312184 
L 569.555811 250.312184 
z
" style="fill:#98df8a;opacity:0.7;"/>
   </g>
   <g id="patch_116">
    <path clip-path="url(#p33fdb6e43a)" d="M 598.848219 269.201898 
L 622.282146 269.201898 
L 622.282146 266.533445 
L 598.848219 266.533445 
z
" style="fill:#98df8a;opacity:0.7;"/>
   </g>
   <g id="patch_117">
    <path clip-path="url(#p33fdb6e43a)" d="M 71.584864 43.302756 
L 95.018791 43.302756 
L 95.018791 40.990476 
L 71.584864 40.990476 
z
" style="fill:#d62728;opacity:0.7;"/>
   </g>
   <g id="patch_118">
    <path clip-path="url(#p33fdb6e43a)" d="M 100.877273 59.121889 
L 124.3112 59.121889 
L 124.3112 56.795168 
L 100.877273 56.795168 
z
" style="fill:#d62728;opacity:0.7;"/>
   </g>
   <g id="patch_119">
    <path clip-path="url(#p33fdb6e43a)" d="M 130.169681 82.155018 
L 153.603608 82.155018 
L 153.603608 79.641599 
L 130.169681 79.641599 
z
" style="fill:#d62728;opacity:0.7;"/>
   </g>
   <g id="patch_120">
    <path clip-path="url(#p33fdb6e43a)" d="M 159.46209 98.640124 
L 182.896017 98.640124 
L 182.896017 96.416011 
L 159.46209 96.416011 
z
" style="fill:#d62728;opacity:0.7;"/>
   </g>
   <g id="patch_121">
    <path clip-path="url(#p33fdb6e43a)" d="M 188.754499 120.18754 
L 212.188425 120.18754 
L 212.188425 118.002994 
L 188.754499 118.002994 
z
" style="fill:#d62728;opacity:0.7;"/>
   </g>
   <g id="patch_122">
    <path clip-path="url(#p33fdb6e43a)" d="M 218.046907 133.219366 
L 241.480834 133.219366 
L 241.480834 130.460303 
L 218.046907 130.460303 
z
" style="fill:#d62728;opacity:0.7;"/>
   </g>
   <g id="patch_123">
    <path clip-path="url(#p33fdb6e43a)" d="M 247.339316 148.059545 
L 270.773243 148.059545 
L 270.773243 145.843859 
L 247.339316 145.843859 
z
" style="fill:#d62728;opacity:0.7;"/>
   </g>
   <g id="patch_124">
    <path clip-path="url(#p33fdb6e43a)" d="M 276.631724 154.467668 
L 300.065651 154.467668 
L 300.065651 152.206398 
L 276.631724 152.206398 
z
" style="fill:#d62728;opacity:0.7;"/>
   </g>
   <g id="patch_125">
    <path clip-path="url(#p33fdb6e43a)" d="M 305.924133 183.796672 
L 329.35806 183.796672 
L 329.35806 181.957397 
L 305.924133 181.957397 
z
" style="fill:#d62728;opacity:0.7;"/>
   </g>
   <g id="patch_126">
    <path clip-path="url(#p33fdb6e43a)" d="M 335.216542 197.612987 
L 358.650469 197.612987 
L 358.650469 195.915417 
L 335.216542 195.915417 
z
" style="fill:#d62728;opacity:0.7;"/>
   </g>
   <g id="patch_127">
    <path clip-path="url(#p33fdb6e43a)" d="M 364.50895 211.244087 
L 387.942877 211.244087 
L 387.942877 209.134295 
L 364.50895 209.134295 
z
" style="fill:#d62728;opacity:0.7;"/>
   </g>
   <g id="patch_128">
    <path clip-path="url(#p33fdb6e43a)" d="M 393.801359 220.387075 
L 417.235286 220.387075 
L 417.235286 218.75258 
L 393.801359 218.75258 
z
" style="fill:#d62728;opacity:0.7;"/>
   </g>
   <g id="patch_129">
    <path clip-path="url(#p33fdb6e43a)" d="M 423.093768 226.179511 
L 446.527694 226.179511 
L 446.527694 224.474846 
L 423.093768 224.474846 
z
" style="fill:#d62728;opacity:0.7;"/>
   </g>
   <g id="patch_130">
    <path clip-path="url(#p33fdb6e43a)" d="M 452.386176 225.3003 
L 475.820103 225.3003 
L 475.820103 223.689027 
L 452.386176 223.689027 
z
" style="fill:#d62728;opacity:0.7;"/>
   </g>
   <g id="patch_131">
    <path clip-path="url(#p33fdb6e43a)" d="M 481.678585 230.139076 
L 505.112512 230.139076 
L 505.112512 228.914578 
L 481.678585 228.914578 
z
" style="fill:#d62728;opacity:0.7;"/>
   </g>
   <g id="patch_132">
    <path clip-path="url(#p33fdb6e43a)" d="M 510.970993 235.380906 
L 534.40492 235.380906 
L 534.40492 234.225213 
L 510.970993 234.225213 
z
" style="fill:#d62728;opacity:0.7;"/>
   </g>
   <g id="patch_133">
    <path clip-path="url(#p33fdb6e43a)" d="M 540.263402 238.805318 
L 563.697329 238.805318 
L 563.697329 237.121633 
L 540.263402 237.121633 
z
" style="fill:#d62728;opacity:0.7;"/>
   </g>
   <g id="patch_134">
    <path clip-path="url(#p33fdb6e43a)" d="M 569.555811 250.312184 
L 592.989738 250.312184 
L 592.989738 247.259668 
L 569.555811 247.259668 
z
" style="fill:#d62728;opacity:0.7;"/>
   </g>
   <g id="patch_135">
    <path clip-path="url(#p33fdb6e43a)" d="M 598.848219 266.533445 
L 622.282146 266.533445 
L 622.282146 263.497039 
L 598.848219 263.497039 
z
" style="fill:#d62728;opacity:0.7;"/>
   </g>
   <g id="patch_136">
    <path d="M 44.05 304.8 
L 44.05 27.8 
" style="fill:none;"/>
   </g>
   <g id="patch_137">
    <path d="M 669.15 304.8 
L 669.15 27.8 
" style="fill:none;"/>
   </g>
   <g id="patch_138">
    <path d="M 44.05 304.8 
L 669.15 304.8 
" style="fill:none;"/>
   </g>
   <g id="patch_139">
    <path d="M 44.05 27.8 
L 669.15 27.8 
" style="fill:none;"/>
   </g>
   <g id="text_23">
    <!-- UE Asset Portfolio -->
    <g style="fill:#262626;" transform="translate(298.57475 21.8)scale(0.144 -0.144)">
     <defs>
      <path d="M 3500 4581 
L 4106 4581 
L 4106 1934 
Q 4106 1244 3950 837 
Q 3794 431 3386 176 
Q 2978 -78 2316 -78 
Q 1672 -78 1262 144 
Q 853 366 678 786 
Q 503 1206 503 1934 
L 503 4581 
L 1109 4581 
L 1109 1938 
Q 1109 1341 1220 1058 
Q 1331 775 1601 622 
Q 1872 469 2263 469 
Q 2931 469 3215 772 
Q 3500 1075 3500 1938 
L 3500 4581 
z
" id="ArialMT-55" transform="scale(0.015625)"/>
      <path d="M 506 0 
L 506 4581 
L 3819 4581 
L 3819 4041 
L 1113 4041 
L 1113 2638 
L 3647 2638 
L 3647 2100 
L 1113 2100 
L 1113 541 
L 3925 541 
L 3925 0 
L 506 0 
z
" id="ArialMT-45" transform="scale(0.015625)"/>
      <path d="M -9 0 
L 1750 4581 
L 2403 4581 
L 4278 0 
L 3588 0 
L 3053 1388 
L 1138 1388 
L 634 0 
L -9 0 
z
M 1313 1881 
L 2866 1881 
L 2388 3150 
Q 2169 3728 2063 4100 
Q 1975 3659 1816 3225 
L 1313 1881 
z
" id="ArialMT-41" transform="scale(0.015625)"/>
      <path d="M 197 991 
L 753 1078 
Q 800 744 1014 566 
Q 1228 388 1613 388 
Q 2000 388 2187 545 
Q 2375 703 2375 916 
Q 2375 1106 2209 1216 
Q 2094 1291 1634 1406 
Q 1016 1563 777 1677 
Q 538 1791 414 1992 
Q 291 2194 291 2438 
Q 291 2659 392 2848 
Q 494 3038 669 3163 
Q 800 3259 1026 3326 
Q 1253 3394 1513 3394 
Q 1903 3394 2198 3281 
Q 2494 3169 2634 2976 
Q 2775 2784 2828 2463 
L 2278 2388 
Q 2241 2644 2061 2787 
Q 1881 2931 1553 2931 
Q 1166 2931 1000 2803 
Q 834 2675 834 2503 
Q 834 2394 903 2306 
Q 972 2216 1119 2156 
Q 1203 2125 1616 2013 
Q 2213 1853 2448 1751 
Q 2684 1650 2818 1456 
Q 2953 1263 2953 975 
Q 2953 694 2789 445 
Q 2625 197 2315 61 
Q 2006 -75 1616 -75 
Q 969 -75 630 194 
Q 291 463 197 991 
z
" id="ArialMT-73" transform="scale(0.015625)"/>
      <path d="M 1650 503 
L 1731 6 
Q 1494 -44 1306 -44 
Q 1000 -44 831 53 
Q 663 150 594 308 
Q 525 466 525 972 
L 525 2881 
L 113 2881 
L 113 3319 
L 525 3319 
L 525 4141 
L 1084 4478 
L 1084 3319 
L 1650 3319 
L 1650 2881 
L 1084 2881 
L 1084 941 
Q 1084 700 1114 631 
Q 1144 563 1211 522 
Q 1278 481 1403 481 
Q 1497 481 1650 503 
z
" id="ArialMT-74" transform="scale(0.015625)"/>
      <path d="M 494 0 
L 494 4581 
L 2222 4581 
Q 2678 4581 2919 4538 
Q 3256 4481 3484 4323 
Q 3713 4166 3852 3881 
Q 3991 3597 3991 3256 
Q 3991 2672 3619 2267 
Q 3247 1863 2275 1863 
L 1100 1863 
L 1100 0 
L 494 0 
z
M 1100 2403 
L 2284 2403 
Q 2872 2403 3119 2622 
Q 3366 2841 3366 3238 
Q 3366 3525 3220 3729 
Q 3075 3934 2838 4000 
Q 2684 4041 2272 4041 
L 1100 4041 
L 1100 2403 
z
" id="ArialMT-50" transform="scale(0.015625)"/>
      <path d="M 213 1659 
Q 213 2581 725 3025 
Q 1153 3394 1769 3394 
Q 2453 3394 2887 2945 
Q 3322 2497 3322 1706 
Q 3322 1066 3130 698 
Q 2938 331 2570 128 
Q 2203 -75 1769 -75 
Q 1072 -75 642 372 
Q 213 819 213 1659 
z
M 791 1659 
Q 791 1022 1069 705 
Q 1347 388 1769 388 
Q 2188 388 2466 706 
Q 2744 1025 2744 1678 
Q 2744 2294 2464 2611 
Q 2184 2928 1769 2928 
Q 1347 2928 1069 2612 
Q 791 2297 791 1659 
z
" id="ArialMT-6f" transform="scale(0.015625)"/>
      <path d="M 556 0 
L 556 2881 
L 59 2881 
L 59 3319 
L 556 3319 
L 556 3672 
Q 556 4006 616 4169 
Q 697 4388 901 4523 
Q 1106 4659 1475 4659 
Q 1713 4659 2000 4603 
L 1916 4113 
Q 1741 4144 1584 4144 
Q 1328 4144 1222 4034 
Q 1116 3925 1116 3625 
L 1116 3319 
L 1763 3319 
L 1763 2881 
L 1116 2881 
L 1116 0 
L 556 0 
z
" id="ArialMT-66" transform="scale(0.015625)"/>
      <path d="M 425 3934 
L 425 4581 
L 988 4581 
L 988 3934 
L 425 3934 
z
M 425 0 
L 425 3319 
L 988 3319 
L 988 0 
L 425 0 
z
" id="ArialMT-69" transform="scale(0.015625)"/>
     </defs>
     <use xlink:href="#ArialMT-55"/>
     <use x="72.216797" xlink:href="#ArialMT-45"/>
     <use x="138.916016" xlink:href="#ArialMT-20"/>
     <use x="161.199219" xlink:href="#ArialMT-41"/>
     <use x="227.898438" xlink:href="#ArialMT-73"/>
     <use x="277.898438" xlink:href="#ArialMT-73"/>
     <use x="327.898438" xlink:href="#ArialMT-65"/>
     <use x="383.513672" xlink:href="#ArialMT-74"/>
     <use x="411.296875" xlink:href="#ArialMT-20"/>
     <use x="439.080078" xlink:href="#ArialMT-50"/>
     <use x="505.779297" xlink:href="#ArialMT-6f"/>
     <use x="561.394531" xlink:href="#ArialMT-72"/>
     <use x="594.695312" xlink:href="#ArialMT-74"/>
     <use x="622.478516" xlink:href="#ArialMT-66"/>
     <use x="650.261719" xlink:href="#ArialMT-6f"/>
     <use x="705.876953" xlink:href="#ArialMT-6c"/>
     <use x="728.09375" xlink:href="#ArialMT-69"/>
     <use x="750.310547" xlink:href="#ArialMT-6f"/>
    </g>
   </g>
  </g>
  <g id="legend_1">
   <g id="patch_140">
    <path d="M 122.1375 399.549375 
L 146.1375 399.549375 
L 146.1375 391.149375 
L 122.1375 391.149375 
z
" style="fill:#1f77b4;opacity:0.7;"/>
   </g>
   <g id="text_24">
    <!-- Cash -->
    <g style="fill:#262626;" transform="translate(155.7375 399.549375)scale(0.12 -0.12)">
     <defs>
      <path d="M 3763 1606 
L 4369 1453 
Q 4178 706 3683 314 
Q 3188 -78 2472 -78 
Q 1731 -78 1267 223 
Q 803 525 561 1097 
Q 319 1669 319 2325 
Q 319 3041 592 3573 
Q 866 4106 1370 4382 
Q 1875 4659 2481 4659 
Q 3169 4659 3637 4309 
Q 4106 3959 4291 3325 
L 3694 3184 
Q 3534 3684 3231 3912 
Q 2928 4141 2469 4141 
Q 1941 4141 1586 3887 
Q 1231 3634 1087 3207 
Q 944 2781 944 2328 
Q 944 1744 1114 1308 
Q 1284 872 1643 656 
Q 2003 441 2422 441 
Q 2931 441 3284 734 
Q 3638 1028 3763 1606 
z
" id="ArialMT-43" transform="scale(0.015625)"/>
      <path d="M 422 0 
L 422 4581 
L 984 4581 
L 984 2938 
Q 1378 3394 1978 3394 
Q 2347 3394 2619 3248 
Q 2891 3103 3008 2847 
Q 3125 2591 3125 2103 
L 3125 0 
L 2563 0 
L 2563 2103 
Q 2563 2525 2380 2717 
Q 2197 2909 1863 2909 
Q 1613 2909 1392 2779 
Q 1172 2650 1078 2428 
Q 984 2206 984 1816 
L 984 0 
L 422 0 
z
" id="ArialMT-68" transform="scale(0.015625)"/>
     </defs>
     <use xlink:href="#ArialMT-43"/>
     <use x="72.216797" xlink:href="#ArialMT-61"/>
     <use x="127.832031" xlink:href="#ArialMT-73"/>
     <use x="177.832031" xlink:href="#ArialMT-68"/>
    </g>
   </g>
   <g id="patch_141">
    <path d="M 122.1375 416.52375 
L 146.1375 416.52375 
L 146.1375 408.12375 
L 122.1375 408.12375 
z
" style="fill:#aec7e8;opacity:0.7;"/>
   </g>
   <g id="text_25">
    <!-- Accounts Recv -->
    <g style="fill:#262626;" transform="translate(155.7375 416.52375)scale(0.12 -0.12)">
     <defs>
      <path d="M 2588 1216 
L 3141 1144 
Q 3050 572 2676 248 
Q 2303 -75 1759 -75 
Q 1078 -75 664 370 
Q 250 816 250 1647 
Q 250 2184 428 2587 
Q 606 2991 970 3192 
Q 1334 3394 1763 3394 
Q 2303 3394 2647 3120 
Q 2991 2847 3088 2344 
L 2541 2259 
Q 2463 2594 2264 2762 
Q 2066 2931 1784 2931 
Q 1359 2931 1093 2626 
Q 828 2322 828 1663 
Q 828 994 1084 691 
Q 1341 388 1753 388 
Q 2084 388 2306 591 
Q 2528 794 2588 1216 
z
" id="ArialMT-63" transform="scale(0.015625)"/>
      <path d="M 422 0 
L 422 3319 
L 928 3319 
L 928 2847 
Q 1294 3394 1984 3394 
Q 2284 3394 2536 3286 
Q 2788 3178 2913 3003 
Q 3038 2828 3088 2588 
Q 3119 2431 3119 2041 
L 3119 0 
L 2556 0 
L 2556 2019 
Q 2556 2363 2490 2533 
Q 2425 2703 2258 2804 
Q 2091 2906 1866 2906 
Q 1506 2906 1245 2678 
Q 984 2450 984 1813 
L 984 0 
L 422 0 
z
" id="ArialMT-6e" transform="scale(0.015625)"/>
      <path d="M 503 0 
L 503 4581 
L 2534 4581 
Q 3147 4581 3465 4457 
Q 3784 4334 3975 4021 
Q 4166 3709 4166 3331 
Q 4166 2844 3850 2509 
Q 3534 2175 2875 2084 
Q 3116 1969 3241 1856 
Q 3506 1613 3744 1247 
L 4541 0 
L 3778 0 
L 3172 953 
Q 2906 1366 2734 1584 
Q 2563 1803 2427 1890 
Q 2291 1978 2150 2013 
Q 2047 2034 1813 2034 
L 1109 2034 
L 1109 0 
L 503 0 
z
M 1109 2559 
L 2413 2559 
Q 2828 2559 3062 2645 
Q 3297 2731 3419 2920 
Q 3541 3109 3541 3331 
Q 3541 3656 3305 3865 
Q 3069 4075 2559 4075 
L 1109 4075 
L 1109 2559 
z
" id="ArialMT-52" transform="scale(0.015625)"/>
      <path d="M 1344 0 
L 81 3319 
L 675 3319 
L 1388 1331 
Q 1503 1009 1600 663 
Q 1675 925 1809 1294 
L 2547 3319 
L 3125 3319 
L 1869 0 
L 1344 0 
z
" id="ArialMT-76" transform="scale(0.015625)"/>
     </defs>
     <use xlink:href="#ArialMT-41"/>
     <use x="66.699219" xlink:href="#ArialMT-63"/>
     <use x="116.699219" xlink:href="#ArialMT-63"/>
     <use x="166.699219" xlink:href="#ArialMT-6f"/>
     <use x="222.314453" xlink:href="#ArialMT-75"/>
     <use x="277.929688" xlink:href="#ArialMT-6e"/>
     <use x="333.544922" xlink:href="#ArialMT-74"/>
     <use x="361.328125" xlink:href="#ArialMT-73"/>
     <use x="411.328125" xlink:href="#ArialMT-20"/>
     <use x="439.111328" xlink:href="#ArialMT-52"/>
     <use x="511.328125" xlink:href="#ArialMT-65"/>
     <use x="566.943359" xlink:href="#ArialMT-63"/>
     <use x="616.943359" xlink:href="#ArialMT-76"/>
    </g>
   </g>
   <g id="patch_142">
    <path d="M 122.1375 433.498125 
L 146.1375 433.498125 
L 146.1375 425.098125 
L 122.1375 425.098125 
z
" style="fill:#ff7f0e;opacity:0.7;"/>
   </g>
   <g id="text_26">
    <!-- Invesments -->
    <g style="fill:#262626;" transform="translate(155.7375 433.498125)scale(0.12 -0.12)">
     <defs>
      <path d="M 597 0 
L 597 4581 
L 1203 4581 
L 1203 0 
L 597 0 
z
" id="ArialMT-49" transform="scale(0.015625)"/>
      <path d="M 422 0 
L 422 3319 
L 925 3319 
L 925 2853 
Q 1081 3097 1340 3245 
Q 1600 3394 1931 3394 
Q 2300 3394 2536 3241 
Q 2772 3088 2869 2813 
Q 3263 3394 3894 3394 
Q 4388 3394 4653 3120 
Q 4919 2847 4919 2278 
L 4919 0 
L 4359 0 
L 4359 2091 
Q 4359 2428 4304 2576 
Q 4250 2725 4106 2815 
Q 3963 2906 3769 2906 
Q 3419 2906 3187 2673 
Q 2956 2441 2956 1928 
L 2956 0 
L 2394 0 
L 2394 2156 
Q 2394 2531 2256 2718 
Q 2119 2906 1806 2906 
Q 1569 2906 1367 2781 
Q 1166 2656 1075 2415 
Q 984 2175 984 1722 
L 984 0 
L 422 0 
z
" id="ArialMT-6d" transform="scale(0.015625)"/>
     </defs>
     <use xlink:href="#ArialMT-49"/>
     <use x="27.783203" xlink:href="#ArialMT-6e"/>
     <use x="83.398438" xlink:href="#ArialMT-76"/>
     <use x="133.398438" xlink:href="#ArialMT-65"/>
     <use x="189.013672" xlink:href="#ArialMT-73"/>
     <use x="239.013672" xlink:href="#ArialMT-6d"/>
     <use x="322.314453" xlink:href="#ArialMT-65"/>
     <use x="377.929688" xlink:href="#ArialMT-6e"/>
     <use x="433.544922" xlink:href="#ArialMT-74"/>
     <use x="461.328125" xlink:href="#ArialMT-73"/>
    </g>
   </g>
   <g id="patch_143">
    <path d="M 259.768125 399.549375 
L 283.768125 399.549375 
L 283.768125 391.149375 
L 259.768125 391.149375 
z
" style="fill:#ffbb78;opacity:0.7;"/>
   </g>
   <g id="text_27">
    <!-- Fixed Assets -->
    <g style="fill:#262626;" transform="translate(293.368125 399.549375)scale(0.12 -0.12)">
     <defs>
      <path d="M 525 0 
L 525 4581 
L 3616 4581 
L 3616 4041 
L 1131 4041 
L 1131 2622 
L 3281 2622 
L 3281 2081 
L 1131 2081 
L 1131 0 
L 525 0 
z
" id="ArialMT-46" transform="scale(0.015625)"/>
      <path d="M 47 0 
L 1259 1725 
L 138 3319 
L 841 3319 
L 1350 2541 
Q 1494 2319 1581 2169 
Q 1719 2375 1834 2534 
L 2394 3319 
L 3066 3319 
L 1919 1756 
L 3153 0 
L 2463 0 
L 1781 1031 
L 1600 1309 
L 728 0 
L 47 0 
z
" id="ArialMT-78" transform="scale(0.015625)"/>
      <path d="M 2575 0 
L 2575 419 
Q 2259 -75 1647 -75 
Q 1250 -75 917 144 
Q 584 363 401 755 
Q 219 1147 219 1656 
Q 219 2153 384 2558 
Q 550 2963 881 3178 
Q 1213 3394 1622 3394 
Q 1922 3394 2156 3267 
Q 2391 3141 2538 2938 
L 2538 4581 
L 3097 4581 
L 3097 0 
L 2575 0 
z
M 797 1656 
Q 797 1019 1065 703 
Q 1334 388 1700 388 
Q 2069 388 2326 689 
Q 2584 991 2584 1609 
Q 2584 2291 2321 2609 
Q 2059 2928 1675 2928 
Q 1300 2928 1048 2622 
Q 797 2316 797 1656 
z
" id="ArialMT-64" transform="scale(0.015625)"/>
     </defs>
     <use xlink:href="#ArialMT-46"/>
     <use x="61.083984" xlink:href="#ArialMT-69"/>
     <use x="83.300781" xlink:href="#ArialMT-78"/>
     <use x="133.300781" xlink:href="#ArialMT-65"/>
     <use x="188.916016" xlink:href="#ArialMT-64"/>
     <use x="244.53125" xlink:href="#ArialMT-20"/>
     <use x="266.814453" xlink:href="#ArialMT-41"/>
     <use x="333.513672" xlink:href="#ArialMT-73"/>
     <use x="383.513672" xlink:href="#ArialMT-73"/>
     <use x="433.513672" xlink:href="#ArialMT-65"/>
     <use x="489.128906" xlink:href="#ArialMT-74"/>
     <use x="516.912109" xlink:href="#ArialMT-73"/>
    </g>
   </g>
   <g id="patch_144">
    <path d="M 259.768125 416.67 
L 283.768125 416.67 
L 283.768125 408.27 
L 259.768125 408.27 
z
" style="fill:#2ca02c;opacity:0.7;"/>
   </g>
   <g id="text_28">
    <!-- US Treasury Securities -->
    <g style="fill:#262626;" transform="translate(293.368125 416.67)scale(0.12 -0.12)">
     <defs>
      <path d="M 288 1472 
L 859 1522 
Q 900 1178 1048 958 
Q 1197 738 1509 602 
Q 1822 466 2213 466 
Q 2559 466 2825 569 
Q 3091 672 3220 851 
Q 3350 1031 3350 1244 
Q 3350 1459 3225 1620 
Q 3100 1781 2813 1891 
Q 2628 1963 1997 2114 
Q 1366 2266 1113 2400 
Q 784 2572 623 2826 
Q 463 3081 463 3397 
Q 463 3744 659 4045 
Q 856 4347 1234 4503 
Q 1613 4659 2075 4659 
Q 2584 4659 2973 4495 
Q 3363 4331 3572 4012 
Q 3781 3694 3797 3291 
L 3216 3247 
Q 3169 3681 2898 3903 
Q 2628 4125 2100 4125 
Q 1550 4125 1298 3923 
Q 1047 3722 1047 3438 
Q 1047 3191 1225 3031 
Q 1400 2872 2139 2705 
Q 2878 2538 3153 2413 
Q 3553 2228 3743 1945 
Q 3934 1663 3934 1294 
Q 3934 928 3725 604 
Q 3516 281 3123 101 
Q 2731 -78 2241 -78 
Q 1619 -78 1198 103 
Q 778 284 539 648 
Q 300 1013 288 1472 
z
" id="ArialMT-53" transform="scale(0.015625)"/>
      <path d="M 1659 0 
L 1659 4041 
L 150 4041 
L 150 4581 
L 3781 4581 
L 3781 4041 
L 2266 4041 
L 2266 0 
L 1659 0 
z
" id="ArialMT-54" transform="scale(0.015625)"/>
      <path d="M 397 -1278 
L 334 -750 
Q 519 -800 656 -800 
Q 844 -800 956 -737 
Q 1069 -675 1141 -563 
Q 1194 -478 1313 -144 
Q 1328 -97 1363 -6 
L 103 3319 
L 709 3319 
L 1400 1397 
Q 1534 1031 1641 628 
Q 1738 1016 1872 1384 
L 2581 3319 
L 3144 3319 
L 1881 -56 
Q 1678 -603 1566 -809 
Q 1416 -1088 1222 -1217 
Q 1028 -1347 759 -1347 
Q 597 -1347 397 -1278 
z
" id="ArialMT-79" transform="scale(0.015625)"/>
     </defs>
     <use xlink:href="#ArialMT-55"/>
     <use x="72.216797" xlink:href="#ArialMT-53"/>
     <use x="138.916016" xlink:href="#ArialMT-20"/>
     <use x="164.949219" xlink:href="#ArialMT-54"/>
     <use x="222.283203" xlink:href="#ArialMT-72"/>
     <use x="255.583984" xlink:href="#ArialMT-65"/>
     <use x="311.199219" xlink:href="#ArialMT-61"/>
     <use x="366.814453" xlink:href="#ArialMT-73"/>
     <use x="416.814453" xlink:href="#ArialMT-75"/>
     <use x="472.429688" xlink:href="#ArialMT-72"/>
     <use x="505.730469" xlink:href="#ArialMT-79"/>
     <use x="555.730469" xlink:href="#ArialMT-20"/>
     <use x="583.513672" xlink:href="#ArialMT-53"/>
     <use x="650.212891" xlink:href="#ArialMT-65"/>
     <use x="705.828125" xlink:href="#ArialMT-63"/>
     <use x="755.828125" xlink:href="#ArialMT-75"/>
     <use x="811.443359" xlink:href="#ArialMT-72"/>
     <use x="844.744141" xlink:href="#ArialMT-69"/>
     <use x="866.960938" xlink:href="#ArialMT-74"/>
     <use x="894.744141" xlink:href="#ArialMT-69"/>
     <use x="916.960938" xlink:href="#ArialMT-65"/>
     <use x="972.576172" xlink:href="#ArialMT-73"/>
    </g>
   </g>
   <g id="patch_145">
    <path d="M 440.071875 399.549375 
L 464.071875 399.549375 
L 464.071875 391.149375 
L 440.071875 391.149375 
z
" style="fill:#98df8a;opacity:0.7;"/>
   </g>
   <g id="text_29">
    <!-- Other Assets -->
    <g style="fill:#262626;" transform="translate(473.671875 399.549375)scale(0.12 -0.12)">
     <defs>
      <path d="M 309 2231 
Q 309 3372 921 4017 
Q 1534 4663 2503 4663 
Q 3138 4663 3647 4359 
Q 4156 4056 4423 3514 
Q 4691 2972 4691 2284 
Q 4691 1588 4409 1038 
Q 4128 488 3612 205 
Q 3097 -78 2500 -78 
Q 1853 -78 1343 234 
Q 834 547 571 1087 
Q 309 1628 309 2231 
z
M 934 2222 
Q 934 1394 1379 917 
Q 1825 441 2497 441 
Q 3181 441 3623 922 
Q 4066 1403 4066 2288 
Q 4066 2847 3877 3264 
Q 3688 3681 3323 3911 
Q 2959 4141 2506 4141 
Q 1863 4141 1398 3698 
Q 934 3256 934 2222 
z
" id="ArialMT-4f" transform="scale(0.015625)"/>
     </defs>
     <use xlink:href="#ArialMT-4f"/>
     <use x="77.783203" xlink:href="#ArialMT-74"/>
     <use x="105.566406" xlink:href="#ArialMT-68"/>
     <use x="161.181641" xlink:href="#ArialMT-65"/>
     <use x="216.796875" xlink:href="#ArialMT-72"/>
     <use x="250.097656" xlink:href="#ArialMT-20"/>
     <use x="272.380859" xlink:href="#ArialMT-41"/>
     <use x="339.080078" xlink:href="#ArialMT-73"/>
     <use x="389.080078" xlink:href="#ArialMT-73"/>
     <use x="439.080078" xlink:href="#ArialMT-65"/>
     <use x="494.695312" xlink:href="#ArialMT-74"/>
     <use x="522.478516" xlink:href="#ArialMT-73"/>
    </g>
   </g>
   <g id="patch_146">
    <path d="M 440.071875 416.52375 
L 464.071875 416.52375 
L 464.071875 408.12375 
L 440.071875 408.12375 
z
" style="fill:#d62728;opacity:0.7;"/>
   </g>
   <g id="text_30">
    <!-- Loans Receivable -->
    <g style="fill:#262626;" transform="translate(473.671875 416.52375)scale(0.12 -0.12)">
     <defs>
      <path d="M 469 0 
L 469 4581 
L 1075 4581 
L 1075 541 
L 3331 541 
L 3331 0 
L 469 0 
z
" id="ArialMT-4c" transform="scale(0.015625)"/>
      <path d="M 941 0 
L 419 0 
L 419 4581 
L 981 4581 
L 981 2947 
Q 1338 3394 1891 3394 
Q 2197 3394 2470 3270 
Q 2744 3147 2920 2923 
Q 3097 2700 3197 2384 
Q 3297 2069 3297 1709 
Q 3297 856 2875 390 
Q 2453 -75 1863 -75 
Q 1275 -75 941 416 
L 941 0 
z
M 934 1684 
Q 934 1088 1097 822 
Q 1363 388 1816 388 
Q 2184 388 2453 708 
Q 2722 1028 2722 1663 
Q 2722 2313 2464 2622 
Q 2206 2931 1841 2931 
Q 1472 2931 1203 2611 
Q 934 2291 934 1684 
z
" id="ArialMT-62" transform="scale(0.015625)"/>
     </defs>
     <use xlink:href="#ArialMT-4c"/>
     <use x="55.615234" xlink:href="#ArialMT-6f"/>
     <use x="111.230469" xlink:href="#ArialMT-61"/>
     <use x="166.845703" xlink:href="#ArialMT-6e"/>
     <use x="222.460938" xlink:href="#ArialMT-73"/>
     <use x="272.460938" xlink:href="#ArialMT-20"/>
     <use x="300.244141" xlink:href="#ArialMT-52"/>
     <use x="372.460938" xlink:href="#ArialMT-65"/>
     <use x="428.076172" xlink:href="#ArialMT-63"/>
     <use x="478.076172" xlink:href="#ArialMT-65"/>
     <use x="533.691406" xlink:href="#ArialMT-69"/>
     <use x="555.908203" xlink:href="#ArialMT-76"/>
     <use x="605.908203" xlink:href="#ArialMT-61"/>
     <use x="661.523438" xlink:href="#ArialMT-62"/>
     <use x="717.138672" xlink:href="#ArialMT-6c"/>
     <use x="739.355469" xlink:href="#ArialMT-65"/>
    </g>
   </g>
  </g>
 </g>
 <defs>
  <clipPath id="p33fdb6e43a">
   <rect height="277" width="625.1" x="44.05" y="27.8"/>
  </clipPath>
 </defs>
</svg>
