<?xml version="1.0" encoding="utf-8" standalone="no"?>
<!DOCTYPE svg PUBLIC "-//W3C//DTD SVG 1.1//EN"
  "http://www.w3.org/Graphics/SVG/1.1/DTD/svg11.dtd">
<svg height="203.863184pt" version="1.1" viewBox="0 0 472.262355 203.863184" width="472.262355pt" xmlns="http://www.w3.org/2000/svg" xmlns:xlink="http://www.w3.org/1999/xlink">
 <metadata>
  <rdf:RDF xmlns:cc="http://creativecommons.org/ns#" xmlns:dc="http://purl.org/dc/elements/1.1/" xmlns:rdf="http://www.w3.org/1999/02/22-rdf-syntax-ns#">
   <cc:Work>
    <dc:type rdf:resource="http://purl.org/dc/dcmitype/StillImage"/>
    <dc:date>2021-10-26T21:44:24.940554</dc:date>
    <dc:format>image/svg+xml</dc:format>
    <dc:creator>
     <cc:Agent>
      <dc:title>Matplotlib v3.4.2, https://matplotlib.org/</dc:title>
     </cc:Agent>
    </dc:creator>
   </cc:Work>
  </rdf:RDF>
 </metadata>
 <defs>
  <style type="text/css">*{stroke-linecap:butt;stroke-linejoin:round;}</style>
 </defs>
 <g id="figure_1">
  <g id="patch_1">
   <path d="M 0 203.863184 
L 472.262355 203.863184 
L 472.262355 0 
L 0 0 
z
" style="fill:#ffffff;"/>
  </g>
  <g id="axes_1">
   <g id="matplotlib.axis_1"/>
   <g id="matplotlib.axis_2"/>
   <g id="patch_2">
    <path d="M 119.443956 84.524129 
C 119.443956 76.317956 117.419109 68.237168 113.549541 61.000613 
C 109.679973 53.764058 104.083933 47.592876 97.259231 43.036043 
C 90.43453 38.479209 82.589721 35.675974 74.422662 34.875707 
C 66.255603 34.07544 58.015868 35.302596 50.436445 38.44801 
L 69.557753 84.524129 
L 119.443956 84.524129 
z
" style="fill:#4c72b0;opacity:0.7;"/>
   </g>
   <g id="patch_3">
    <path d="M 50.436445 38.44801 
C 42.0946 41.909825 34.847387 47.572889 29.471472 54.830304 
C 24.095557 62.087719 20.790097 70.670629 19.909331 79.659221 
C 19.028564 88.647813 20.605119 97.709097 24.470041 105.871995 
C 28.334962 114.034894 34.34507 120.997006 41.856275 126.012216 
C 49.367481 131.027426 58.101523 133.909943 67.122395 134.350852 
C 76.143267 134.791761 85.116783 132.774729 93.08127 128.515917 
C 101.045757 124.257105 107.706165 117.914285 112.348711 110.167202 
C 116.991258 102.420118 119.443956 93.55577 119.443956 84.524129 
L 69.557753 84.524129 
L 50.436445 38.44801 
z
" style="fill:#55a868;opacity:0.7;"/>
   </g>
   <g id="text_1">
    <!-- 31\% -->
    <g style="fill:#262626;" transform="translate(100.029379 41.377894)scale(0.1 -0.1)">
     <defs>
      <path d="M 1005 2060 
L 1440 2060 
C 2042 2060 2214 1532 2214 1164 
C 2214 662 1933 268 1472 268 
C 1114 268 608 449 320 926 
C 275 700 275 687 250 533 
C 550 89 1037 -128 1485 -128 
C 2214 -128 2752 481 2752 1158 
C 2752 1667 2400 2092 1920 2252 
C 2304 2463 2586 2860 2586 3321 
C 2586 3859 2093 4288 1491 4288 
C 941 4288 512 3948 333 3583 
C 378 3519 493 3334 550 3238 
C 691 3615 1056 3897 1485 3897 
C 1843 3897 2080 3660 2080 3321 
C 2080 2969 1856 2585 1478 2496 
C 1453 2496 1056 2457 1005 2451 
L 1005 2060 
z
" id="CMSS17-33" transform="scale(0.015625)"/>
      <path d="M 1818 4288 
L 1696 4288 
C 1350 3949 947 3902 538 3891 
L 538 3520 
C 723 3526 1024 3539 1325 3673 
L 1325 371 
L 570 371 
L 570 0 
L 2573 0 
L 2573 371 
L 1818 371 
L 1818 4288 
z
" id="CMSS17-31" transform="scale(0.015625)"/>
      <path d="M 3923 4582 
C 3962 4646 3962 4678 3962 4684 
C 3962 4755 3904 4800 3853 4800 
C 3782 4800 3750 4748 3718 4684 
L 1101 -109 
C 1088 -135 1062 -173 1062 -212 
C 1062 -282 1120 -327 1178 -327 
C 1235 -327 1248 -301 1299 -212 
L 3923 4582 
z
M 4678 953 
C 4678 1690 4282 2233 3846 2233 
C 3418 2233 3008 1703 3008 953 
C 3008 203 3418 -327 3846 -327 
C 4288 -327 4678 216 4678 953 
z
M 3846 64 
C 3712 64 3494 184 3494 953 
C 3494 1716 3712 1843 3846 1843 
C 4083 1843 4211 1379 4211 953 
C 4211 527 4083 64 3846 64 
z
M 2003 3516 
C 2003 4256 1606 4800 1171 4800 
C 742 4800 333 4269 333 3516 
C 333 2764 742 2233 1171 2233 
C 1613 2233 2003 2777 2003 3516 
z
M 1171 2624 
C 1037 2624 819 2745 819 3516 
C 819 4282 1037 4409 1171 4409 
C 1408 4409 1536 3944 1536 3516 
C 1536 3089 1408 2624 1171 2624 
z
" id="CMSS17-25" transform="scale(0.015625)"/>
     </defs>
     <use transform="scale(0.996264)" xlink:href="#CMSS17-33"/>
     <use transform="translate(46.843624 0)scale(0.996264)" xlink:href="#CMSS17-31"/>
     <use transform="translate(93.687247 0)scale(0.996264)" xlink:href="#CMSS17-25"/>
    </g>
   </g>
   <g id="text_2">
    <!-- 69\% -->
    <g style="fill:#262626;" transform="translate(20.821232 132.651685)scale(0.1 -0.1)">
     <defs>
      <path d="M 2496 4159 
C 2227 4268 2035 4288 1856 4288 
C 1024 4288 250 3408 250 2023 
C 250 268 986 -128 1510 -128 
C 1798 -128 2086 -39 2362 281 
C 2643 619 2752 900 2752 1392 
C 2752 2183 2362 2886 1779 2886 
C 1357 2886 992 2662 768 2381 
C 832 3290 1254 3897 1862 3897 
C 2029 3897 2246 3871 2496 3760 
L 2496 4159 
z
M 774 1372 
C 774 1423 774 1455 781 1551 
C 781 2049 1069 2496 1536 2496 
C 1837 2496 1990 2336 2106 2138 
C 2240 1889 2246 1653 2246 1392 
C 2246 1143 2246 894 2099 638 
C 1978 441 1818 268 1510 268 
C 902 268 800 1117 774 1372 
z
" id="CMSS17-36" transform="scale(0.015625)"/>
      <path d="M 435 172 
C 614 19 845 -128 1235 -128 
C 2010 -128 2752 738 2752 2136 
C 2752 3987 1952 4288 1523 4288 
C 1094 4288 819 4095 582 3789 
C 301 3438 250 3125 250 2761 
C 250 2327 326 2059 506 1753 
C 749 1356 973 1273 1222 1273 
C 1600 1273 1978 1459 2234 1778 
C 2189 908 1798 268 1235 268 
C 1005 268 819 340 634 516 
L 435 172 
z
M 2214 2774 
C 2221 2729 2221 2646 2221 2621 
C 2221 2085 1914 1664 1466 1664 
C 1171 1664 1018 1817 902 2015 
C 762 2263 755 2506 755 2761 
C 755 3010 755 3284 934 3559 
C 1069 3757 1235 3897 1523 3897 
C 2112 3897 2208 3036 2214 2774 
z
" id="CMSS17-39" transform="scale(0.015625)"/>
     </defs>
     <use transform="scale(0.996264)" xlink:href="#CMSS17-36"/>
     <use transform="translate(46.843624 0)scale(0.996264)" xlink:href="#CMSS17-39"/>
     <use transform="translate(93.687247 0)scale(0.996264)" xlink:href="#CMSS17-25"/>
    </g>
   </g>
   <g id="text_3">
    <!-- Financial Contribution -->
    <g style="fill:#262626;" transform="translate(15.369297 16.166376)scale(0.12 -0.12)">
     <defs>
      <path d="M 2918 1984 
L 2918 2374 
L 1101 2374 
L 1101 3993 
L 1882 3993 
C 1958 3993 2035 3987 2112 3987 
L 3168 3987 
L 3168 4403 
L 563 4403 
L 563 0 
L 1101 0 
L 1101 1984 
L 2918 1984 
z
" id="CMSS17-46" transform="scale(0.015625)"/>
      <path d="M 979 4224 
L 442 4224 
L 442 3686 
L 979 3686 
L 979 4224 
z
M 947 2752 
L 474 2752 
L 474 0 
L 947 0 
L 947 2752 
z
" id="CMSS17-69" transform="scale(0.015625)"/>
      <path d="M 2618 1878 
C 2618 2283 2522 2816 1798 2816 
C 1389 2816 1120 2604 941 2386 
L 941 2783 
L 474 2783 
L 474 0 
L 960 0 
L 960 1556 
C 960 1962 1114 2425 1549 2425 
C 2112 2425 2131 2045 2131 1826 
L 2131 0 
L 2618 0 
L 2618 1878 
z
" id="CMSS17-6e" transform="scale(0.015625)"/>
      <path d="M 2406 1789 
C 2406 2399 1978 2816 1402 2816 
C 1120 2816 813 2764 461 2559 
L 499 2133 
C 659 2250 934 2438 1395 2438 
C 1722 2438 1920 2185 1920 1782 
L 1920 1536 
C 896 1504 256 1209 256 711 
C 256 452 416 -64 947 -64 
C 1043 -64 1562 -52 1933 224 
L 1933 -13 
L 2406 -13 
L 2406 1789 
z
M 1920 824 
C 1920 711 1920 559 1728 446 
C 1562 339 1350 326 1261 326 
C 941 326 723 503 723 723 
C 723 1165 1722 1209 1920 1216 
L 1920 824 
z
" id="CMSS17-61" transform="scale(0.015625)"/>
      <path d="M 2464 2540 
C 2464 2585 2170 2713 2093 2739 
C 1882 2816 1613 2816 1542 2816 
C 710 2816 211 2092 211 1363 
C 211 595 768 -64 1517 -64 
C 1946 -64 2253 76 2502 243 
L 2464 665 
C 2189 454 1869 339 1523 339 
C 1024 339 698 774 698 1369 
C 698 1830 909 2412 1549 2412 
C 1901 2412 2099 2342 2394 2143 
L 2464 2540 
z
" id="CMSS17-63" transform="scale(0.015625)"/>
      <path d="M 947 4416 
L 474 4416 
L 474 0 
L 947 0 
L 947 4416 
z
" id="CMSS17-6c" transform="scale(0.015625)"/>
      <path d="M 3501 705 
C 3072 416 2874 332 2355 332 
C 1459 332 934 1304 934 2191 
C 934 3137 1472 4070 2381 4070 
C 2790 4070 3059 3954 3386 3748 
L 3475 4255 
C 3168 4409 2778 4480 2387 4480 
C 1158 4480 397 3343 397 2191 
C 397 924 1299 -77 2323 -77 
C 2874 -77 3066 -32 3539 268 
L 3501 705 
z
" id="CMSS17-43" transform="scale(0.015625)"/>
      <path d="M 2829 1356 
C 2829 2175 2221 2816 1504 2816 
C 768 2816 173 2156 173 1356 
C 173 544 787 -64 1498 -64 
C 2227 -64 2829 563 2829 1356 
z
M 1504 339 
C 1050 339 659 710 659 1407 
C 659 2150 1114 2425 1498 2425 
C 1914 2425 2342 2124 2342 1407 
C 2342 684 1926 339 1504 339 
z
" id="CMSS17-6f" transform="scale(0.015625)"/>
      <path d="M 1069 2380 
L 1901 2380 
L 1901 2752 
L 1069 2752 
L 1069 3520 
L 614 3520 
L 614 2752 
L 109 2752 
L 109 2380 
L 602 2380 
L 602 751 
C 602 384 685 -64 1107 -64 
C 1427 -64 1722 25 2003 172 
L 1901 551 
C 1747 416 1562 339 1363 339 
C 1082 339 1069 699 1069 860 
L 1069 2380 
z
" id="CMSS17-74" transform="scale(0.015625)"/>
      <path d="M 954 1369 
C 954 1974 1395 2379 1958 2392 
L 1958 2816 
C 1549 2809 1165 2604 934 2270 
L 934 2783 
L 480 2783 
L 480 0 
L 954 0 
L 954 1369 
z
" id="CMSS17-72" transform="scale(0.015625)"/>
      <path d="M 954 4416 
L 480 4416 
L 480 -13 
L 966 -13 
L 966 275 
C 1210 38 1504 -64 1766 -64 
C 2381 -64 2880 559 2880 1382 
C 2880 2133 2496 2816 1926 2816 
C 1523 2816 1165 2649 954 2476 
L 954 4416 
z
M 966 2095 
C 1107 2276 1306 2425 1587 2425 
C 1965 2425 2394 2146 2394 1382 
C 2394 566 1882 326 1530 326 
C 1402 326 1267 358 1139 468 
C 966 624 966 721 966 812 
L 966 2095 
z
" id="CMSS17-62" transform="scale(0.015625)"/>
      <path d="M 2618 2752 
L 2131 2752 
L 2131 976 
C 2131 500 1786 307 1421 307 
C 998 307 960 448 960 712 
L 960 2752 
L 474 2752 
L 474 680 
C 474 179 646 -64 1088 -64 
C 1306 -64 1798 -13 2144 307 
L 2144 -13 
L 2618 -13 
L 2618 2752 
z
" id="CMSS17-75" transform="scale(0.015625)"/>
     </defs>
     <use transform="scale(0.996264)" xlink:href="#CMSS17-46"/>
     <use transform="translate(53.289559 0)scale(0.996264)" xlink:href="#CMSS17-69"/>
     <use transform="translate(75.470282 0)scale(0.996264)" xlink:href="#CMSS17-6e"/>
     <use transform="translate(123.675225 0)scale(0.996264)" xlink:href="#CMSS17-61"/>
     <use transform="translate(168.597146 0)scale(0.996264)" xlink:href="#CMSS17-6e"/>
     <use transform="translate(216.802089 0)scale(0.996264)" xlink:href="#CMSS17-63"/>
     <use transform="translate(258.440911 0)scale(0.996264)" xlink:href="#CMSS17-69"/>
     <use transform="translate(280.621634 0)scale(0.996264)" xlink:href="#CMSS17-61"/>
     <use transform="translate(325.543555 0)scale(0.996264)" xlink:href="#CMSS17-6c"/>
     <use transform="translate(378.953391 0)scale(0.996264)" xlink:href="#CMSS17-43"/>
     <use transform="translate(438.809162 0)scale(0.996264)" xlink:href="#CMSS17-6f"/>
     <use transform="translate(485.652786 0)scale(0.996264)" xlink:href="#CMSS17-6e"/>
     <use transform="translate(533.857729 0)scale(0.996264)" xlink:href="#CMSS17-74"/>
     <use transform="translate(567.689296 0)scale(0.996264)" xlink:href="#CMSS17-72"/>
     <use transform="translate(599.599068 0)scale(0.996264)" xlink:href="#CMSS17-69"/>
     <use transform="translate(621.779791 0)scale(0.996264)" xlink:href="#CMSS17-62"/>
     <use transform="translate(669.984734 0)scale(0.996264)" xlink:href="#CMSS17-75"/>
     <use transform="translate(718.189678 0)scale(0.996264)" xlink:href="#CMSS17-74"/>
     <use transform="translate(752.021244 0)scale(0.996264)" xlink:href="#CMSS17-69"/>
     <use transform="translate(774.201967 0)scale(0.996264)" xlink:href="#CMSS17-6f"/>
     <use transform="translate(821.045591 0)scale(0.996264)" xlink:href="#CMSS17-6e"/>
    </g>
   </g>
  </g>
  <g id="axes_2">
   <g id="matplotlib.axis_3"/>
   <g id="matplotlib.axis_4"/>
   <g id="patch_4">
    <path d="M 272.21579 84.524129 
C 272.21579 77.851414 270.876989 71.246023 268.27883 65.09991 
C 265.680672 58.953798 261.875582 53.390986 257.089352 48.741564 
L 222.329588 84.524129 
L 272.21579 84.524129 
z
" style="fill:#4c72b0;opacity:0.7;"/>
   </g>
   <g id="patch_5">
    <path d="M 257.089352 48.741564 
C 252.991748 44.761085 248.240695 41.513871 243.043785 39.141807 
C 237.846875 36.769742 232.280919 35.307884 226.589114 34.820109 
C 220.897309 34.332334 215.163781 34.82585 209.639051 36.279093 
C 204.11432 37.732337 198.880043 40.12383 194.164924 43.349077 
C 189.449805 46.574324 185.323535 50.585658 181.966406 55.207806 
C 178.609278 59.829954 176.070909 64.994601 174.462212 70.476085 
C 172.853515 75.957568 172.198265 81.67487 172.525094 87.37818 
C 172.851922 93.081491 174.155999 98.686514 176.380343 103.948344 
C 178.604687 109.210175 181.716422 114.051042 185.579586 118.259431 
C 189.442749 122.46782 194.000242 125.981529 199.052931 128.647031 
C 204.105619 131.312534 209.578825 133.090433 215.2334 133.903045 
C 220.887976 134.715658 226.640348 134.550973 232.239171 133.416188 
C 237.837995 132.281402 243.20052 130.193287 248.092437 127.243081 
C 252.984353 124.292875 257.333359 120.524182 260.949429 116.10167 
C 264.565498 111.679159 267.395186 106.668194 269.314852 101.287725 
C 271.234518 95.907256 272.215789 90.236806 272.21579 84.524139 
L 222.329588 84.524129 
L 257.089352 48.741564 
z
" style="fill:#55a868;opacity:0.7;"/>
   </g>
   <g id="text_4">
    <!-- 13\% -->
    <g style="fill:#262626;" transform="translate(272.873755 65.648148)scale(0.1 -0.1)">
     <use transform="scale(0.996264)" xlink:href="#CMSS17-31"/>
     <use transform="translate(46.843624 0)scale(0.996264)" xlink:href="#CMSS17-33"/>
     <use transform="translate(93.687247 0)scale(0.996264)" xlink:href="#CMSS17-25"/>
    </g>
   </g>
   <g id="text_5">
    <!-- 87\% -->
    <g style="fill:#262626;" transform="translate(153.520522 108.381426)scale(0.1 -0.1)">
     <defs>
      <path d="M 1933 2246 
C 2419 2406 2669 2793 2669 3174 
C 2669 3774 2157 4288 1504 4288 
C 826 4288 333 3755 333 3174 
C 333 2799 576 2412 1069 2246 
C 442 2003 250 1516 250 1152 
C 250 448 819 -128 1498 -128 
C 2202 -128 2752 460 2752 1152 
C 2752 1574 2502 2022 1933 2246 
z
M 1504 2438 
C 1075 2438 787 2728 787 3167 
C 787 3613 1075 3897 1504 3897 
C 1901 3897 2214 3639 2214 3167 
C 2214 2703 1907 2438 1504 2438 
z
M 1504 268 
C 1139 268 749 518 749 1158 
C 749 1817 1184 2048 1498 2048 
C 1843 2048 2253 1804 2253 1158 
C 2253 492 1830 268 1504 268 
z
" id="CMSS17-38" transform="scale(0.015625)"/>
      <path d="M 1389 3788 
C 1466 3788 1542 3795 1619 3795 
L 2355 3795 
C 1440 2715 915 1350 915 -64 
L 1427 -64 
C 1427 1305 1875 2695 2752 3807 
L 2752 4224 
L 250 4224 
L 250 3788 
L 1389 3788 
z
" id="CMSS17-37" transform="scale(0.015625)"/>
     </defs>
     <use transform="scale(0.996264)" xlink:href="#CMSS17-38"/>
     <use transform="translate(46.843624 0)scale(0.996264)" xlink:href="#CMSS17-37"/>
     <use transform="translate(93.687247 0)scale(0.996264)" xlink:href="#CMSS17-25"/>
    </g>
   </g>
   <g id="text_6">
    <!-- Population Distribution -->
    <g style="fill:#262626;" transform="translate(165.555027 16.166376)scale(0.12 -0.12)">
     <defs>
      <path d="M 2106 1856 
C 2874 1856 3501 2447 3501 3139 
C 3501 3818 2899 4416 2067 4416 
L 570 4416 
L 570 0 
L 1107 0 
L 1107 1856 
L 2106 1856 
z
M 1926 4057 
C 2669 4057 2995 3598 2995 3139 
C 2995 2711 2694 2227 1926 2227 
L 1094 2227 
L 1094 4057 
L 1926 4057 
z
" id="CMSS17-50" transform="scale(0.015625)"/>
      <path d="M 966 275 
C 1178 70 1466 -64 1773 -64 
C 2368 -64 2880 553 2880 1382 
C 2880 2147 2496 2816 1946 2816 
C 1626 2816 1242 2700 954 2470 
L 954 2764 
L 480 2764 
L 480 -1280 
L 966 -1280 
L 966 275 
z
M 966 2088 
C 1018 2166 1235 2412 1587 2412 
C 2035 2412 2394 1946 2394 1382 
C 2394 741 1958 326 1530 326 
C 1402 326 1267 358 1139 468 
C 966 624 966 721 966 812 
L 966 2088 
z
" id="CMSS17-70" transform="scale(0.015625)"/>
      <path d="M 570 4416 
L 570 0 
L 2144 0 
C 3194 0 4000 981 4000 2169 
C 4000 3396 3194 4416 2144 4416 
L 570 4416 
z
M 1094 358 
L 1094 4057 
L 2003 4057 
C 2861 4057 3475 3275 3475 2169 
C 3475 1108 2867 358 2003 358 
L 1094 358 
z
" id="CMSS17-44" transform="scale(0.015625)"/>
      <path d="M 2061 2623 
C 1683 2803 1389 2816 1197 2816 
C 742 2816 198 2655 198 2009 
C 198 1363 902 1222 1094 1183 
C 1389 1126 1715 1062 1715 742 
C 1715 339 1254 339 1171 339 
C 915 339 563 409 243 639 
L 166 211 
C 531 0 883 -64 1178 -64 
C 1965 -64 2163 416 2163 780 
C 2163 1094 1984 1305 1862 1401 
C 1651 1567 1574 1587 1050 1695 
C 960 1708 646 1779 646 2067 
C 646 2431 1050 2431 1139 2431 
C 1555 2431 1811 2303 1984 2207 
L 2061 2623 
z
" id="CMSS17-73" transform="scale(0.015625)"/>
     </defs>
     <use transform="scale(0.996264)" xlink:href="#CMSS17-50"/>
     <use transform="translate(57.133132 0)scale(0.996264)" xlink:href="#CMSS17-6f"/>
     <use transform="translate(103.976756 0)scale(0.996264)" xlink:href="#CMSS17-70"/>
     <use transform="translate(152.181699 0)scale(0.996264)" xlink:href="#CMSS17-75"/>
     <use transform="translate(200.386642 0)scale(0.996264)" xlink:href="#CMSS17-6c"/>
     <use transform="translate(222.567365 0)scale(0.996264)" xlink:href="#CMSS17-61"/>
     <use transform="translate(267.489286 0)scale(0.996264)" xlink:href="#CMSS17-74"/>
     <use transform="translate(301.320852 0)scale(0.996264)" xlink:href="#CMSS17-69"/>
     <use transform="translate(323.501576 0)scale(0.996264)" xlink:href="#CMSS17-6f"/>
     <use transform="translate(370.345199 0)scale(0.996264)" xlink:href="#CMSS17-6e"/>
     <use transform="translate(449.779255 0)scale(0.996264)" xlink:href="#CMSS17-44"/>
     <use transform="translate(517.322097 0)scale(0.996264)" xlink:href="#CMSS17-69"/>
     <use transform="translate(539.50282 0)scale(0.996264)" xlink:href="#CMSS17-73"/>
     <use transform="translate(575.416362 0)scale(0.996264)" xlink:href="#CMSS17-74"/>
     <use transform="translate(609.247928 0)scale(0.996264)" xlink:href="#CMSS17-72"/>
     <use transform="translate(641.157701 0)scale(0.996264)" xlink:href="#CMSS17-69"/>
     <use transform="translate(663.338424 0)scale(0.996264)" xlink:href="#CMSS17-62"/>
     <use transform="translate(711.543367 0)scale(0.996264)" xlink:href="#CMSS17-75"/>
     <use transform="translate(759.74831 0)scale(0.996264)" xlink:href="#CMSS17-74"/>
     <use transform="translate(793.579877 0)scale(0.996264)" xlink:href="#CMSS17-69"/>
     <use transform="translate(815.7606 0)scale(0.996264)" xlink:href="#CMSS17-6f"/>
     <use transform="translate(862.604223 0)scale(0.996264)" xlink:href="#CMSS17-6e"/>
    </g>
   </g>
  </g>
  <g id="axes_3">
   <g id="patch_6">
    <path d="M 424.987624 84.524129 
C 424.987624 78.460807 423.882192 72.447973 421.725652 66.781121 
C 419.569112 61.114268 416.39738 55.887772 412.366325 51.358481 
L 375.101422 84.524129 
L 424.987624 84.524129 
z
" style="fill:#4c72b0;opacity:0.7;"/>
   </g>
   <g id="patch_7">
    <path d="M 412.366325 51.358481 
C 408.517836 47.034321 403.945897 43.412833 398.85556 40.65644 
C 393.765223 37.900048 388.233742 36.050584 382.509203 35.190997 
C 376.784665 34.331409 370.953949 34.474745 365.278561 35.614574 
C 359.603174 36.754403 354.16925 38.873427 349.220499 41.876608 
C 344.271748 44.87979 339.883277 48.721549 336.251908 53.229585 
C 332.620538 57.737621 329.801384 62.843516 327.920881 68.318271 
C 326.040379 73.793027 325.12707 79.553553 325.221916 85.341492 
C 325.316761 91.129431 326.418322 96.85694 328.477193 102.267141 
C 330.536064 107.677343 333.520998 112.688128 337.298122 117.074763 
C 341.075246 121.461398 345.587235 125.157308 350.631727 127.996733 
C 355.676219 130.836157 361.176654 132.776003 366.886341 133.729268 
C 372.596027 134.682533 378.428309 134.63475 384.12161 133.588061 
C 389.814911 132.541373 395.282825 130.511665 400.280117 127.589969 
C 405.277408 124.668273 409.728235 120.898932 413.432979 116.450998 
C 417.137722 112.003065 420.040155 106.944046 422.010106 101.500837 
C 423.980056 96.057627 424.987625 90.312838 424.987624 84.524122 
L 375.101422 84.524129 
L 412.366325 51.358481 
z
" style="fill:#55a868;opacity:0.7;"/>
   </g>
   <g id="text_7">
    <!-- 12\% -->
    <g style="fill:#262626;" transform="translate(426.388075 67.49748)scale(0.1 -0.1)">
     <defs>
      <path d="M 1651 1353 
C 1830 1538 2099 1761 2285 1984 
C 2464 2201 2701 2507 2701 2953 
C 2701 3655 2227 4288 1421 4288 
C 787 4288 422 3891 250 3272 
L 499 2928 
C 640 3508 838 3878 1338 3878 
C 1888 3878 2195 3431 2195 2940 
C 2195 2354 1747 1901 1408 1563 
C 1030 1187 659 805 301 409 
L 301 0 
L 2701 0 
L 2701 435 
L 1613 435 
C 1536 435 1459 428 1382 428 
L 742 428 
L 742 435 
L 1651 1353 
z
" id="CMSS17-32" transform="scale(0.015625)"/>
     </defs>
     <use transform="scale(0.996264)" xlink:href="#CMSS17-31"/>
     <use transform="translate(46.843624 0)scale(0.996264)" xlink:href="#CMSS17-32"/>
     <use transform="translate(93.687247 0)scale(0.996264)" xlink:href="#CMSS17-25"/>
    </g>
   </g>
   <g id="text_8">
    <!-- 88\% -->
    <g style="fill:#262626;" transform="translate(305.549874 106.532102)scale(0.1 -0.1)">
     <use transform="scale(0.996264)" xlink:href="#CMSS17-38"/>
     <use transform="translate(46.843624 0)scale(0.996264)" xlink:href="#CMSS17-38"/>
     <use transform="translate(93.687247 0)scale(0.996264)" xlink:href="#CMSS17-25"/>
    </g>
   </g>
   <g id="text_9">
    <!-- Vote Distribution (est.) $ (\Delta $=-9.1 \%) -->
    <g style="fill:#262626;" transform="translate(285.140489 16.166376)scale(0.12 -0.12)">
     <defs>
      <path d="M 3910 4416 
L 3411 4416 
L 2304 1361 
C 2272 1272 2074 687 2035 484 
L 2029 484 
C 1978 725 1773 1291 1664 1603 
L 922 3670 
L 646 4416 
L 83 4416 
L 1715 0 
L 2278 0 
L 3910 4416 
z
" id="CMSS17-56" transform="scale(0.015625)"/>
      <path d="M 2502 1375 
C 2502 1587 2490 2001 2285 2347 
C 2061 2713 1696 2816 1421 2816 
C 755 2816 192 2184 192 1363 
C 192 579 774 -64 1510 -64 
C 1798 -64 2150 19 2470 249 
C 2470 275 2458 414 2451 421 
C 2451 433 2432 629 2432 655 
C 2125 408 1773 326 1517 326 
C 1107 326 666 667 646 1375 
L 2502 1375 
z
M 698 1728 
C 781 2086 1062 2425 1421 2425 
C 1517 2425 1965 2412 2080 1728 
L 698 1728 
z
" id="CMSS17-65" transform="scale(0.015625)"/>
      <path d="M 1613 4800 
C 1267 4447 474 3627 474 1603 
C 474 -428 1267 -1242 1613 -1600 
L 2003 -1600 
C 1216 -781 960 366 960 1596 
C 960 2820 1203 3973 2003 4800 
L 1613 4800 
z
" id="CMSS17-28" transform="scale(0.015625)"/>
      <path d="M 1088 512 
L 576 512 
L 576 0 
L 1088 0 
L 1088 512 
z
" id="CMSS17-2e" transform="scale(0.015625)"/>
      <path d="M 723 -1600 
C 1069 -1248 1862 -428 1862 1596 
C 1862 3627 1069 4440 723 4800 
L 333 4800 
C 1120 3979 1376 2833 1376 1603 
C 1376 379 1133 -774 333 -1600 
L 723 -1600 
z
" id="CMSS17-29" transform="scale(0.015625)"/>
      <path d="M 1958 -1562 
C 1958 -1556 1958 -1543 1939 -1524 
C 1645 -1223 858 -403 858 1596 
C 858 3595 1632 4408 1946 4729 
C 1946 4735 1958 4748 1958 4767 
C 1958 4787 1939 4800 1914 4800 
C 1843 4800 1299 4325 986 3620 
C 666 2909 576 2218 576 1603 
C 576 1141 621 360 1005 -467 
C 1312 -1133 1837 -1600 1914 -1600 
C 1946 -1600 1958 -1588 1958 -1562 
z
" id="CMR17-28" transform="scale(0.015625)"/>
      <path d="M 2598 4435 
C 2547 4544 2522 4544 2470 4544 
C 2394 4544 2387 4531 2342 4441 
L 269 108 
C 262 96 237 38 237 32 
C 237 6 243 0 358 0 
L 4576 0 
C 4691 0 4698 6 4698 32 
C 4698 38 4672 96 4666 108 
L 2598 4435 
z
M 2310 4056 
L 4083 358 
L 531 358 
L 2310 4056 
z
" id="CMR17-1" transform="scale(0.015625)"/>
      <path d="M 4147 2048 
C 4243 2048 4339 2048 4339 2156 
C 4339 2272 4230 2272 4122 2272 
L 550 2272 
C 442 2272 333 2272 333 2156 
C 333 2048 429 2048 525 2048 
L 4147 2048 
z
M 4122 927 
C 4230 927 4339 927 4339 1043 
C 4339 1152 4243 1152 4147 1152 
L 525 1152 
C 429 1152 333 1152 333 1043 
C 333 927 442 927 550 927 
L 4122 927 
z
" id="CMSS17-3d" transform="scale(0.015625)"/>
      <path d="M 1664 1216 
L 1664 1587 
L 64 1587 
L 64 1216 
L 1664 1216 
z
" id="CMSS17-2d" transform="scale(0.015625)"/>
     </defs>
     <use transform="scale(0.996264)" xlink:href="#CMSS17-56"/>
     <use transform="translate(59.615401 0)scale(0.996264)" xlink:href="#CMSS17-6f"/>
     <use transform="translate(106.459025 0)scale(0.996264)" xlink:href="#CMSS17-74"/>
     <use transform="translate(140.290591 0)scale(0.996264)" xlink:href="#CMSS17-65"/>
     <use transform="translate(213.158526 0)scale(0.996264)" xlink:href="#CMSS17-44"/>
     <use transform="translate(280.701368 0)scale(0.996264)" xlink:href="#CMSS17-69"/>
     <use transform="translate(302.882091 0)scale(0.996264)" xlink:href="#CMSS17-73"/>
     <use transform="translate(338.795633 0)scale(0.996264)" xlink:href="#CMSS17-74"/>
     <use transform="translate(372.627199 0)scale(0.996264)" xlink:href="#CMSS17-72"/>
     <use transform="translate(404.536972 0)scale(0.996264)" xlink:href="#CMSS17-69"/>
     <use transform="translate(426.717695 0)scale(0.996264)" xlink:href="#CMSS17-62"/>
     <use transform="translate(474.922638 0)scale(0.996264)" xlink:href="#CMSS17-75"/>
     <use transform="translate(523.127581 0)scale(0.996264)" xlink:href="#CMSS17-74"/>
     <use transform="translate(556.959148 0)scale(0.996264)" xlink:href="#CMSS17-69"/>
     <use transform="translate(579.139871 0)scale(0.996264)" xlink:href="#CMSS17-6f"/>
     <use transform="translate(625.983495 0)scale(0.996264)" xlink:href="#CMSS17-6e"/>
     <use transform="translate(705.41755 0)scale(0.996264)" xlink:href="#CMSS17-28"/>
     <use transform="translate(741.851465 0)scale(0.996264)" xlink:href="#CMSS17-65"/>
     <use transform="translate(783.490287 0)scale(0.996264)" xlink:href="#CMSS17-73"/>
     <use transform="translate(819.403829 0)scale(0.996264)" xlink:href="#CMSS17-74"/>
     <use transform="translate(853.235395 0)scale(0.996264)" xlink:href="#CMSS17-2e"/>
     <use transform="translate(879.2596 0)scale(0.996264)" xlink:href="#CMSS17-29"/>
     <use transform="translate(957.332321 0)scale(0.996264)" xlink:href="#CMR17-28"/>
     <use transform="translate(992.613089 0)scale(0.996264)" xlink:href="#CMR17-1"/>
     <use transform="translate(1069.532679 0)scale(0.996264)" xlink:href="#CMSS17-3d"/>
     <use transform="translate(1142.400614 0)scale(0.996264)" xlink:href="#CMSS17-2d"/>
     <use transform="translate(1173.629727 0)scale(0.996264)" xlink:href="#CMSS17-39"/>
     <use transform="translate(1220.47335 0)scale(0.996264)" xlink:href="#CMSS17-2e"/>
     <use transform="translate(1246.497555 0)scale(0.996264)" xlink:href="#CMSS17-31"/>
     <use transform="translate(1324.570291 0)scale(0.996264)" xlink:href="#CMSS17-25"/>
     <use transform="translate(1402.643027 0)scale(0.996264)" xlink:href="#CMSS17-29"/>
    </g>
   </g>
  </g>
  <g id="legend_1">
   <g id="patch_8">
    <path d="M 176.832999 168.044129 
L 205.632999 168.044129 
L 205.632999 157.964129 
L 176.832999 157.964129 
z
" style="fill:#4c72b0;opacity:0.7;"/>
   </g>
   <g id="text_10">
    <!-- MIT -->
    <g style="fill:#262626;" transform="translate(217.152999 168.044129)scale(0.144 -0.144)">
     <defs>
      <path d="M 3194 2373 
L 2886 1476 
C 2835 1311 2662 795 2624 592 
L 2618 592 
C 2598 719 2560 853 2458 1177 
C 2400 1368 2336 1565 2272 1743 
L 1325 4416 
L 576 4416 
L 576 0 
L 1075 0 
L 1075 3899 
L 1082 3899 
C 1082 3893 1139 3613 1530 2500 
L 2374 102 
L 2848 102 
L 3610 2233 
C 3661 2379 3821 2843 3891 3066 
C 3955 3257 4115 3728 4154 3912 
L 4160 3912 
L 4160 0 
L 4666 0 
L 4666 4416 
L 3923 4416 
L 3194 2373 
z
" id="CMSS17-4d" transform="scale(0.015625)"/>
      <path d="M 1094 4416 
L 557 4416 
L 557 0 
L 1094 0 
L 1094 4416 
z
" id="CMSS17-49" transform="scale(0.015625)"/>
      <path d="M 2317 3987 
L 2848 3987 
C 2925 3987 3002 3980 3078 3980 
L 3878 3980 
L 3878 4396 
L 218 4396 
L 218 3980 
L 1018 3980 
C 1094 3980 1171 3987 1248 3987 
L 1779 3987 
L 1779 0 
L 2317 0 
L 2317 3987 
z
" id="CMSS17-54" transform="scale(0.015625)"/>
     </defs>
     <use transform="scale(0.996264)" xlink:href="#CMSS17-4d"/>
     <use transform="translate(81.67603 0)scale(0.996264)" xlink:href="#CMSS17-49"/>
     <use transform="translate(107.459955 0)scale(0.996264)" xlink:href="#CMSS17-54"/>
    </g>
   </g>
   <g id="patch_9">
    <path d="M 176.832999 188.113656 
L 205.632999 188.113656 
L 205.632999 178.033656 
L 176.832999 178.033656 
z
" style="fill:#55a868;opacity:0.7;"/>
   </g>
   <g id="text_11">
    <!-- All Others -->
    <g style="fill:#262626;" transform="translate(217.152999 188.113656)scale(0.144 -0.144)">
     <defs>
      <path d="M 2272 4416 
L 1722 4416 
L 166 0 
L 653 0 
L 1101 1280 
L 2816 1280 
L 3270 0 
L 3827 0 
L 2272 4416 
z
M 2694 1638 
L 1222 1638 
C 1530 2530 1914 3638 1958 3924 
L 1965 3924 
C 2010 3663 2138 3281 2246 2956 
L 2694 1638 
z
" id="CMSS17-41" transform="scale(0.015625)"/>
      <path d="M 4096 2201 
C 4096 3541 3219 4544 2214 4544 
C 1210 4544 333 3535 333 2201 
C 333 855 1222 -128 2214 -128 
C 3206 -128 4096 855 4096 2201 
z
M 2214 275 
C 1510 275 870 1067 870 2285 
C 870 3470 1549 4140 2214 4140 
C 2880 4140 3558 3470 3558 2285 
C 3558 1061 2912 275 2214 275 
z
" id="CMSS17-4f" transform="scale(0.015625)"/>
      <path d="M 2618 1878 
C 2618 2283 2522 2816 1798 2816 
C 1395 2816 1133 2617 947 2399 
L 947 4416 
L 474 4416 
L 474 0 
L 960 0 
L 960 1556 
C 960 1962 1114 2425 1549 2425 
C 2112 2425 2131 2045 2131 1826 
L 2131 0 
L 2618 0 
L 2618 1878 
z
" id="CMSS17-68" transform="scale(0.015625)"/>
     </defs>
     <use transform="scale(0.996264)" xlink:href="#CMSS17-41"/>
     <use transform="translate(62.217855 0)scale(0.996264)" xlink:href="#CMSS17-6c"/>
     <use transform="translate(84.398578 0)scale(0.996264)" xlink:href="#CMSS17-6c"/>
     <use transform="translate(137.808414 0)scale(0.996264)" xlink:href="#CMSS17-4f"/>
     <use transform="translate(206.832669 0)scale(0.996264)" xlink:href="#CMSS17-74"/>
     <use transform="translate(240.664236 0)scale(0.996264)" xlink:href="#CMSS17-68"/>
     <use transform="translate(288.869179 0)scale(0.996264)" xlink:href="#CMSS17-65"/>
     <use transform="translate(330.508001 0)scale(0.996264)" xlink:href="#CMSS17-72"/>
     <use transform="translate(362.417774 0)scale(0.996264)" xlink:href="#CMSS17-73"/>
    </g>
   </g>
  </g>
 </g>
</svg>
